<?xml version="1.0" encoding="iso-8859-1"?>
<!-- Generator: Adobe Illustrator 19.1.0, SVG Export Plug-In . SVG Version: 6.00 Build 0)  -->
<svg version="1.1" id="Capa_1" xmlns="http://www.w3.org/2000/svg" xmlns:xlink="http://www.w3.org/1999/xlink" x="0px" y="0px"
	 viewBox="0 0 66.5 66.5" style="enable-background:new 0 0 66.5 66.5;" xml:space="preserve">
<g>
	<g id="group-19svg">
		<path id="path-1_9_" style="fill:#FF917B;" d="M36.5,4.992c-16.568,0-30,13.436-30,30.009c0,16.574,13.432,30.009,30,30.009
			s30-13.435,30-30.009C66.5,18.428,53.068,4.992,36.5,4.992z M28.399,50.752c-2.111,2.112-5.534,2.112-7.645,0
			c-2.11-2.111-2.11-5.535,0-7.647c2.111-2.111,5.534-2.111,7.645,0C30.51,45.217,30.51,48.641,28.399,50.752z M28.399,26.898
			c-2.111,2.111-5.534,2.111-7.645,0c-2.11-2.112-2.11-5.536,0-7.647c2.111-2.112,5.534-2.112,7.645,0
			C30.51,21.362,30.51,24.786,28.399,26.898z M40.456,38.691c-2.11,2.112-5.533,2.112-7.643,0c-2.112-2.111-2.112-5.535,0-7.647
			c2.11-2.111,5.533-2.111,7.643,0C42.568,33.156,42.568,36.58,40.456,38.691z M52.246,50.752c-2.111,2.112-5.533,2.112-7.644,0
			c-2.111-2.111-2.111-5.535,0-7.647c2.111-2.111,5.533-2.111,7.644,0C54.358,45.217,54.358,48.641,52.246,50.752z M52.246,26.898
			c-2.111,2.111-5.533,2.111-7.644,0c-2.111-2.112-2.111-5.536,0-7.647c2.111-2.112,5.533-2.112,7.644,0
			C54.358,21.362,54.358,24.786,52.246,26.898z"/>
		<path id="path-2_9_" d="M31.5,64.51C14.131,64.51,0,50.374,0,33C0,15.625,14.131,1.49,31.5,1.49S63,15.625,63,33
			C63,50.374,48.869,64.51,31.5,64.51z M31.5,4.491C15.785,4.491,3,17.28,3,33c0,15.719,12.785,28.509,28.5,28.509S60,48.719,60,33
			C60,17.28,47.215,4.491,31.5,4.491z M43.424,51.835c-1.845,0-3.578-0.718-4.883-2.023c-2.692-2.693-2.692-7.075,0-9.769
			c1.305-1.304,3.039-2.023,4.883-2.023c1.844,0,3.578,0.719,4.883,2.023c1.305,1.305,2.022,3.04,2.022,4.884
			c0,1.846-0.717,3.581-2.022,4.885C47.002,51.117,45.269,51.835,43.424,51.835z M43.424,41.021c-1.043,0-2.024,0.406-2.762,1.144
			c-1.522,1.524-1.522,4.002,0,5.525c1.477,1.475,4.047,1.475,5.524,0c0.738-0.738,1.143-1.718,1.143-2.763
			c0-1.043-0.406-2.024-1.143-2.762C45.448,41.427,44.467,41.021,43.424,41.021z M19.576,51.835c-1.843,0-3.578-0.718-4.882-2.023
			c-2.693-2.693-2.693-7.075,0-9.769c1.304-1.304,3.039-2.023,4.882-2.023c1.845,0,3.579,0.719,4.883,2.023
			c1.305,1.305,2.023,3.04,2.023,4.884c0,1.846-0.718,3.581-2.023,4.885C23.155,51.117,21.421,51.835,19.576,51.835z M19.576,41.021
			c-1.043,0-2.024,0.406-2.761,1.144c-1.523,1.524-1.523,4.002,0,5.525c1.477,1.476,4.049,1.478,5.523,0
			c0.738-0.738,1.144-1.718,1.144-2.763c0-1.043-0.407-2.024-1.144-2.762C21.601,41.427,20.62,41.021,19.576,41.021z M31.634,39.773
			c-1.844,0-3.578-0.718-4.883-2.023c-2.692-2.692-2.692-7.074,0-9.768c1.305-1.304,3.039-2.023,4.883-2.023
			c1.845,0,3.579,0.719,4.883,2.023c1.304,1.305,2.022,3.04,2.022,4.884c0,1.845-0.718,3.58-2.022,4.884
			C35.213,39.055,33.479,39.773,31.634,39.773z M31.634,28.96c-1.043,0-2.024,0.406-2.762,1.143c-1.522,1.524-1.522,4.003,0,5.526
			c1.478,1.477,4.05,1.475,5.524,0c0.737-0.738,1.143-1.719,1.143-2.763c0-1.043-0.406-2.024-1.143-2.763
			C33.658,29.366,32.678,28.96,31.634,28.96z M43.424,27.981c-1.844,0-3.578-0.719-4.883-2.023c-2.692-2.695-2.692-7.077,0-9.769
			c1.305-1.305,3.038-2.023,4.883-2.023c1.845,0,3.578,0.718,4.883,2.023c1.305,1.304,2.022,3.039,2.022,4.884
			c0,1.845-0.717,3.58-2.022,4.885C47.002,27.262,45.268,27.981,43.424,27.981z M43.424,17.167c-1.043,0-2.023,0.406-2.762,1.144
			c-1.522,1.523-1.522,4.001,0,5.525c1.475,1.475,4.049,1.475,5.524,0c0.737-0.739,1.143-1.719,1.143-2.763
			s-0.406-2.025-1.143-2.762C45.447,17.573,44.467,17.167,43.424,17.167z M19.576,27.981c-1.843,0-3.578-0.719-4.882-2.023
			c-2.693-2.695-2.693-7.077,0-9.769c1.304-1.305,3.039-2.023,4.882-2.023c1.845,0,3.579,0.718,4.883,2.023
			c1.305,1.304,2.023,3.039,2.023,4.884c0,1.845-0.718,3.58-2.023,4.885C23.155,27.262,21.421,27.981,19.576,27.981z M19.576,17.167
			c-1.043,0-2.023,0.406-2.761,1.144c-1.523,1.523-1.523,4.001,0,5.525c1.475,1.477,4.049,1.475,5.523,0
			c0.737-0.739,1.144-1.719,1.144-2.763s-0.407-2.025-1.144-2.762C21.601,17.572,20.62,17.167,19.576,17.167z"/>
	</g>
</g>
<g>
</g>
<g>
</g>
<g>
</g>
<g>
</g>
<g>
</g>
<g>
</g>
<g>
</g>
<g>
</g>
<g>
</g>
<g>
</g>
<g>
</g>
<g>
</g>
<g>
</g>
<g>
</g>
<g>
</g>
</svg>
