<?xml version="1.0" encoding="iso-8859-1"?>
<!-- Generator: Adobe Illustrator 19.1.0, SVG Export Plug-In . SVG Version: 6.00 Build 0)  -->
<svg version="1.1" id="Capa_1" xmlns="http://www.w3.org/2000/svg" xmlns:xlink="http://www.w3.org/1999/xlink" x="0px" y="0px"
	 viewBox="0 0 67 67" style="enable-background:new 0 0 67 67;" xml:space="preserve">
<g>
	<g id="group-28svg">
		<path id="path-1_19_" style="fill:#8B71B5;" d="M67,54.007c0,4.419-3.582,8.002-8,8.002H15c-4.418,0-8-3.583-8-8.002V17.995
			c0-4.419,3.582-8.002,8-8.002h44c4.418,0,8,3.583,8,8.002V54.007z"/>
		<path id="path-2_19_" style="fill:#E56A77;" d="M62,46.004c0,4.42-3.582,8.003-8,8.003H37c-4.418,0-8-3.583-8-8.003V23.997
			c0-4.42,3.582-8.002,8-8.002h17c4.418,0,8,3.582,8,8.002V46.004z"/>
		<path id="path-3_18_" style="fill:#FF917B;" d="M14,14.995v13.004h8V14.995H14z"/>
		<path id="path-4_18_" style="fill:#FF917B;" d="M14,43.003v13.004h8V43.003H14z"/>
		<path id="path-5_18_" style="fill:#FF917B;" d="M22.871,34.987c0,2.18-1.767,3.948-3.948,3.948c-2.18,0-3.947-1.768-3.947-3.948
			c0-2.181,1.767-3.949,3.947-3.949C21.104,31.038,22.871,32.806,22.871,34.987z"/>
		<path id="path-6_13_" d="M53.5,60.008h-44c-5.238,0-9.5-4.263-9.5-9.503V14.494c0-5.239,4.262-9.503,9.5-9.503h44
			c5.238,0,9.5,4.264,9.5,9.503v36.011C63,55.745,58.738,60.008,53.5,60.008z M9.5,7.992c-3.584,0-6.5,2.917-6.5,6.502v36.011
			c0,3.586,2.916,6.502,6.5,6.502h44c3.584,0,6.5-2.916,6.5-6.502V14.494c0-3.585-2.916-6.502-6.5-6.502H9.5z"/>
		<path id="path-7_12_" d="M48.5,52.006h-17c-5.238,0-9.5-4.263-9.5-9.503V20.496c0-5.24,4.262-9.503,9.5-9.503h17
			c5.238,0,9.5,4.263,9.5,9.503v22.007C58,47.743,53.738,52.006,48.5,52.006z M31.5,13.994c-3.584,0-6.5,2.917-6.5,6.502v22.007
			c0,3.585,2.916,6.502,6.5,6.502h17c3.584,0,6.5-2.917,6.5-6.502V20.496c0-3.585-2.916-6.502-6.5-6.502H31.5z"/>
		<path id="path-8_11_" d="M16.5,25.998h-8c-0.828,0-1.5-0.672-1.5-1.501V11.493c0-0.828,0.672-1.5,1.5-1.5h8
			c0.828,0,1.5,0.672,1.5,1.5v13.004C18,25.326,17.328,25.998,16.5,25.998z M10,22.997h5V12.994h-5V22.997z"/>
		<path id="path-9_4_" d="M16.5,54.007h-8c-0.828,0-1.5-0.673-1.5-1.501V39.502c0-0.828,0.672-1.5,1.5-1.5h8
			c0.828,0,1.5,0.672,1.5,1.5v13.004C18,53.334,17.328,54.007,16.5,54.007z M10,51.006h5V41.003h-5V51.006z"/>
		<path id="path-10_3_" d="M12.923,37.435c-3.004,0-5.447-2.444-5.447-5.449s2.443-5.45,5.447-5.45s5.448,2.445,5.448,5.45
			S15.927,37.435,12.923,37.435z M12.923,29.537c-1.35,0-2.447,1.099-2.447,2.449c0,1.35,1.097,2.448,2.447,2.448
			c1.349,0,2.448-1.098,2.448-2.448C15.371,30.636,14.272,29.537,12.923,29.537z"/>
	</g>
</g>
<g>
</g>
<g>
</g>
<g>
</g>
<g>
</g>
<g>
</g>
<g>
</g>
<g>
</g>
<g>
</g>
<g>
</g>
<g>
</g>
<g>
</g>
<g>
</g>
<g>
</g>
<g>
</g>
<g>
</g>
</svg>
