<?xml version="1.0" encoding="iso-8859-1"?>
<!-- Generator: Adobe Illustrator 19.1.0, SVG Export Plug-In . SVG Version: 6.00 Build 0)  -->
<svg version="1.1" id="Capa_1" xmlns="http://www.w3.org/2000/svg" xmlns:xlink="http://www.w3.org/1999/xlink" x="0px" y="0px"
	 viewBox="0 0 63 63" style="enable-background:new 0 0 63 63;" xml:space="preserve">
<g>
	<g id="group-26svg">
		<path id="path-1_17_" d="M61.5,49.005c-0.829,0-1.5-0.672-1.5-1.5V36.419c0-16.22-12.127-28.926-27.608-28.926
			C16.455,7.493,3,20.739,3,36.419v11.086c0,0.828-0.671,1.5-1.5,1.5S0,48.333,0,47.505V36.419C0,19.113,14.829,4.492,32.382,4.492
			C49.555,4.492,63,18.516,63,36.419v11.086C63,48.333,62.329,49.005,61.5,49.005z"/>
		<path id="path-2_17_" style="fill:#EDC951;" d="M61,38.502c0-1.105-0.896-2-2-2h-5c-1.105,0-2,0.895-2,2v18.006
			c0,1.105,0.895,2,2,2h5c1.104,0,2-0.895,2-2V38.502z"/>
		<path id="path-3_16_" style="fill:#EDC951;" d="M19,38.502c0-1.105-0.896-2-2-2h-5c-1.105,0-2,0.895-2,2v18.006
			c0,1.105,0.895,2,2,2h5c1.104,0,2-0.895,2-2V38.502z"/>
		<path id="path-4_16_" d="M55.5,56.508h-5c-1.93,0-3.5-1.571-3.5-3.501V35.001c0-1.93,1.57-3.501,3.5-3.501h5
			c1.93,0,3.5,1.571,3.5,3.501v18.006C59,54.937,57.43,56.508,55.5,56.508z M50.5,34.501c-0.276,0-0.5,0.225-0.5,0.5v18.006
			c0,0.275,0.224,0.5,0.5,0.5h5c0.276,0,0.5-0.225,0.5-0.5V35.001c0-0.275-0.224-0.5-0.5-0.5H50.5z"/>
		<path id="path-5_16_" d="M13.5,56.508h-5c-1.93,0-3.5-1.571-3.5-3.501V35.001c0-1.93,1.57-3.501,3.5-3.501h5
			c1.93,0,3.5,1.571,3.5,3.501v18.006C17,54.937,15.43,56.508,13.5,56.508z M8.5,34.501c-0.276,0-0.5,0.225-0.5,0.5v18.006
			c0,0.275,0.224,0.5,0.5,0.5h5c0.276,0,0.5-0.225,0.5-0.5V35.001c0-0.275-0.224-0.5-0.5-0.5H8.5z"/>
	</g>
</g>
<g>
</g>
<g>
</g>
<g>
</g>
<g>
</g>
<g>
</g>
<g>
</g>
<g>
</g>
<g>
</g>
<g>
</g>
<g>
</g>
<g>
</g>
<g>
</g>
<g>
</g>
<g>
</g>
<g>
</g>
</svg>
