<?xml version="1.0" encoding="iso-8859-1"?>
<!-- Generator: Adobe Illustrator 19.1.0, SVG Export Plug-In . SVG Version: 6.00 Build 0)  -->
<svg version="1.1" id="Capa_1" xmlns="http://www.w3.org/2000/svg" xmlns:xlink="http://www.w3.org/1999/xlink" x="0px" y="0px"
	 viewBox="0 0 65.335 65.335" style="enable-background:new 0 0 65.335 65.335;" xml:space="preserve">
<g>
	<g id="group-13svg">
		<path id="path-1_3_" style="fill:#81BDA4;" d="M64.5,45.172c0,4.419-3.582,8.002-8,8.002h-43c-4.419,0-8-3.583-8-8.002V19.163
			c0-4.42,3.581-8.003,8-8.003h43c4.418,0,8,3.583,8,8.003V45.172z"/>
		<path id="path-2_3_" style="fill:#53ECF4;" d="M5.906,44.171c0,5.002,4.093,9.003,9.143,9.003h41.143
			c5.049,0,9.143-4.001,9.143-9.003H5.906z"/>
		<path id="path-3_3_" d="M53,52.174H10c-5.238,0-9.5-4.263-9.5-9.503V16.663c0-5.24,4.262-9.503,9.5-9.503h43
			c5.238,0,9.5,4.263,9.5,9.503v26.008C62.5,47.91,58.238,52.174,53,52.174z M10,10.16c-3.584,0-6.5,2.917-6.5,6.502v26.008
			c0,3.585,2.916,6.502,6.5,6.502h43c3.584,0,6.5-2.917,6.5-6.502V16.663c0-3.585-2.916-6.502-6.5-6.502H10z"/>
		<path id="path-4_3_" d="M52.192,52.174H12.049c-5.868,0-10.643-4.712-10.643-10.503c0-0.829,0.672-1.501,1.5-1.501h58.429
			c0.829,0,1.5,0.672,1.5,1.501C62.835,47.461,58.06,52.174,52.192,52.174z M4.56,43.171c0.71,3.42,3.798,6.002,7.489,6.002h40.143
			c3.691,0,6.779-2.582,7.49-6.002H4.56z"/>
		<path id="path-5_3_" d="M61.5,58.175h-60c-0.829,0-1.5-0.672-1.5-1.501c0-0.828,0.671-1.5,1.5-1.5h60c0.829,0,1.5,0.672,1.5,1.5
			C63,57.504,62.329,58.175,61.5,58.175z"/>
		<path id="path-6_2_" d="M35.417,37.46c-0.384,0-0.768-0.146-1.061-0.439c-0.586-0.586-0.586-1.536,0-2.122l8.282-8.283
			c0.586-0.586,1.535-0.586,2.121,0c0.586,0.586,0.586,1.536,0,2.122l-8.281,8.283C36.185,37.314,35.801,37.46,35.417,37.46z"/>
		<path id="path-7_2_" d="M22.587,38.863c-0.384,0-0.768-0.147-1.061-0.44c-0.586-0.586-0.586-1.535,0-2.121l17.942-17.948
			c0.586-0.586,1.535-0.586,2.121,0c0.586,0.586,0.586,1.535,0,2.122L23.647,38.424C23.354,38.716,22.971,38.863,22.587,38.863z"/>
	</g>
</g>
<g>
</g>
<g>
</g>
<g>
</g>
<g>
</g>
<g>
</g>
<g>
</g>
<g>
</g>
<g>
</g>
<g>
</g>
<g>
</g>
<g>
</g>
<g>
</g>
<g>
</g>
<g>
</g>
<g>
</g>
</svg>
