<?xml version="1.0" encoding="iso-8859-1"?>
<!-- Generator: Adobe Illustrator 19.1.0, SVG Export Plug-In . SVG Version: 6.00 Build 0)  -->
<svg version="1.1" id="Capa_1" xmlns="http://www.w3.org/2000/svg" xmlns:xlink="http://www.w3.org/1999/xlink" x="0px" y="0px"
	 viewBox="0 0 65.019 65.019" style="enable-background:new 0 0 65.019 65.019;" xml:space="preserve">
<g>
	<g id="group-20svg">
		<path id="path-1_11_" style="fill:#81BDA4;" d="M42.279,5.001H17.098c-2.21,0-3.588,1.587-3.588,3.797v52.016
			c0,2.209,1.378,4.205,3.588,4.205H54.98c2.209,0,3.53-1.996,3.53-4.205V23.379L42.279,5.001z"/>
		<path id="path-2_11_" d="M49.98,63.019H12.098c-3.134,0-5.588-2.287-5.588-5.207V5.796C6.51,2.708,9.121,0,12.098,0h25.181
			c0.428,0,0.837,0.183,1.122,0.505l16.731,18.877c0.243,0.275,0.378,0.629,0.378,0.996v37.434
			C55.51,60.781,53.132,63.019,49.98,63.019z M12.098,3C10.768,3,9.51,4.359,9.51,5.796v52.016c0,1.448,1.302,2.206,2.588,2.206
			H49.98c1.257,0,2.53-0.758,2.53-2.206V20.947L36.604,3H12.098z"/>
		<path id="path-3_10_" d="M33.01,27.508c-0.828,0-1.5-0.672-1.5-1.501V9.002c0-0.828,0.672-1.5,1.5-1.5s1.5,0.672,1.5,1.5v17.005
			C34.51,26.836,33.838,27.508,33.01,27.508z"/>
		<path id="path-4_10_" d="M25.01,27.508c-0.828,0-1.5-0.672-1.5-1.501V9.002c0-0.828,0.672-1.5,1.5-1.5s1.5,0.672,1.5,1.5v17.005
			C26.51,26.836,25.837,27.508,25.01,27.508z"/>
		<path id="path-5_10_" d="M17.01,27.508c-0.828,0-1.5-0.672-1.5-1.501V9.002c0-0.828,0.672-1.5,1.5-1.5c0.828,0,1.5,0.672,1.5,1.5
			v17.005C18.51,26.836,17.838,27.508,17.01,27.508z"/>
	</g>
</g>
<g>
</g>
<g>
</g>
<g>
</g>
<g>
</g>
<g>
</g>
<g>
</g>
<g>
</g>
<g>
</g>
<g>
</g>
<g>
</g>
<g>
</g>
<g>
</g>
<g>
</g>
<g>
</g>
<g>
</g>
</svg>
