<?xml version="1.0" encoding="iso-8859-1"?>
<!-- Generator: Adobe Illustrator 19.1.0, SVG Export Plug-In . SVG Version: 6.00 Build 0)  -->
<svg version="1.1" id="Capa_1" xmlns="http://www.w3.org/2000/svg" xmlns:xlink="http://www.w3.org/1999/xlink" x="0px" y="0px"
	 viewBox="0 0 63.019 63.019" style="enable-background:new 0 0 63.019 63.019;" xml:space="preserve">
<g>
	<g id="group-23svg">
		<path id="path-1_14_" d="M37.01,63.019h-10c-0.829,0-1.5-0.672-1.5-1.501c0-0.828,0.671-1.5,1.5-1.5h10c0.829,0,1.5,0.672,1.5,1.5
			C38.51,62.347,37.839,63.019,37.01,63.019z"/>
		<path id="path-2_14_" style="fill:#E56A77;" d="M49.01,37.011c0,4.42-3.582,8.002-8,8.002h-8c-4.419,0-8-3.582-8-8.002V13.004
			c0-4.42,3.581-8.003,8-8.003h8c4.418,0,8,3.583,8,8.003V37.011z"/>
		<path id="path-3_13_" style="fill:#EDC951;" d="M49.01,35.01h-24V15.004h24V35.01z"/>
		<path id="path-4_13_" d="M35.51,43.013h-8c-5.238,0-9.5-4.263-9.5-9.503V9.502C18.01,4.263,22.272,0,27.51,0h8
			c5.238,0,9.5,4.263,9.5,9.502V33.51C45.01,38.75,40.748,43.013,35.51,43.013z M27.51,3c-3.584,0-6.5,2.917-6.5,6.502V33.51
			c0,3.585,2.916,6.502,6.5,6.502h8c3.584,0,6.5-2.917,6.5-6.502V9.502C42.01,5.917,39.094,3,35.51,3H27.51z"/>
		<path id="path-5_13_" d="M36.553,51.015H25.887c-7.781,0-13.877-5.827-13.877-13.266V25.007c0-0.828,0.671-1.5,1.5-1.5
			c0.829,0,1.5,0.672,1.5,1.5v12.742c0,5.853,4.676,10.265,10.877,10.265h10.666c6.317,0,11.457-4.605,11.457-10.265V25.007
			c0-0.828,0.671-1.5,1.5-1.5s1.5,0.672,1.5,1.5v12.742C51.01,45.064,44.525,51.015,36.553,51.015z"/>
		<path id="path-6_9_" d="M31.51,61.518c-0.829,0-1.5-0.672-1.5-1.5v-9.003c0-0.828,0.671-1.5,1.5-1.5s1.5,0.672,1.5,1.5v9.003
			C33.01,60.846,32.339,61.518,31.51,61.518z"/>
		<path id="path-7_9_" d="M45.01,33.01h-27V10.003h27V33.01z M21.01,30.009h21V13.004h-21V30.009z"/>
		<path id="path-8_8_" d="M43.01,18.005h-6c-0.829,0-1.5-0.672-1.5-1.5c0-0.829,0.671-1.501,1.5-1.501h6
			c0.829,0,1.5,0.672,1.5,1.501C44.51,17.333,43.839,18.005,43.01,18.005z"/>
		<path id="path-9_2_" d="M43.01,24.007h-8c-0.829,0-1.5-0.672-1.5-1.501c0-0.828,0.671-1.5,1.5-1.5h8c0.829,0,1.5,0.672,1.5,1.5
			C44.51,23.335,43.839,24.007,43.01,24.007z"/>
		<path id="path-10_1_" d="M43.01,29.008h-6c-0.829,0-1.5-0.672-1.5-1.5c0-0.828,0.671-1.5,1.5-1.5h6c0.829,0,1.5,0.672,1.5,1.5
			C44.51,28.336,43.839,29.008,43.01,29.008z"/>
		<path id="path-11_1_" d="M26.01,18.005h-6c-0.829,0-1.5-0.672-1.5-1.5c0-0.829,0.671-1.501,1.5-1.501h6
			c0.829,0,1.5,0.672,1.5,1.501C27.51,17.333,26.839,18.005,26.01,18.005z"/>
		<path id="path-12_1_" d="M24.01,24.007h-4c-0.829,0-1.5-0.672-1.5-1.501c0-0.828,0.671-1.5,1.5-1.5h4c0.829,0,1.5,0.672,1.5,1.5
			C25.51,23.335,24.839,24.007,24.01,24.007z"/>
		<path id="path-13" d="M26.01,29.008h-6c-0.829,0-1.5-0.672-1.5-1.5c0-0.828,0.671-1.5,1.5-1.5h6c0.829,0,1.5,0.672,1.5,1.5
			C27.51,28.336,26.839,29.008,26.01,29.008z"/>
	</g>
</g>
<g>
</g>
<g>
</g>
<g>
</g>
<g>
</g>
<g>
</g>
<g>
</g>
<g>
</g>
<g>
</g>
<g>
</g>
<g>
</g>
<g>
</g>
<g>
</g>
<g>
</g>
<g>
</g>
<g>
</g>
</svg>
