<?xml version="1.0" encoding="iso-8859-1"?>
<!-- Generator: Adobe Illustrator 19.1.0, SVG Export Plug-In . SVG Version: 6.00 Build 0)  -->
<svg version="1.1" id="Capa_1" xmlns="http://www.w3.org/2000/svg" xmlns:xlink="http://www.w3.org/1999/xlink" x="0px" y="0px"
	 viewBox="0 0 65.02 65.02" style="enable-background:new 0 0 65.02 65.02;" xml:space="preserve">
<g>
	<g id="group-29svg">
		<path id="path-1_20_" style="fill:#81BDA4;" d="M52.51,42.013c0,4.42-3.582,8.003-8,8.003h-17c-4.418,0-8-3.583-8-8.003V13.004
			c0-4.42,3.582-8.002,8-8.002h17c4.418,0,8,3.582,8,8.002V42.013z"/>
		<path id="path-2_20_" style="fill:#EDC951;" d="M33.51,57.018h6v-7.002h-6V57.018z"/>
		<path id="path-3_19_" style="fill:#EDC951;" d="M45.51,62.986c0,1.123-0.91,2.034-2.034,2.034H29.544
			c-1.124,0-2.034-0.911-2.034-2.034v-3.934c0-1.123,0.91-2.034,2.034-2.034h13.932c1.124,0,2.034,0.911,2.034,2.034V62.986z"/>
		<path id="path-4_19_" d="M39.01,48.015h-17c-5.238,0-9.5-4.263-9.5-9.503V9.503c0-5.24,4.262-9.503,9.5-9.503h17
			c5.238,0,9.5,4.263,9.5,9.503v29.009C48.51,43.752,44.248,48.015,39.01,48.015z M22.01,3.001c-3.584,0-6.5,2.917-6.5,6.502v29.009
			c0,3.585,2.916,6.502,6.5,6.502h17c3.584,0,6.5-2.917,6.5-6.502V9.503c0-3.585-2.916-6.502-6.5-6.502H22.01z"/>
		<path id="path-5_19_" d="M34.01,55.017h-6c-0.828,0-1.5-0.672-1.5-1.5v-7.002c0-0.829,0.672-1.501,1.5-1.501h6
			c0.828,0,1.5,0.672,1.5,1.501v7.002C35.51,54.345,34.838,55.017,34.01,55.017z M29.51,52.016h3v-4.001h-3V52.016z"/>
		<path id="path-6_14_" d="M37.976,63.02H24.044c-1.949,0-3.534-1.586-3.534-3.536v-3.933c0-1.949,1.585-3.535,3.534-3.535h13.932
			c1.949,0,3.534,1.586,3.534,3.535v3.933C41.51,61.434,39.925,63.02,37.976,63.02z M24.044,55.017
			c-0.295,0-0.534,0.239-0.534,0.534v3.933c0,0.295,0.239,0.535,0.534,0.535h13.932c0.295,0,0.534-0.24,0.534-0.535v-3.933
			c0-0.295-0.239-0.534-0.534-0.534H24.044z"/>
		<path id="path-7_13_" d="M36.51,38.012h-12c-0.828,0-1.5-0.672-1.5-1.501c0-0.828,0.672-1.5,1.5-1.5h12c0.828,0,1.5,0.672,1.5,1.5
			C38.01,37.34,37.338,38.012,36.51,38.012z"/>
		<path id="path-8_12_" d="M36.51,33.01h-12c-0.828,0-1.5-0.672-1.5-1.5c0-0.828,0.672-1.501,1.5-1.501h12
			c0.828,0,1.5,0.673,1.5,1.501C38.01,32.338,37.338,33.01,36.51,33.01z"/>
		<path id="path-9_5_" d="M32.883,12.473c1.391,1.39,1.391,3.645,0,5.036c-1.39,1.39-3.644,1.39-5.033,0
			c-1.39-1.391-1.39-3.646,0-5.036C29.239,11.083,31.493,11.083,32.883,12.473z"/>
	</g>
</g>
<g>
</g>
<g>
</g>
<g>
</g>
<g>
</g>
<g>
</g>
<g>
</g>
<g>
</g>
<g>
</g>
<g>
</g>
<g>
</g>
<g>
</g>
<g>
</g>
<g>
</g>
<g>
</g>
<g>
</g>
</svg>
