<?xml version="1.0" encoding="iso-8859-1"?>
<!-- Generator: Adobe Illustrator 19.1.0, SVG Export Plug-In . SVG Version: 6.00 Build 0)  -->
<svg version="1.1" id="Capa_1" xmlns="http://www.w3.org/2000/svg" xmlns:xlink="http://www.w3.org/1999/xlink" x="0px" y="0px"
	 viewBox="0 0 60.314 60.314" style="enable-background:new 0 0 60.314 60.314;" xml:space="preserve">
<g>
	<g id="group-21svg">
		<path id="path-1_12_" style="fill:#8B71B5;" d="M45.999,31.513c0,5.247-4.252,9.5-9.496,9.5h-4.008
			c-5.244,0-9.496-4.253-9.496-9.5V12.501c0-5.247,4.252-9.5,9.496-9.5h4.008c5.244,0,9.496,4.253,9.496,9.5V31.513z"/>
		<path id="path-2_12_" d="M32.003,41.013h-4.008c-6.063,0-10.996-4.934-10.996-10.999V11c0-6.065,4.933-11,10.996-11h4.008
			c6.064,0,10.996,4.935,10.996,11v19.014C42.999,36.079,38.067,41.013,32.003,41.013z M27.995,3.001
			c-4.409,0-7.996,3.588-7.996,7.999v19.014c0,4.41,3.587,7.998,7.996,7.998h4.008c4.409,0,7.996-3.588,7.996-7.998V11
			c0-4.411-3.587-7.999-7.996-7.999H27.995z"/>
		<path id="path-3_11_" d="M30.941,46.015h-0.523c-7.273,0-13.419-5.729-13.419-12.51V18.006c0-0.828,0.672-1.501,1.5-1.501
			c0.828,0,1.5,0.673,1.5,1.501v15.499c0,5.154,4.772,9.509,10.419,9.509h0.523c5.249,0,9.058-4,9.058-9.509V18.006
			c0-0.828,0.672-1.501,1.5-1.501c0.828,0,1.5,0.673,1.5,1.501v15.499C42.999,40.637,37.816,46.015,30.941,46.015z"/>
		<path id="path-4_11_" d="M30.499,55.517c-0.828,0-1.5-0.672-1.5-1.5v-9.003c0-0.828,0.672-1.5,1.5-1.5c0.828,0,1.5,0.672,1.5,1.5
			v9.003C31.999,54.845,31.327,55.517,30.499,55.517z"/>
		<path id="path-5_11_" d="M30.156,60.314c-7.854,0-16.308-2.013-16.308-6.433c0-0.828,0.672-1.5,1.5-1.5c0.828,0,1.5,0.672,1.5,1.5
			c0,0.997,4.664,3.432,13.308,3.432c8.646,0,13.31-2.435,13.31-3.432c0-0.828,0.672-1.5,1.5-1.5s1.5,0.672,1.5,1.5
			C46.466,58.301,38.012,60.314,30.156,60.314z"/>
	</g>
</g>
<g>
</g>
<g>
</g>
<g>
</g>
<g>
</g>
<g>
</g>
<g>
</g>
<g>
</g>
<g>
</g>
<g>
</g>
<g>
</g>
<g>
</g>
<g>
</g>
<g>
</g>
<g>
</g>
<g>
</g>
</svg>
