<?xml version="1.0" encoding="iso-8859-1"?>
<!-- Generator: Adobe Illustrator 19.1.0, SVG Export Plug-In . SVG Version: 6.00 Build 0)  -->
<svg version="1.1" id="Capa_1" xmlns="http://www.w3.org/2000/svg" xmlns:xlink="http://www.w3.org/1999/xlink" x="0px" y="0px"
	 viewBox="0 0 63.019 63.019" style="enable-background:new 0 0 63.019 63.019;" xml:space="preserve">
<g>
	<g id="group-22svg">
		<path id="path-1_13_" style="fill:#53ECF4;" d="M49.01,40.012c0,4.42-3.582,8.002-8,8.002h-9c-4.418,0-8-3.582-8-8.002V15.004
			c0-4.42,3.582-8.002,8-8.002h9c4.418,0,8,3.582,8,8.002V40.012z"/>
		<path id="path-2_13_" d="M36.51,44.013h-9c-5.238,0-9.5-4.263-9.5-9.503V9.502C18.01,4.263,22.272,0,27.51,0h9
			c5.238,0,9.5,4.263,9.5,9.502V34.51C46.01,39.75,41.748,44.013,36.51,44.013z M27.51,3c-3.584,0-6.5,2.917-6.5,6.502V34.51
			c0,3.585,2.916,6.502,6.5,6.502h9c3.584,0,6.5-2.917,6.5-6.502V9.502C43.01,5.917,40.094,3,36.51,3H27.51z"/>
		<path id="path-3_12_" d="M36.958,52.016H26.232c-7.709,0-14.222-6.554-14.222-14.312V25.007c0-0.828,0.671-1.5,1.5-1.5
			c0.829,0,1.5,0.672,1.5,1.5v12.697c0,6.025,5.244,11.311,11.222,11.311h10.726c5.99,0,11.052-5.181,11.052-11.311V25.007
			c0-0.828,0.671-1.5,1.5-1.5s1.5,0.672,1.5,1.5v12.697C51.01,45.462,44.575,52.016,36.958,52.016z"/>
		<path id="path-4_12_" d="M32.51,62.519c-0.829,0-1.5-0.672-1.5-1.501V51.015c0-0.828,0.671-1.5,1.5-1.5c0.829,0,1.5,0.672,1.5,1.5
			v10.003C34.01,61.847,33.339,62.519,32.51,62.519z"/>
		<path id="path-5_12_" d="M37.01,63.019h-10c-0.829,0-1.5-0.672-1.5-1.501c0-0.828,0.671-1.5,1.5-1.5h10c0.829,0,1.5,0.672,1.5,1.5
			C38.51,62.347,37.839,63.019,37.01,63.019z"/>
	</g>
</g>
<g>
</g>
<g>
</g>
<g>
</g>
<g>
</g>
<g>
</g>
<g>
</g>
<g>
</g>
<g>
</g>
<g>
</g>
<g>
</g>
<g>
</g>
<g>
</g>
<g>
</g>
<g>
</g>
<g>
</g>
</svg>
