<?xml version="1.0" encoding="iso-8859-1"?>
<!-- Generator: Adobe Illustrator 19.1.0, SVG Export Plug-In . SVG Version: 6.00 Build 0)  -->
<svg version="1.1" id="Capa_1" xmlns="http://www.w3.org/2000/svg" xmlns:xlink="http://www.w3.org/1999/xlink" x="0px" y="0px"
	 viewBox="0 0 63.019 63.019" style="enable-background:new 0 0 63.019 63.019;" xml:space="preserve">
<g>
	<g id="group-25svg">
		<path id="path-1_16_" style="fill:#E56A77;" d="M50.01,36.013c0,7.733-6.267,14.002-13.998,14.002h-0.004
			c-7.731,0-13.998-6.269-13.998-14.002V20.004c0-7.734,6.267-14.003,13.998-14.003h0.004c7.731,0,13.998,6.269,13.998,14.003
			V36.013z"/>
		<path id="path-2_16_" d="M31.512,47.014h-0.004c-8.545,0-15.498-6.954-15.498-15.503V15.502C16.01,6.954,22.963,0,31.507,0
			C40.057,0,47.01,6.954,47.01,15.502v16.009C47.01,40.06,40.057,47.014,31.512,47.014z M31.512,3
			C24.616,3,19.01,8.609,19.01,15.502v16.009c0,6.894,5.606,12.502,12.498,12.502h0.004c6.891,0,12.498-5.608,12.498-12.502V15.502
			C44.01,8.609,38.403,3,31.512,3z"/>
		<path id="path-3_15_" d="M31.781,55.016c-12.211,0-21.772-9.232-21.772-21.018v-8.991c0-0.828,0.671-1.5,1.5-1.5
			c0.829,0,1.5,0.672,1.5,1.5v8.991c0,10.272,8.067,18.018,18.766,18.018c10.568,0,18.234-7.578,18.234-18.018v-8.991
			c0-0.828,0.671-1.5,1.5-1.5s1.5,0.672,1.5,1.5v8.991C53.01,45.98,43.884,55.016,31.781,55.016z"/>
		<path id="path-4_15_" d="M32.51,61.518c-0.829,0-1.5-0.672-1.5-1.5v-5.002c0-0.828,0.671-1.5,1.5-1.5c0.829,0,1.5,0.672,1.5,1.5
			v5.002C34.01,60.846,33.339,61.518,32.51,61.518z"/>
		<path id="path-5_15_" d="M38.01,63.019h-12c-0.829,0-1.5-0.672-1.5-1.501c0-0.828,0.671-1.5,1.5-1.5h12c0.829,0,1.5,0.672,1.5,1.5
			C39.51,62.347,38.839,63.019,38.01,63.019z"/>
		<path id="path-6_11_" d="M45.01,19.005h-27c-0.829,0-1.5-0.672-1.5-1.5c0-0.828,0.671-1.501,1.5-1.501h27
			c0.829,0,1.5,0.673,1.5,1.501C46.51,18.333,45.839,19.005,45.01,19.005z"/>
		<path id="path-7_11_" d="M45.01,24.007h-27c-0.829,0-1.5-0.672-1.5-1.501c0-0.828,0.671-1.5,1.5-1.5h27c0.829,0,1.5,0.672,1.5,1.5
			C46.51,23.335,45.839,24.007,45.01,24.007z"/>
		<path id="path-8_10_" d="M45.01,29.008h-27c-0.829,0-1.5-0.672-1.5-1.5c0-0.828,0.671-1.5,1.5-1.5h27c0.829,0,1.5,0.672,1.5,1.5
			C46.51,28.336,45.839,29.008,45.01,29.008z"/>
	</g>
</g>
<g>
</g>
<g>
</g>
<g>
</g>
<g>
</g>
<g>
</g>
<g>
</g>
<g>
</g>
<g>
</g>
<g>
</g>
<g>
</g>
<g>
</g>
<g>
</g>
<g>
</g>
<g>
</g>
<g>
</g>
</svg>
