<?xml version="1.0" encoding="iso-8859-1"?>
<!-- Generator: Adobe Illustrator 19.1.0, SVG Export Plug-In . SVG Version: 6.00 Build 0)  -->
<svg version="1.1" id="Capa_1" xmlns="http://www.w3.org/2000/svg" xmlns:xlink="http://www.w3.org/1999/xlink" x="0px" y="0px"
	 viewBox="0 0 68.802 68.802" style="enable-background:new 0 0 68.802 68.802;" xml:space="preserve">
<g>
	<g id="group-14svg">
		<path id="path-1_4_" style="fill:#E56A77;" d="M68,42.864c0,4.42-3.582,8.003-8,8.003H16c-4.418,0-8-3.583-8-8.003V15.857
			c0-4.42,3.582-8.002,8-8.002h44c4.418,0,8,3.582,8,8.002V42.864z"/>
		<path id="path-2_4_" style="fill:#81BDA4;" d="M8.994,39.863c0,6.002,4.12,10.004,9.201,10.004h41.406
			c5.082,0,9.201-4.002,9.201-10.004H8.994z"/>
		<path id="path-3_4_" d="M53.5,48.867h-44c-5.238,0-9.5-4.263-9.5-9.503V12.356c0-5.24,4.262-9.503,9.5-9.503h44
			c5.238,0,9.5,4.263,9.5,9.503v27.008C63,44.604,58.738,48.867,53.5,48.867z M9.5,5.854c-3.584,0-6.5,2.917-6.5,6.502v27.008
			c0,3.585,2.916,6.502,6.5,6.502h44c3.584,0,6.5-2.917,6.5-6.502V12.356c0-3.585-2.916-6.502-6.5-6.502H9.5z"/>
		<path id="path-4_4_" d="M52.601,48.867H11.195c-6.1,0-10.701-4.946-10.701-11.503c0-0.829,0.671-1.501,1.5-1.501h59.808
			c0.829,0,1.5,0.672,1.5,1.501C63.302,43.921,58.702,48.867,52.601,48.867z M3.598,38.863C4.185,43,7.2,45.866,11.195,45.866
			h41.406c3.995,0,7.01-2.866,7.597-7.002H3.598z"/>
		<path id="path-5_4_" d="M34.713,33.128c-0.384,0-0.768-0.147-1.061-0.44c-0.586-0.586-0.586-1.535,0-2.121l8.334-8.336
			c0.586-0.586,1.535-0.586,2.121,0c0.586,0.586,0.586,1.536,0,2.122l-8.334,8.335C35.48,32.98,35.097,33.128,34.713,33.128z"/>
		<path id="path-6_3_" d="M21.8,34.54c-0.384,0-0.767-0.147-1.06-0.44c-0.586-0.586-0.586-1.536,0-2.122l18.056-18.061
			c0.586-0.586,1.535-0.586,2.121,0c0.586,0.586,0.586,1.536,0,2.122L22.861,34.1C22.568,34.393,22.184,34.54,21.8,34.54z"/>
		<path id="path-7_3_" d="M31.5,57.369c-0.829,0-1.5-0.672-1.5-1.501v-8.002c0-0.828,0.671-1.501,1.5-1.501
			c0.829,0,1.5,0.673,1.5,1.501v8.002C33,56.697,32.329,57.369,31.5,57.369z"/>
		<path id="path-8_2_" d="M41.387,65.95c-0.828,0-1.5-0.672-1.5-1.501c0-3.561-3.67-6.457-8.18-6.457
			c-4.511,0-8.181,2.896-8.181,6.457c0,0.829-0.672,1.501-1.5,1.501c-0.829,0-1.5-0.672-1.5-1.501c0-5.215,5.015-9.458,11.181-9.458
			c6.165,0,11.18,4.243,11.18,9.458C42.887,65.278,42.216,65.95,41.387,65.95z"/>
	</g>
</g>
<g>
</g>
<g>
</g>
<g>
</g>
<g>
</g>
<g>
</g>
<g>
</g>
<g>
</g>
<g>
</g>
<g>
</g>
<g>
</g>
<g>
</g>
<g>
</g>
<g>
</g>
<g>
</g>
<g>
</g>
</svg>
