<?xml version="1.0" encoding="iso-8859-1"?>
<!-- Generator: Adobe Illustrator 19.1.0, SVG Export Plug-In . SVG Version: 6.00 Build 0)  -->
<svg version="1.1" id="Capa_1" xmlns="http://www.w3.org/2000/svg" xmlns:xlink="http://www.w3.org/1999/xlink" x="0px" y="0px"
	 viewBox="0 0 67 67" style="enable-background:new 0 0 67 67;" xml:space="preserve">
<g>
	<g id="group-11svg">
		<path id="path-1_1_" style="fill:#EDC951;" d="M67,49.506c0,4.42-3.582,8.002-8,8.002H15c-4.418,0-8-3.582-8-8.002V14.495
			c0-4.42,3.582-8.002,8-8.002h44c4.418,0,8,3.582,8,8.002V49.506z"/>
		<path id="path-2_1_" d="M53.5,56.507h-44c-5.238,0-9.5-4.263-9.5-9.503V11.993c0-5.24,4.262-9.503,9.5-9.503h44
			c5.238,0,9.5,4.263,9.5,9.503v35.011C63,52.244,58.738,56.507,53.5,56.507z M9.5,5.492c-3.584,0-6.5,2.917-6.5,6.502v35.011
			c0,3.585,2.916,6.502,6.5,6.502h44c3.584,0,6.5-2.917,6.5-6.502V11.993c0-3.585-2.916-6.502-6.5-6.502H9.5z"/>
		<path id="path-3_1_" d="M39.5,64.509h-16c-0.828,0-1.5-0.672-1.5-1.5v-8.002c0-0.829,0.672-1.501,1.5-1.501h16
			c0.828,0,1.5,0.672,1.5,1.501v8.002C41,63.837,40.328,64.509,39.5,64.509z M25,61.509h13v-5.002H25V61.509z"/>
		<path id="path-4_1_" d="M15.411,46.806c-0.384,0-0.767-0.147-1.06-0.44c-0.586-0.586-0.586-1.535,0-2.122L46.824,11.76
			c0.586-0.586,1.535-0.586,2.121,0c0.586,0.586,0.586,1.536,0,2.122L16.472,46.365C16.179,46.659,15.795,46.806,15.411,46.806z"/>
		<path id="path-5_1_" d="M33.305,44.818c-0.384,0-0.768-0.147-1.061-0.44c-0.586-0.586-0.586-1.535,0-2.121l9.411-9.414
			c0.586-0.587,1.535-0.587,2.121,0c0.586,0.586,0.586,1.535,0,2.121l-9.411,9.414C34.072,44.67,33.688,44.818,33.305,44.818z"/>
	</g>
</g>
<g>
</g>
<g>
</g>
<g>
</g>
<g>
</g>
<g>
</g>
<g>
</g>
<g>
</g>
<g>
</g>
<g>
</g>
<g>
</g>
<g>
</g>
<g>
</g>
<g>
</g>
<g>
</g>
<g>
</g>
</svg>
