<?xml version="1.0" encoding="iso-8859-1"?>
<!-- Generator: Adobe Illustrator 19.1.0, SVG Export Plug-In . SVG Version: 6.00 Build 0)  -->
<svg version="1.1" id="Capa_1" xmlns="http://www.w3.org/2000/svg" xmlns:xlink="http://www.w3.org/1999/xlink" x="0px" y="0px"
	 viewBox="0 0 67 67" style="enable-background:new 0 0 67 67;" xml:space="preserve">
<g>
	<g id="group-15svg">
		<path id="path-1_5_" style="fill:#EDC951;" d="M54,37.001c0,4.419-3.582,8.002-8,8.002H15c-4.419,0-8-3.583-8-8.002V19.996
			c0-4.419,3.581-8.002,8-8.002h31c4.418,0,8,3.583,8,8.002V37.001z"/>
		<path id="path-2_5_" d="M40.5,44.004h-31C4.262,44.004,0,39.74,0,34.5V17.496c0-5.24,4.262-9.503,9.5-9.503h31
			c5.238,0,9.5,4.263,9.5,9.503V34.5C50,39.74,45.738,44.004,40.5,44.004z M9.5,10.993c-3.584,0-6.5,2.916-6.5,6.502V34.5
			c0,3.585,2.916,6.502,6.5,6.502h31c3.584,0,6.5-2.917,6.5-6.502V17.496c0-3.586-2.916-6.502-6.5-6.502H9.5z"/>
		<path id="path-3_5_" d="M41.408,44.004H9.06c-4.872,0-8.688-3.735-8.688-8.503c0-0.828,0.671-1.5,1.5-1.5h46.724
			c0.828,0,1.5,0.672,1.5,1.5C50.096,40.269,46.279,44.004,41.408,44.004z M3.578,37.001c0.659,2.333,2.832,4.001,5.482,4.001
			h32.348c2.65,0,4.822-1.668,5.482-4.001H3.578z"/>
		<path id="path-4_5_" d="M25.5,51.506c-0.829,0-1.5-0.672-1.5-1.5v-7.003c0-0.828,0.671-1.5,1.5-1.5s1.5,0.672,1.5,1.5v7.003
			C27,50.833,26.329,51.506,25.5,51.506z"/>
		<path id="path-5_5_" d="M33.646,58.623c-0.828,0-1.5-0.672-1.5-1.5c0-2.6-2.719-4.716-6.062-4.716s-6.063,2.116-6.063,4.716
			c0,0.828-0.671,1.5-1.5,1.5c-0.828,0-1.5-0.672-1.5-1.5c0-4.255,4.066-7.717,9.063-7.717s9.062,3.462,9.062,7.717
			C35.146,57.951,34.475,58.623,33.646,58.623z"/>
		<path id="path-6_4_" style="fill:#FFFFFF;" d="M61,51.006c0,3.314-2.687,6.002-6,6.002h-9c-3.313,0-6-2.688-6-6.002V32
			c0-3.314,2.687-6.002,6-6.002h9c3.313,0,6,2.688,6,6.002V51.006z"/>
		<path id="path-7_4_" style="fill:#E56A77;" d="M67,53.006c0,3.315-2.687,6.002-6,6.002h-9c-3.314,0-6-2.687-6-6.002V34
			c0-3.315,2.686-6.002,6-6.002h9c3.313,0,6,2.687,6,6.002V53.006z"/>
		<path id="path-8_3_" d="M55.5,58.007h-9c-4.136,0-7.5-3.365-7.5-7.502V31.5c0-4.137,3.364-7.502,7.5-7.502h9
			c4.136,0,7.5,3.365,7.5,7.502v19.006C63,54.643,59.636,58.007,55.5,58.007z M46.5,26.997c-2.482,0-4.5,2.02-4.5,4.502v19.006
			c0,2.482,2.018,4.501,4.5,4.501h9c2.481,0,4.5-2.019,4.5-4.501V31.5c0-2.482-2.019-4.502-4.5-4.502H46.5z"/>
		<path id="path-9_1_" style="fill:#53ECF4;" d="M46,52.006h21V34H46V52.006z"/>
		<path id="path-10" d="M61.5,51.006h-21c-0.829,0-1.5-0.672-1.5-1.501V31.5c0-0.829,0.671-1.501,1.5-1.501h21
			c0.829,0,1.5,0.672,1.5,1.501v18.005C63,50.333,62.329,51.006,61.5,51.006z M42,48.005h18V33H42V48.005z"/>
		<path id="path-11" d="M52.811,28.879c0,0.486-0.394,0.881-0.88,0.881s-0.88-0.395-0.88-0.881c0-0.486,0.394-0.88,0.88-0.88
			S52.811,28.394,52.811,28.879z"/>
		<path id="path-12" d="M53,54.007h-2c-0.552,0-1-0.448-1-1.001c0-0.552,0.448-1,1-1h2c0.552,0,1,0.448,1,1
			C54,53.559,53.552,54.007,53,54.007z"/>
	</g>
</g>
<g>
</g>
<g>
</g>
<g>
</g>
<g>
</g>
<g>
</g>
<g>
</g>
<g>
</g>
<g>
</g>
<g>
</g>
<g>
</g>
<g>
</g>
<g>
</g>
<g>
</g>
<g>
</g>
<g>
</g>
</svg>
