<?xml version="1.0" encoding="iso-8859-1"?>
<!-- Generator: Adobe Illustrator 19.1.0, SVG Export Plug-In . SVG Version: 6.00 Build 0)  -->
<svg version="1.1" id="Capa_1" xmlns="http://www.w3.org/2000/svg" xmlns:xlink="http://www.w3.org/1999/xlink" x="0px" y="0px"
	 viewBox="0 0 66 66" style="enable-background:new 0 0 66 66;" xml:space="preserve">
<g>
	<g id="group-16svg">
		<path id="path-1_6_" style="fill:#EDC951;" d="M66,52.506c0,4.42-3.582,8.003-8,8.003H14c-4.418,0-8-3.583-8-8.003V25.497
			c0-4.42,3.582-8.002,8-8.002h44c4.418,0,8,3.582,8,8.002V52.506z"/>
		<path id="path-2_6_" style="fill:#E56A77;" d="M26,10.494h19v7.002H26V10.494z"/>
		<path id="path-3_6_" style="fill:#E56A77;" d="M47.816,39.307c0,6.277-5.087,11.365-11.361,11.365
			c-6.275,0-11.362-5.088-11.362-11.365c0-6.276,5.087-11.365,11.362-11.365C42.729,27.943,47.816,33.032,47.816,39.307z"/>
		<path id="path-4_6_" d="M53.5,58.507h-44c-5.238,0-9.5-4.263-9.5-9.503V21.997c0-5.24,4.262-9.503,9.5-9.503h44
			c5.238,0,9.5,4.263,9.5,9.503v27.008C63,54.244,58.738,58.507,53.5,58.507z M9.5,15.495c-3.584,0-6.5,2.917-6.5,6.502v27.008
			c0,3.585,2.916,6.502,6.5,6.502h44c3.584,0,6.5-2.917,6.5-6.502V21.997c0-3.585-2.916-6.502-6.5-6.502H9.5z"/>
		<path id="path-5_6_" d="M31.455,49.172c-7.092,0-12.862-5.771-12.862-12.865s5.77-12.865,12.862-12.865
			c7.091,0,12.861,5.771,12.861,12.865S38.546,49.172,31.455,49.172z M31.455,26.443c-5.438,0-9.862,4.425-9.862,9.864
			s4.424,9.865,9.862,9.865c5.437,0,9.861-4.426,9.861-9.865S36.892,26.443,31.455,26.443z"/>
		<path id="path-6_5_" d="M13.571,22.35c0,1.524-1.236,2.76-2.76,2.76c-1.523,0-2.759-1.236-2.759-2.76
			c0-1.525,1.236-2.761,2.759-2.761C12.335,19.589,13.571,20.825,13.571,22.35z"/>
		<path id="path-7_5_" d="M54.5,58.007c-0.829,0-1.5-0.672-1.5-1.5V9.493h-5v4.001c0,0.829-0.671,1.501-1.5,1.501
			S45,14.323,45,13.494V7.993c0-0.829,0.671-1.501,1.5-1.501h8c0.829,0,1.5,0.672,1.5,1.501v48.515
			C56,57.335,55.329,58.007,54.5,58.007z"/>
		<path id="path-8_4_" d="M40.5,15.495h-19c-0.829,0-1.5-0.672-1.5-1.5V6.993c0-0.829,0.671-1.501,1.5-1.501h19
			c0.829,0,1.5,0.672,1.5,1.501v7.002C42,14.823,41.329,15.495,40.5,15.495z M23,12.494h16V8.493H23V12.494z"/>
	</g>
</g>
<g>
</g>
<g>
</g>
<g>
</g>
<g>
</g>
<g>
</g>
<g>
</g>
<g>
</g>
<g>
</g>
<g>
</g>
<g>
</g>
<g>
</g>
<g>
</g>
<g>
</g>
<g>
</g>
<g>
</g>
</svg>
