<?xml version="1.0" encoding="iso-8859-1"?>
<!-- Generator: Adobe Illustrator 19.1.0, SVG Export Plug-In . SVG Version: 6.00 Build 0)  -->
<svg version="1.1" id="Capa_1" xmlns="http://www.w3.org/2000/svg" xmlns:xlink="http://www.w3.org/1999/xlink" x="0px" y="0px"
	 viewBox="0 0 65.02 65.02" style="enable-background:new 0 0 65.02 65.02;" xml:space="preserve">
<g>
	<g id="group-5svg">
		<path id="path-1_25_" style="fill:#FF917B;" d="M55.51,57.017c0,4.42-3.582,8.003-8,8.003h-24c-4.418,0-8-3.583-8-8.003V13.004
			c0-4.42,3.582-8.003,8-8.003h24c4.418,0,8,3.583,8,8.003V57.017z"/>
		<path id="path-2_25_" style="fill:#E56A77;" d="M15.51,56.017h40V13.004h-40V56.017z"/>
		<path id="path-3_24_" d="M43.01,63.019h-24c-5.238,0-9.5-4.263-9.5-9.503V9.503C9.51,4.263,13.772,0,19.01,0h24
			c5.238,0,9.5,4.263,9.5,9.503v44.013C52.51,58.756,48.248,63.019,43.01,63.019z M19.01,3.001c-3.584,0-6.5,2.917-6.5,6.502v44.013
			c0,3.585,2.916,6.502,6.5,6.502h24c3.584,0,6.5-2.917,6.5-6.502V9.503c0-3.585-2.916-6.502-6.5-6.502H19.01z"/>
		<path id="path-4_24_" d="M51.01,54.016h-40c-0.829,0-1.5-0.672-1.5-1.5V9.503c0-0.829,0.671-1.501,1.5-1.501h40
			c0.829,0,1.5,0.672,1.5,1.501v43.013C52.51,53.344,51.839,54.016,51.01,54.016z M12.51,51.015h37V11.003h-37V51.015z"/>
		<path id="path-5_24_" d="M33.879,5.714c0,1.105-0.896,2.001-2,2.001c-1.105,0-2-0.896-2-2.001s0.895-2.001,2-2.001
			C32.983,3.713,33.879,4.609,33.879,5.714z"/>
		<path id="path-6_19_" d="M34.51,58.018h-5c-0.829,0-1.5-0.672-1.5-1.501c0-0.828,0.671-1.5,1.5-1.5h5c0.829,0,1.5,0.672,1.5,1.5
			C36.01,57.346,35.339,58.018,34.51,58.018z"/>
		<path id="path-7_18_" style="fill:#FFFFFF;" d="M38.51,28.19l-6,4.82h-6v5.001h6l6,5.852V28.19z"/>
		<path id="path-8_17_" d="M36.01,43.363c-0.384,0-0.762-0.148-1.048-0.427l-6.063-5.925H24.01c-0.829,0-1.5-0.672-1.5-1.5v-5.002
			c0-0.828,0.671-1.5,1.5-1.5h5.048l6.122-4.069c0.461-0.308,1.052-0.335,1.539-0.073c0.487,0.262,0.791,0.77,0.791,1.323v15.672
			c0,0.604-0.362,1.149-0.918,1.384C36.404,43.325,36.206,43.363,36.01,43.363z M25.51,34.01h4c0.392,0,0.768,0.154,1.049,0.427
			l3.951,3.862v-9.311l-4.169,2.771c-0.247,0.164-0.535,0.251-0.831,0.251h-4V34.01z"/>
		<path id="path-9_8_" style="fill:#E56A77;" d="M27.724,42.432l-3.246-2.339L36.519,23.37l3.246,2.339L27.724,42.432z"/>
		<path id="path-10_6_" d="M26.1,42.263c-0.202,0-0.406-0.062-0.583-0.189c-0.448-0.323-0.55-0.948-0.227-1.396l12.041-16.723
			c0.322-0.448,0.948-0.551,1.396-0.227c0.448,0.323,0.55,0.948,0.227,1.396L26.913,41.847C26.717,42.118,26.411,42.263,26.1,42.263
			z"/>
		<path id="path-11_4_" d="M15.775,42.476c-0.394,0-0.788-0.155-1.082-0.462c-0.574-0.598-0.554-1.548,0.043-2.121l1.872-1.796
			l-1.872-1.802c-0.294-0.282-0.461-0.673-0.461-1.08c0-0.409,0.166-0.798,0.459-1.082l1.904-1.835l-1.929-1.95
			c-0.28-0.282-0.436-0.665-0.434-1.064c0.003-0.398,0.163-0.779,0.446-1.059l2.998-2.961c0.589-0.583,1.54-0.577,2.122,0.014
			c0.582,0.59,0.576,1.54-0.014,2.122l-1.929,1.906l1.941,1.962c0.283,0.285,0.439,0.671,0.434,1.073
			c-0.005,0.401-0.17,0.784-0.459,1.063l-1.876,1.809l1.875,1.803c0.294,0.283,0.46,0.674,0.46,1.082c0,0.409-0.167,0.8-0.461,1.082
			l-2.998,2.878C16.523,42.337,16.149,42.476,15.775,42.476z"/>
		<path id="path-12_4_" d="M41.987,42.476c-0.394,0-0.788-0.155-1.083-0.462c-0.573-0.598-0.553-1.548,0.044-2.121l1.872-1.796
			l-1.873-1.802c-0.294-0.282-0.46-0.673-0.46-1.08c0-0.409,0.166-0.798,0.459-1.082l1.904-1.835l-1.929-1.95
			c-0.28-0.282-0.436-0.665-0.434-1.064c0.002-0.398,0.163-0.779,0.446-1.059l2.998-2.961c0.589-0.583,1.539-0.577,2.121,0.014
			c0.582,0.59,0.577,1.54-0.013,2.122l-1.929,1.906l1.941,1.962c0.283,0.285,0.438,0.671,0.434,1.073
			c-0.005,0.401-0.17,0.784-0.459,1.063l-1.876,1.809l1.875,1.803c0.294,0.283,0.46,0.674,0.46,1.082c0,0.409-0.167,0.8-0.461,1.082
			l-2.998,2.878C42.735,42.337,42.361,42.476,41.987,42.476z"/>
	</g>
</g>
<g>
</g>
<g>
</g>
<g>
</g>
<g>
</g>
<g>
</g>
<g>
</g>
<g>
</g>
<g>
</g>
<g>
</g>
<g>
</g>
<g>
</g>
<g>
</g>
<g>
</g>
<g>
</g>
<g>
</g>
</svg>
