<?xml version="1.0" encoding="iso-8859-1"?>
<!-- Generator: Adobe Illustrator 19.1.0, SVG Export Plug-In . SVG Version: 6.00 Build 0)  -->
<svg version="1.1" id="Capa_1" xmlns="http://www.w3.org/2000/svg" xmlns:xlink="http://www.w3.org/1999/xlink" x="0px" y="0px"
	 viewBox="0 0 65.02 65.02" style="enable-background:new 0 0 65.02 65.02;" xml:space="preserve">
<g>
	<g id="group-4svg">
		<path id="path-1_24_" style="fill:#FF917B;" d="M55.51,57.017c0,4.42-3.582,8.003-8,8.003h-24c-4.418,0-8-3.583-8-8.003V13.004
			c0-4.42,3.582-8.003,8-8.003h24c4.418,0,8,3.583,8,8.003V57.017z"/>
		<path id="path-2_24_" style="fill:#E56A77;" d="M15.51,56.017h40V13.004h-40V56.017z"/>
		<path id="path-3_23_" d="M43.01,63.019h-24c-5.238,0-9.5-4.263-9.5-9.503V9.503C9.51,4.263,13.772,0,19.01,0h24
			c5.238,0,9.5,4.263,9.5,9.503v44.013C52.51,58.756,48.248,63.019,43.01,63.019z M19.01,3.001c-3.584,0-6.5,2.917-6.5,6.502v44.013
			c0,3.585,2.916,6.502,6.5,6.502h24c3.584,0,6.5-2.917,6.5-6.502V9.503c0-3.585-2.916-6.502-6.5-6.502H19.01z"/>
		<path id="path-4_23_" d="M51.01,54.016h-40c-0.829,0-1.5-0.672-1.5-1.5V9.503c0-0.829,0.671-1.501,1.5-1.501h40
			c0.829,0,1.5,0.672,1.5,1.501v43.013C52.51,53.344,51.839,54.016,51.01,54.016z M12.51,51.015h37V11.003h-37V51.015z"/>
		<path id="path-5_23_" d="M34.293,5.714c0,1.105-0.895,2.001-2,2.001c-1.104,0-2-0.896-2-2.001s0.896-2.001,2-2.001
			C33.398,3.713,34.293,4.609,34.293,5.714z"/>
		<path id="path-6_18_" d="M34.51,58.018h-5c-0.829,0-1.5-0.672-1.5-1.501c0-0.828,0.671-1.5,1.5-1.5h5c0.829,0,1.5,0.672,1.5,1.5
			C36.01,57.346,35.339,58.018,34.51,58.018z"/>
		<path id="path-7_17_" style="fill:#FFFFFF;" d="M43.51,27.19l-5.657,4.82H31.51v5.001h6.343l5.657,5.852V27.19z"/>
		<path id="path-8_16_" d="M41.01,43.363c-0.398,0-0.789-0.159-1.077-0.456l-5.715-5.896H29.01c-0.829,0-1.5-0.672-1.5-1.5v-5.002
			c0-0.828,0.671-1.5,1.5-1.5h5.369l5.77-4.048c0.459-0.321,1.058-0.36,1.553-0.103c0.496,0.259,0.808,0.772,0.808,1.332v15.672
			c0,0.612-0.371,1.162-0.937,1.391C41.391,43.327,41.2,43.363,41.01,43.363z M30.51,34.01h4.343c0.406,0,0.794,0.164,1.076,0.456
			l3.581,3.694v-9.086l-3.796,2.664c-0.252,0.177-0.553,0.272-0.861,0.272H30.51V34.01z"/>
		<path id="path-9_7_" style="fill:#E56A77;" d="M33.067,42.432l-3.247-2.339L41.861,23.37l3.247,2.339L33.067,42.432z"/>
		<path id="path-10_5_" d="M31.443,42.263c-0.203,0-0.407-0.062-0.584-0.189c-0.448-0.323-0.55-0.948-0.227-1.396l12.041-16.723
			c0.322-0.448,0.947-0.551,1.396-0.227c0.448,0.323,0.55,0.948,0.227,1.396L32.255,41.847
			C32.06,42.118,31.753,42.263,31.443,42.263z"/>
	</g>
</g>
<g>
</g>
<g>
</g>
<g>
</g>
<g>
</g>
<g>
</g>
<g>
</g>
<g>
</g>
<g>
</g>
<g>
</g>
<g>
</g>
<g>
</g>
<g>
</g>
<g>
</g>
<g>
</g>
<g>
</g>
</svg>
