<?xml version="1.0" encoding="iso-8859-1"?>
<!-- Generator: Adobe Illustrator 19.1.0, SVG Export Plug-In . SVG Version: 6.00 Build 0)  -->
<svg version="1.1" id="Capa_1" xmlns="http://www.w3.org/2000/svg" xmlns:xlink="http://www.w3.org/1999/xlink" x="0px" y="0px"
	 viewBox="0 0 64.02 64.02" style="enable-background:new 0 0 64.02 64.02;" xml:space="preserve">
<g>
	<g id="group-8svg">
		<path id="path-1_28_" style="fill:#FF917B;" d="M28.01,31.01c0,3.314-2.687,6.001-6,6.001h-10c-3.313,0-6-2.687-6-6.001V10.003
			c0-3.314,2.687-6.002,6-6.002h10c3.313,0,6,2.688,6,6.002V31.01z"/>
		<path id="path-2_28_" d="M17.51,36.011h-10c-4.136,0-7.5-3.365-7.5-7.502V7.502C0.01,3.365,3.374,0,7.51,0h10
			c4.136,0,7.5,3.365,7.5,7.502v21.007C25.01,32.646,21.646,36.011,17.51,36.011z M7.51,3.001c-2.482,0-4.5,2.019-4.5,4.501v21.007
			c0,2.482,2.018,4.501,4.5,4.501h10c2.481,0,4.5-2.019,4.5-4.501V7.502c0-2.482-2.019-4.501-4.5-4.501H7.51z"/>
		<path id="path-3_27_" d="M23.51,28.009h-22c-0.828,0-1.5-0.672-1.5-1.501V7.502c0-0.828,0.672-1.5,1.5-1.5h22
			c0.828,0,1.5,0.672,1.5,1.5v19.006C25.01,27.337,24.338,28.009,23.51,28.009z M3.01,25.008h19V9.003h-19V25.008z"/>
		<path id="path-4_27_" d="M14.01,31.01h-4c-0.553,0-1-0.448-1-1.001c0-0.553,0.447-1,1-1h4c0.553,0,1,0.447,1,1
			C15.01,30.562,14.563,31.01,14.01,31.01z"/>
		<path id="path-5_27_" style="fill:#E56A77;" d="M30.01,57.018h-6c-0.828,0-1.5-0.672-1.5-1.501c0-0.828,0.672-1.5,1.5-1.5h6
			c0.828,0,1.5,0.672,1.5,1.5C31.51,56.346,30.838,57.018,30.01,57.018z M18.01,57.018h-6c-0.828,0-1.5-0.672-1.5-1.501
			c0-0.828,0.672-1.5,1.5-1.5h6c0.828,0,1.5,0.672,1.5,1.5C19.51,56.346,18.838,57.018,18.01,57.018z M6.01,57.018h-1.5
			c-0.828,0-1.5-0.672-1.5-1.501v-4.501c0-0.829,0.672-1.501,1.5-1.501s1.5,0.672,1.5,1.501v3.001c0.828,0,1.5,0.672,1.5,1.5
			C7.51,56.346,6.838,57.018,6.01,57.018z M4.51,46.514c-0.828,0-1.5-0.672-1.5-1.5v-6.002c0-0.828,0.672-1.5,1.5-1.5
			s1.5,0.672,1.5,1.5v6.002C6.01,45.842,5.338,46.514,4.51,46.514z"/>
		<path id="path-6_22_" style="fill:#E56A77;" d="M64.01,58.018c0,3.314-2.687,6.002-6,6.002h-10c-3.314,0-6-2.688-6-6.002V37.011
			c0-3.314,2.686-6.001,6-6.001h10c3.313,0,6,2.687,6,6.001V58.018z"/>
		<path id="path-7_21_" d="M53.51,63.019h-10c-4.136,0-7.5-3.365-7.5-7.502V34.511c0-4.137,3.364-7.503,7.5-7.503h10
			c4.136,0,7.5,3.366,7.5,7.503v21.006C61.01,59.654,57.646,63.019,53.51,63.019z M43.51,30.009c-2.482,0-4.5,2.02-4.5,4.502v21.006
			c0,2.482,2.018,4.502,4.5,4.502h10c2.481,0,4.5-2.02,4.5-4.502V34.511c0-2.482-2.019-4.502-4.5-4.502H43.51z"/>
		<path id="path-8_20_" d="M59.51,55.017h-22c-0.828,0-1.5-0.672-1.5-1.5V34.511c0-0.829,0.672-1.501,1.5-1.501h22
			c0.828,0,1.5,0.672,1.5,1.501v19.006C61.01,54.345,60.338,55.017,59.51,55.017z M39.01,52.016h19V36.011h-19V52.016z"/>
		<path id="path-9_11_" d="M50.01,58.018h-3c-0.553,0-1-0.447-1-1s0.447-1.001,1-1.001h3c0.553,0,1,0.448,1,1.001
			S50.563,58.018,50.01,58.018z"/>
	</g>
</g>
<g>
</g>
<g>
</g>
<g>
</g>
<g>
</g>
<g>
</g>
<g>
</g>
<g>
</g>
<g>
</g>
<g>
</g>
<g>
</g>
<g>
</g>
<g>
</g>
<g>
</g>
<g>
</g>
<g>
</g>
</svg>
