<?xml version="1.0" encoding="iso-8859-1"?>
<!-- Generator: Adobe Illustrator 19.1.0, SVG Export Plug-In . SVG Version: 6.00 Build 0)  -->
<svg version="1.1" id="Capa_1" xmlns="http://www.w3.org/2000/svg" xmlns:xlink="http://www.w3.org/1999/xlink" x="0px" y="0px"
	 viewBox="0 0 65.02 65.02" style="enable-background:new 0 0 65.02 65.02;" xml:space="preserve">
<g>
	<g id="group-3svg">
		<path id="path-1_21_" style="fill:#FF917B;" d="M55.51,57.017c0,4.42-3.582,8.003-8,8.003h-24c-4.418,0-8-3.583-8-8.003V13.004
			c0-4.42,3.582-8.003,8-8.003h24c4.418,0,8,3.583,8,8.003V57.017z"/>
		<path id="path-2_21_" style="fill:#E56A77;" d="M15.51,56.017h40V13.004h-40V56.017z"/>
		<path id="path-3_20_" d="M43.01,63.019h-24c-5.238,0-9.5-4.263-9.5-9.503V9.503C9.51,4.263,13.772,0,19.01,0h24
			c5.238,0,9.5,4.263,9.5,9.503v44.013C52.51,58.756,48.248,63.019,43.01,63.019z M19.01,3.001c-3.584,0-6.5,2.917-6.5,6.502v44.013
			c0,3.585,2.916,6.502,6.5,6.502h24c3.584,0,6.5-2.917,6.5-6.502V9.503c0-3.585-2.916-6.502-6.5-6.502H19.01z"/>
		<path id="path-4_20_" d="M51.01,54.016h-40c-0.829,0-1.5-0.672-1.5-1.5V9.503c0-0.829,0.671-1.501,1.5-1.501h40
			c0.829,0,1.5,0.672,1.5,1.501v43.013C52.51,53.344,51.839,54.016,51.01,54.016z M12.51,51.015h37V11.003h-37V51.015z"/>
		<path id="path-5_20_" d="M33.879,5.714c0,1.105-0.896,2.001-2,2.001c-1.105,0-2-0.896-2-2.001s0.895-2.001,2-2.001
			C32.983,3.713,33.879,4.609,33.879,5.714z"/>
		<path id="path-6_15_" d="M34.51,58.018h-5c-0.829,0-1.5-0.672-1.5-1.501c0-0.828,0.671-1.5,1.5-1.5h5c0.829,0,1.5,0.672,1.5,1.5
			C36.01,57.346,35.339,58.018,34.51,58.018z"/>
		<path id="path-7_14_" d="M34.435,39.012c-0.001,0-0.002,0-0.002,0c-0.829,0-1.499-0.889-1.498-1.717
			c0.01-7.77-4.855-8.341-5.062-8.358c-0.826-0.063-1.444-0.838-1.381-1.664c0.064-0.827,0.79-1.485,1.611-1.407
			c0.079,0.006,7.845,0.927,7.832,11.446C35.934,38.14,35.262,39.012,34.435,39.012z"/>
		<path id="path-8_13_" d="M41.297,38.011c0,0-0.001,0-0.002,0c-0.828,0-1.499-0.729-1.498-1.558
			c0.018-13.303-8.874-14.17-8.964-14.178c-0.826-0.064-1.444-0.798-1.38-1.625c0.064-0.827,0.79-1.467,1.611-1.387
			c0.117,0.008,11.754,1.143,11.733,17.198C42.796,37.289,42.125,38.011,41.297,38.011z"/>
	</g>
</g>
<g>
</g>
<g>
</g>
<g>
</g>
<g>
</g>
<g>
</g>
<g>
</g>
<g>
</g>
<g>
</g>
<g>
</g>
<g>
</g>
<g>
</g>
<g>
</g>
<g>
</g>
<g>
</g>
<g>
</g>
</svg>
