<?xml version="1.0" encoding="iso-8859-1"?>
<!-- Generator: Adobe Illustrator 19.1.0, SVG Export Plug-In . SVG Version: 6.00 Build 0)  -->
<svg version="1.1" id="Capa_1" xmlns="http://www.w3.org/2000/svg" xmlns:xlink="http://www.w3.org/1999/xlink" x="0px" y="0px"
	 viewBox="0 0 65.02 65.02" style="enable-background:new 0 0 65.02 65.02;" xml:space="preserve">
<g>
	<g id="group-7svg">
		<path id="path-1_27_" style="fill:#FF917B;" d="M63.51,47.015c0,4.419-3.582,8.002-8,8.002h-18c-4.418,0-8-3.583-8-8.002V12.004
			c0-4.42,3.582-8.003,8-8.003h18c4.418,0,8,3.583,8,8.003V47.015z"/>
		<path id="path-2_27_" style="fill:#E56A77;" d="M29.51,47.015h34V12.004h-34V47.015z"/>
		<path id="path-3_26_" d="M51.01,54.017h-18c-5.238,0-9.5-4.263-9.5-9.503V9.503c0-5.24,4.262-9.503,9.5-9.503h18
			c5.238,0,9.5,4.263,9.5,9.503v35.011C60.51,49.754,56.248,54.017,51.01,54.017z M33.01,3.001c-3.584,0-6.5,2.917-6.5,6.502v35.011
			c0,3.585,2.916,6.502,6.5,6.502h18c3.584,0,6.5-2.917,6.5-6.502V9.503c0-3.585-2.916-6.502-6.5-6.502H33.01z"/>
		<path id="path-4_26_" d="M59.01,46.014h-34c-0.828,0-1.5-0.672-1.5-1.5V9.503c0-0.828,0.672-1.5,1.5-1.5h34
			c0.828,0,1.5,0.672,1.5,1.5v35.011C60.51,45.342,59.838,46.014,59.01,46.014z M26.51,43.013h31V11.004h-31V43.013z"/>
		<path id="path-5_26_" d="M44.468,6.058c0,1.105-0.896,2.001-2,2.001c-1.105,0-2-0.896-2-2.001s0.895-2,2-2
			C43.572,4.058,44.468,4.953,44.468,6.058z"/>
		<path id="path-6_21_" d="M44.51,50.015h-5c-0.828,0-1.5-0.672-1.5-1.5c0-0.828,0.672-1.5,1.5-1.5h5c0.828,0,1.5,0.672,1.5,1.5
			C46.01,49.343,45.338,50.015,44.51,50.015z"/>
		<path id="path-7_20_" style="fill:#E56A77;" d="M42.51,65.02h-2c-0.828,0-1.5-0.672-1.5-1.5c0-0.829,0.672-1.501,1.5-1.501h2
			c0.828,0,1.5,0.672,1.5,1.501C44.01,64.348,43.338,65.02,42.51,65.02z M34.51,65.02h-6c-0.828,0-1.5-0.672-1.5-1.5
			c0-0.829,0.672-1.501,1.5-1.501h6c0.828,0,1.5,0.672,1.5,1.501C36.01,64.348,35.338,65.02,34.51,65.02z M22.51,65.02h-6
			c-0.828,0-1.5-0.672-1.5-1.5c0-0.829,0.672-1.501,1.5-1.501h6c0.828,0,1.5,0.672,1.5,1.501C24.01,64.348,23.338,65.02,22.51,65.02
			z M10.51,65.02h-6c-0.828,0-1.5-0.672-1.5-1.5c0-0.829,0.672-1.501,1.5-1.501h6c0.828,0,1.5,0.672,1.5,1.501
			C12.01,64.348,11.338,65.02,10.51,65.02z M3.01,60.519c-0.828,0-1.5-0.672-1.5-1.501v-6.002c0-0.828,0.672-1.5,1.5-1.5
			s1.5,0.672,1.5,1.5v6.002C4.51,59.847,3.838,60.519,3.01,60.519z M3.01,48.515c-0.828,0-1.5-0.672-1.5-1.5v-6.002
			c0-0.829,0.672-1.501,1.5-1.501s1.5,0.672,1.5,1.501v6.002C4.51,47.843,3.838,48.515,3.01,48.515z M3.01,36.511
			c-0.828,0-1.5-0.672-1.5-1.5V33.51c0-0.828,0.672-1.5,1.5-1.5h4.5c0.828,0,1.5,0.672,1.5,1.5c0,0.829-0.672,1.501-1.5,1.501h-3
			C4.51,35.839,3.838,36.511,3.01,36.511z M19.51,35.011h-6c-0.828,0-1.5-0.672-1.5-1.501c0-0.828,0.672-1.5,1.5-1.5h6
			c0.828,0,1.5,0.672,1.5,1.5C21.01,34.339,20.338,35.011,19.51,35.011z"/>
		<path id="path-8_19_" d="M33.374,32.136c-0.384,0-0.767-0.147-1.06-0.44c-0.586-0.586-0.586-1.535,0-2.121l14.533-14.538
			c0.586-0.586,1.535-0.586,2.121,0s0.586,1.536,0,2.122L34.435,31.696C34.142,31.989,33.758,32.136,33.374,32.136z"/>
		<path id="path-9_10_" d="M41.382,31.246c-0.384,0-0.768-0.146-1.06-0.44c-0.586-0.586-0.586-1.535,0-2.121l4.211-4.213
			c0.586-0.587,1.536-0.587,2.122,0c0.585,0.586,0.585,1.535,0,2.121l-4.212,4.213C42.15,31.1,41.766,31.246,41.382,31.246z"/>
	</g>
</g>
<g>
</g>
<g>
</g>
<g>
</g>
<g>
</g>
<g>
</g>
<g>
</g>
<g>
</g>
<g>
</g>
<g>
</g>
<g>
</g>
<g>
</g>
<g>
</g>
<g>
</g>
<g>
</g>
<g>
</g>
</svg>
