<?xml version="1.0" encoding="iso-8859-1"?>
<!-- Generator: Adobe Illustrator 19.1.0, SVG Export Plug-In . SVG Version: 6.00 Build 0)  -->
<svg version="1.1" id="Capa_1" xmlns="http://www.w3.org/2000/svg" xmlns:xlink="http://www.w3.org/1999/xlink" x="0px" y="0px"
	 viewBox="0 0 65.02 65.02" style="enable-background:new 0 0 65.02 65.02;" xml:space="preserve">
<g>
	<g id="group-6svg">
		<path id="path-1_26_" style="fill:#FF917B;" d="M55.51,57.017c0,4.42-3.582,8.003-8,8.003h-24c-4.419,0-8-3.583-8-8.003V13.004
			c0-4.42,3.581-8.003,8-8.003h24c4.418,0,8,3.583,8,8.003V57.017z"/>
		<path id="path-2_26_" style="fill:#E56A77;" d="M15.51,56.017h40V13.004h-40V56.017z"/>
		<path id="path-3_25_" d="M43.01,63.019h-24c-5.238,0-9.5-4.263-9.5-9.503V9.503C9.51,4.263,13.772,0,19.01,0h24
			c5.238,0,9.5,4.263,9.5,9.503v44.013C52.51,58.756,48.248,63.019,43.01,63.019z M19.01,3.001c-3.584,0-6.5,2.917-6.5,6.502v44.013
			c0,3.585,2.916,6.502,6.5,6.502h24c3.584,0,6.5-2.917,6.5-6.502V9.503c0-3.585-2.916-6.502-6.5-6.502H19.01z"/>
		<path id="path-4_25_" d="M51.01,54.016h-40c-0.829,0-1.5-0.672-1.5-1.5V9.503c0-0.829,0.671-1.501,1.5-1.501h40
			c0.829,0,1.5,0.672,1.5,1.501v43.013C52.51,53.344,51.839,54.016,51.01,54.016z M12.51,51.015h37V11.003h-37V51.015z"/>
		<path id="path-5_25_" d="M34.284,5.714c0,1.105-0.896,2.001-2,2.001c-1.105,0-2-0.896-2-2.001s0.895-2.001,2-2.001
			C33.388,3.713,34.284,4.609,34.284,5.714z"/>
		<path id="path-6_20_" d="M34.51,58.018h-5c-0.829,0-1.5-0.672-1.5-1.501c0-0.828,0.671-1.5,1.5-1.5h5c0.829,0,1.5,0.672,1.5,1.5
			C36.01,57.346,35.339,58.018,34.51,58.018z"/>
		<path id="path-7_19_" style="fill:#FFFFFF;" d="M49.654,45.111c0,2.217-1.796,4.014-4.012,4.014s-4.012-1.797-4.012-4.014
			c0-2.216,1.796-4.013,4.012-4.013S49.654,42.895,49.654,45.111z"/>
		<path id="path-8_18_" style="fill:#FFFFFF;" d="M24.107,45.111c0,2.217-1.797,4.014-4.013,4.014s-4.012-1.797-4.012-4.014
			c0-2.216,1.796-4.013,4.012-4.013S24.107,42.895,24.107,45.111z"/>
		<path id="path-9_9_" d="M43.642,50.126c-2.764,0-5.012-2.25-5.012-5.015c0-2.764,2.248-5.014,5.012-5.014s5.013,2.25,5.013,5.014
			C48.655,47.876,46.406,50.126,43.642,50.126z M43.642,42.098c-1.661,0-3.012,1.352-3.012,3.013c0,1.662,1.351,3.014,3.012,3.014
			s3.013-1.352,3.013-3.014C46.655,43.45,45.303,42.098,43.642,42.098z"/>
		<path id="path-10_7_" d="M18.094,50.126c-2.764,0-5.012-2.25-5.012-5.015c0-2.764,2.248-5.014,5.012-5.014
			c2.765,0,5.013,2.25,5.013,5.014C23.107,47.876,20.859,50.126,18.094,50.126z M18.094,42.098c-1.661,0-3.012,1.352-3.012,3.013
			c0,1.662,1.351,3.014,3.012,3.014c1.662,0,3.013-1.352,3.013-3.014C21.107,43.45,19.756,42.098,18.094,42.098z"/>
		<path id="path-11_5_" d="M41.094,49.186c-0.256,0-0.512-0.098-0.707-0.293c-0.391-0.391-0.391-1.024,0-1.415l5.623-5.625
			c0.391-0.391,1.024-0.391,1.414,0c0.391,0.39,0.391,1.023,0,1.414l-5.623,5.626C41.606,49.088,41.35,49.186,41.094,49.186z"/>
		<path id="path-12_5_" d="M26.51,47.014h-2c-0.552,0-1-0.447-1-1c0-0.553,0.448-1,1-1h2c0.552,0,1,0.447,1,1
			C27.51,46.567,27.062,47.014,26.51,47.014z"/>
		<path id="path-13_2_" d="M32.51,47.014h-3c-0.552,0-1-0.447-1-1c0-0.553,0.448-1,1-1h3c0.552,0,1,0.447,1,1
			C33.51,46.567,33.062,47.014,32.51,47.014z"/>
		<path id="path-14_1_" d="M38.51,47.014h-2c-0.552,0-1-0.447-1-1c0-0.553,0.448-1,1-1h2c0.552,0,1,0.447,1,1
			C39.51,46.567,39.062,47.014,38.51,47.014z"/>
	</g>
</g>
<g>
</g>
<g>
</g>
<g>
</g>
<g>
</g>
<g>
</g>
<g>
</g>
<g>
</g>
<g>
</g>
<g>
</g>
<g>
</g>
<g>
</g>
<g>
</g>
<g>
</g>
<g>
</g>
<g>
</g>
</svg>
