<?xml version="1.0" encoding="iso-8859-1"?>
<!-- Generator: Adobe Illustrator 19.1.0, SVG Export Plug-In . SVG Version: 6.00 Build 0)  -->
<svg version="1.1" id="Capa_1" xmlns="http://www.w3.org/2000/svg" xmlns:xlink="http://www.w3.org/1999/xlink" x="0px" y="0px"
	 viewBox="0 0 67 67" style="enable-background:new 0 0 67 67;" xml:space="preserve">
<g>
	<g id="group-10svg">
		<path id="path-1" style="fill:#8B71B5;" d="M67,42.003c0,4.42-3.582,8.002-8,8.002H39c-4.418,0-8-3.582-8-8.002V15.995
			c0-4.42,3.582-8.003,8-8.003h20c4.418,0,8,3.583,8,8.003V42.003z"/>
		<path id="path-2" style="fill:#53ECF4;" d="M31,42.003h36V15.995H31V42.003z"/>
		<path id="path-3" d="M54.5,49.005h-20c-5.238,0-9.5-4.263-9.5-9.503V13.494c0-5.24,4.262-9.503,9.5-9.503h20
			c5.238,0,9.5,4.263,9.5,9.503v26.008C64,44.742,59.738,49.005,54.5,49.005z M34.5,6.992c-3.584,0-6.5,2.917-6.5,6.502v26.008
			c0,3.585,2.916,6.502,6.5,6.502h20c3.584,0,6.5-2.917,6.5-6.502V13.494c0-3.585-2.916-6.502-6.5-6.502H34.5z"/>
		<path id="path-4" d="M62.5,41.002h-36c-0.828,0-1.5-0.672-1.5-1.5V13.494c0-0.828,0.672-1.5,1.5-1.5h36c0.828,0,1.5,0.672,1.5,1.5
			v26.008C64,40.33,63.328,41.002,62.5,41.002z M28,38.001h33V14.994H28V38.001z"/>
		<path id="path-5" d="M47,45.004h-4c-0.828,0-1.5-0.672-1.5-1.501c0-0.828,0.672-1.5,1.5-1.5h4c0.828,0,1.5,0.672,1.5,1.5
			C48.5,44.332,47.828,45.004,47,45.004z"/>
		<path id="path-6" d="M36.765,35.595c-0.384,0-0.768-0.147-1.061-0.44c-0.586-0.586-0.586-1.536,0-2.122l16.216-16.22
			c0.586-0.586,1.535-0.586,2.121,0s0.586,1.536,0,2.122l-16.216,16.22C37.532,35.448,37.148,35.595,36.765,35.595z"/>
		<path id="path-7" d="M45.7,34.602c-0.384,0-0.767-0.147-1.06-0.44c-0.586-0.586-0.586-1.535,0-2.121l4.698-4.701
			c0.586-0.586,1.535-0.586,2.121,0c0.586,0.586,0.586,1.536,0,2.122l-4.698,4.7C46.468,34.455,46.084,34.602,45.7,34.602z"/>
		<path id="path-8" style="fill:#8B71B5;" d="M35,63.009h-6c-0.828,0-1.5-0.672-1.5-1.5c0-0.829,0.672-1.501,1.5-1.501h6
			c0.828,0,1.5,0.672,1.5,1.501C36.5,62.337,35.828,63.009,35,63.009z M23,63.009h-6c-0.828,0-1.5-0.672-1.5-1.5
			c0-0.829,0.672-1.501,1.5-1.501h6c0.828,0,1.5,0.672,1.5,1.501C24.5,62.337,23.828,63.009,23,63.009z M11,63.009H5
			c-0.828,0-1.5-0.672-1.5-1.5c0-0.829,0.672-1.501,1.5-1.501h6c0.828,0,1.5,0.672,1.5,1.501C12.5,62.337,11.828,63.009,11,63.009z
			 M1.5,60.508c-0.828,0-1.5-0.672-1.5-1.5v-6.002c0-0.828,0.672-1.5,1.5-1.5s1.5,0.672,1.5,1.5v6.002
			C3,59.836,2.328,60.508,1.5,60.508z M1.5,48.505c-0.828,0-1.5-0.672-1.5-1.501v-6.002c0-0.828,0.672-1.5,1.5-1.5
			s1.5,0.672,1.5,1.5v6.002C3,47.833,2.328,48.505,1.5,48.505z M1.5,36.501c-0.828,0-1.5-0.672-1.5-1.5V32.5
			c0-0.829,0.672-1.501,1.5-1.501H5c0.828,0,1.5,0.672,1.5,1.501C6.5,33.328,5.828,34,5,34H3v1.001
			C3,35.829,2.328,36.501,1.5,36.501z M17,34h-6c-0.828,0-1.5-0.672-1.5-1.5c0-0.829,0.672-1.501,1.5-1.501h6
			c0.828,0,1.5,0.672,1.5,1.501C18.5,33.328,17.828,34,17,34z"/>
	</g>
</g>
<g>
</g>
<g>
</g>
<g>
</g>
<g>
</g>
<g>
</g>
<g>
</g>
<g>
</g>
<g>
</g>
<g>
</g>
<g>
</g>
<g>
</g>
<g>
</g>
<g>
</g>
<g>
</g>
<g>
</g>
</svg>
