<?xml version="1.0" encoding="iso-8859-1"?>
<!-- Generator: Adobe Illustrator 19.1.0, SVG Export Plug-In . SVG Version: 6.00 Build 0)  -->
<svg version="1.1" id="Capa_1" xmlns="http://www.w3.org/2000/svg" xmlns:xlink="http://www.w3.org/1999/xlink" x="0px" y="0px"
	 viewBox="0 0 66 66" style="enable-background:new 0 0 66 66;" xml:space="preserve">
<g>
	<g id="group-30svg">
		<path id="path-1_22_" style="fill:#FF917B;" d="M66,53.507c0,4.419-3.582,8.002-8,8.002H14c-4.418,0-8-3.583-8-8.002V17.495
			c0-4.419,3.582-8.002,8-8.002h44c4.418,0,8,3.583,8,8.002V53.507z"/>
		<path id="path-2_22_" style="fill:#8B71B5;" d="M24,53.507c0,4.419-3.582,8.002-8,8.002h-2c-4.418,0-8-3.583-8-8.002V17.495
			c0-4.419,3.582-8.002,8-8.002h2c4.418,0,8,3.583,8,8.002V53.507z"/>
		<path id="path-3_21_" style="fill:#53ECF4;" d="M36,27.499h21V15.495H36V27.499z"/>
		<path id="path-4_21_" style="fill:#8B71B5;" d="M36,54.507h21V33.5H36V54.507z"/>
		<path id="path-5_21_" d="M53.5,59.508h-44c-5.238,0-9.5-4.263-9.5-9.503V13.994c0-5.239,4.262-9.503,9.5-9.503h44
			c5.238,0,9.5,4.264,9.5,9.503v36.011C63,55.245,58.738,59.508,53.5,59.508z M9.5,7.492c-3.584,0-6.5,2.917-6.5,6.502v36.011
			c0,3.586,2.916,6.502,6.5,6.502h44c3.584,0,6.5-2.916,6.5-6.502V13.994c0-3.585-2.916-6.502-6.5-6.502H9.5z"/>
		<path id="path-6_16_" d="M11.5,59.508h-2c-5.238,0-9.5-4.263-9.5-9.503V13.994c0-5.239,4.262-9.503,9.5-9.503h2
			c5.238,0,9.5,4.264,9.5,9.503v36.011C21,55.245,16.738,59.508,11.5,59.508z M9.5,7.492c-3.584,0-6.5,2.917-6.5,6.502v36.011
			c0,3.586,2.916,6.502,6.5,6.502h2c3.584,0,6.5-2.916,6.5-6.502V13.994c0-3.585-2.916-6.502-6.5-6.502H9.5z"/>
		<path id="path-7_15_" d="M52.5,25.498h-21c-0.828,0-1.5-0.672-1.5-1.501V11.994c0-0.829,0.672-1.501,1.5-1.501h21
			c0.828,0,1.5,0.672,1.5,1.501v12.003C54,24.826,53.328,25.498,52.5,25.498z M33,22.497h18v-9.003H33V22.497z"/>
		<path id="path-8_14_" d="M52.5,52.506h-21c-0.828,0-1.5-0.672-1.5-1.5V29.999c0-0.828,0.672-1.5,1.5-1.5h21
			c0.828,0,1.5,0.672,1.5,1.5v21.007C54,51.834,53.328,52.506,52.5,52.506z M33,49.505h18V31.5H33V49.505z"/>
		<path id="path-9_6_" d="M45.5,51.006c-0.828,0-1.5-0.672-1.5-1.501V30.499c0-0.828,0.672-1.5,1.5-1.5s1.5,0.672,1.5,1.5v19.006
			C47,50.334,46.328,51.006,45.5,51.006z"/>
		<path id="path-10_4_" d="M38.5,51.006c-0.828,0-1.5-0.672-1.5-1.501V30.499c0-0.828,0.672-1.5,1.5-1.5s1.5,0.672,1.5,1.5v19.006
			C40,50.334,39.328,51.006,38.5,51.006z"/>
		<path id="path-11_3_" d="M52,38.502H32c-0.828,0-1.5-0.672-1.5-1.501c0-0.828,0.672-1.5,1.5-1.5h20c0.828,0,1.5,0.672,1.5,1.5
			C53.5,37.83,52.828,38.502,52,38.502z"/>
		<path id="path-12_3_" d="M52,45.504H32c-0.828,0-1.5-0.672-1.5-1.5c0-0.829,0.672-1.501,1.5-1.501h20c0.828,0,1.5,0.672,1.5,1.501
			C53.5,44.832,52.828,45.504,52,45.504z"/>
	</g>
</g>
<g>
</g>
<g>
</g>
<g>
</g>
<g>
</g>
<g>
</g>
<g>
</g>
<g>
</g>
<g>
</g>
<g>
</g>
<g>
</g>
<g>
</g>
<g>
</g>
<g>
</g>
<g>
</g>
<g>
</g>
</svg>
