<?xml version="1.0" encoding="iso-8859-1"?>
<!-- Generator: Adobe Illustrator 19.1.0, SVG Export Plug-In . SVG Version: 6.00 Build 0)  -->
<svg version="1.1" id="Capa_1" xmlns="http://www.w3.org/2000/svg" xmlns:xlink="http://www.w3.org/1999/xlink" x="0px" y="0px"
	 viewBox="0 0 63.019 63.019" style="enable-background:new 0 0 63.019 63.019;" xml:space="preserve">
<g>
	<g id="group-31svg">
		<path id="path-1_23_" style="fill:#99746A;" d="M55.76,47.014c0,4.42-3.582,8.002-8,8.002h-25c-4.418,0-8-3.582-8-8.002V34.01
			c0-4.42,3.582-8.002,8-8.002h25c4.418,0,8,3.582,8,8.002V47.014z"/>
		<path id="path-2_23_" style="fill:#EDC951;" d="M48.76,26.008h-29V12.739c0-4.42,4.381-7.738,8.799-7.738h13.6
			c4.359,0,6.601,3.27,6.601,7.63V26.008z"/>
		<path id="path-3_22_" d="M41.26,53.016h-25c-5.238,0-9.5-4.263-9.5-9.503V30.509c0-5.24,4.262-9.503,9.5-9.503h25
			c5.238,0,9.5,4.263,9.5,9.503v13.004C50.76,48.753,46.498,53.016,41.26,53.016z M16.26,24.007c-3.584,0-6.5,2.917-6.5,6.502
			v13.004c0,3.585,2.916,6.502,6.5,6.502h25c3.584,0,6.5-2.917,6.5-6.502V30.509c0-3.585-2.916-6.502-6.5-6.502H16.26z"/>
		<path id="path-4_22_" d="M42.26,24.007h-29c-0.828,0-1.5-0.672-1.5-1.501V9.739C11.76,4.551,16.339,0,21.559,0h13.6
			c4.904,0,8.601,4.14,8.601,9.63v12.876C43.76,23.335,43.088,24.007,42.26,24.007z M14.76,21.006h26V9.63
			c0-3.294-1.924-6.63-5.601-6.63h-13.6c-3.622,0-6.799,3.149-6.799,6.739V21.006z"/>
		<path id="path-5_22_" d="M31.26,22.506c-0.828,0-1.5-0.672-1.5-1.5v-2.001h-3.5c-0.828,0-1.5-0.672-1.5-1.5v-5.002
			c0-0.828,0.672-1.5,1.5-1.5h3.5V9.002h-2.5c-0.828,0-1.5-0.672-1.5-1.5V2c0-0.828,0.672-1.5,1.5-1.5s1.5,0.672,1.5,1.5v4.001h2.5
			c0.828,0,1.5,0.672,1.5,1.501v5.001c0,0.829-0.672,1.501-1.5,1.501h-3.5v2h3.5c0.828,0,1.5,0.673,1.5,1.501v3.501
			C32.76,21.834,32.088,22.506,31.26,22.506z"/>
		<path id="path-6_17_" d="M21.76,18.005h-4V9.002h4V18.005z"/>
		<path id="path-7_16_" d="M38.76,18.005h-4V9.002h4V18.005z"/>
		<path id="path-8_15_" d="M54.76,63.019H34.915c-3.938,0-8.155-2.961-8.155-7.369v-3.634c0-0.829,0.672-1.501,1.5-1.501
			s1.5,0.672,1.5,1.501v3.634c0,2.574,2.717,4.368,5.155,4.368H54.76c0.828,0,1.5,0.672,1.5,1.5
			C56.26,62.347,55.588,63.019,54.76,63.019z"/>
	</g>
</g>
<g>
</g>
<g>
</g>
<g>
</g>
<g>
</g>
<g>
</g>
<g>
</g>
<g>
</g>
<g>
</g>
<g>
</g>
<g>
</g>
<g>
</g>
<g>
</g>
<g>
</g>
<g>
</g>
<g>
</g>
</svg>
