<?xml version="1.0" encoding="iso-8859-1"?>
<!-- Generator: Adobe Illustrator 19.1.0, SVG Export Plug-In . SVG Version: 6.00 Build 0)  -->
<svg version="1.1" id="Capa_1" xmlns="http://www.w3.org/2000/svg" xmlns:xlink="http://www.w3.org/1999/xlink" x="0px" y="0px"
	 viewBox="0 0 66.02 66.02" style="enable-background:new 0 0 66.02 66.02;" xml:space="preserve">
<g>
	<g id="group-27svg">
		<path id="path-1_18_" style="fill:#FF917B;" d="M51.01,26.008c0-2.21-1.791-4.001-4-4.001h-20c-2.209,0-4,1.791-4,4.001v36.011
			c0,2.21,1.791,4.001,4,4.001h20c2.209,0,4-1.791,4-4.001V26.008z"/>
		<path id="path-2_18_" style="fill:#8B71B5;" d="M45.01,8.002c0-1.104-0.896-2-2-2h-12c-1.104,0-2,0.896-2,2v12.004
			c0,1.105,0.896,2.001,2,2.001h12c1.104,0,2-0.896,2-2.001V8.002z"/>
		<path id="path-3_17_" d="M40.51,63.019h-20c-3.032,0-5.5-2.468-5.5-5.501V21.507c0-3.034,2.468-5.502,5.5-5.502h20
			c3.032,0,5.5,2.468,5.5,5.502v36.011C46.01,60.551,43.542,63.019,40.51,63.019z M20.51,19.006c-1.379,0-2.5,1.121-2.5,2.501
			v36.011c0,1.379,1.121,2.5,2.5,2.5h20c1.379,0,2.5-1.121,2.5-2.5V21.507c0-1.38-1.121-2.501-2.5-2.501H20.51z"/>
		<path id="path-4_17_" d="M37.51,19.006h-12c-1.93,0-3.5-1.571-3.5-3.501V3.501c0-1.93,1.57-3.501,3.5-3.501h12
			c1.93,0,3.5,1.571,3.5,3.501v12.004C41.01,17.435,39.44,19.006,37.51,19.006z M25.51,3.001c-0.275,0-0.5,0.225-0.5,0.5v12.004
			c0,0.275,0.225,0.5,0.5,0.5h12c0.275,0,0.5-0.225,0.5-0.5V3.501c0-0.275-0.225-0.5-0.5-0.5H25.51z"/>
		<path id="path-5_17_" d="M33.51,14.504c-0.828,0-1.5-0.672-1.5-1.5V7.002c0-0.828,0.672-1.5,1.5-1.5s1.5,0.672,1.5,1.5v6.002
			C35.01,13.832,34.338,14.504,33.51,14.504z"/>
		<path id="path-6_12_" d="M28.51,14.504c-0.828,0-1.5-0.672-1.5-1.5V7.002c0-0.828,0.672-1.5,1.5-1.5c0.828,0,1.5,0.672,1.5,1.5
			v6.002C30.01,13.832,29.338,14.504,28.51,14.504z"/>
	</g>
</g>
<g>
</g>
<g>
</g>
<g>
</g>
<g>
</g>
<g>
</g>
<g>
</g>
<g>
</g>
<g>
</g>
<g>
</g>
<g>
</g>
<g>
</g>
<g>
</g>
<g>
</g>
<g>
</g>
<g>
</g>
</svg>
