<?xml version="1.0" encoding="iso-8859-1"?>
<!-- Generator: Adobe Illustrator 19.1.0, SVG Export Plug-In . SVG Version: 6.00 Build 0)  -->
<svg version="1.1" id="Capa_1" xmlns="http://www.w3.org/2000/svg" xmlns:xlink="http://www.w3.org/1999/xlink" x="0px" y="0px"
	 viewBox="0 0 66 66" style="enable-background:new 0 0 66 66;" xml:space="preserve">
<g>
	<g id="group-18svg">
		<path id="path-1_8_" style="fill:#99746A;" d="M48,50.46c0,4.42-3.582,8.003-8,8.003H14c-4.418,0-8-3.583-8-8.003V34.455
			c0-4.42,3.582-8.002,8-8.002h26c4.418,0,8,3.582,8,8.002V50.46z"/>
		<path id="path-2_8_" style="fill:#99746A;" d="M49.461,36.487l13.454-8.772C64.395,26.774,66,27.836,66,29.59v27.533
			c0,1.741-1.579,2.806-3.06,1.892l-14.055-8.782L49.461,36.487z"/>
		<path id="path-3_8_" d="M35.5,56.462h-26c-5.238,0-9.5-4.263-9.5-9.503V30.954c0-5.24,4.262-9.503,9.5-9.503h26
			c5.238,0,9.5,4.263,9.5,9.503v16.005C45,52.199,40.738,56.462,35.5,56.462z M9.5,24.452c-3.584,0-6.5,2.917-6.5,6.502v16.005
			c0,3.585,2.916,6.502,6.5,6.502h26c3.584,0,6.5-2.917,6.5-6.502V30.954c0-3.585-2.916-6.502-6.5-6.502H9.5z"/>
		<path id="path-4_8_" d="M59.341,57.849c-0.676,0-1.347-0.193-1.939-0.559L43.22,48.507c-0.456-0.282-0.727-0.788-0.709-1.324
			l0.451-13.746c0.015-0.494,0.274-0.948,0.69-1.215l13.704-8.772c0.606-0.385,1.29-0.587,1.983-0.587
			c2.018,0,3.661,1.671,3.661,3.726v27.533C63,56.178,61.358,57.849,59.341,57.849z M45.537,46.413l13.443,8.325
			c0.43,0.267,1.019,0.008,1.02-0.616V26.589c-0.001-0.626-0.588-0.89-1.029-0.609l-13.036,8.344L45.537,46.413z"/>
		<path id="path-5_8_" style="fill:#E56A77;" d="M40.68,20.083c0,3.091-2.505,5.597-5.596,5.597c-3.09,0-5.595-2.506-5.595-5.597
			s2.505-5.597,5.595-5.597C38.175,14.486,40.68,16.992,40.68,20.083z"/>
		<path id="path-6_7_" style="fill:#E56A77;" d="M29.568,18.416c0,4.012-3.251,7.264-7.261,7.264c-4.011,0-7.263-3.252-7.263-7.264
			s3.252-7.264,7.263-7.264C26.317,11.152,29.568,14.404,29.568,18.416z"/>
		<path id="path-7_7_" d="M30.084,24.18c-3.912,0-7.095-3.184-7.095-7.097c0-3.914,3.183-7.098,7.095-7.098s7.096,3.184,7.096,7.098
			C37.18,20.996,33.996,24.18,30.084,24.18z M30.084,12.986c-2.258,0-4.095,1.837-4.095,4.097c0,2.258,1.837,4.096,4.095,4.096
			c2.259,0,4.096-1.838,4.096-4.096C34.18,14.823,32.343,12.986,30.084,12.986z"/>
		<path id="path-8_6_" d="M17.307,24.18c-4.832,0-8.763-3.932-8.763-8.765c0-4.832,3.931-8.764,8.763-8.764
			c4.831,0,8.761,3.932,8.761,8.764C26.068,20.248,22.138,24.18,17.307,24.18z M17.307,9.652c-3.178,0-5.763,2.585-5.763,5.763
			s2.585,5.764,5.763,5.764c3.176,0,5.761-2.586,5.761-5.764S20.483,9.652,17.307,9.652z"/>
	</g>
</g>
<g>
</g>
<g>
</g>
<g>
</g>
<g>
</g>
<g>
</g>
<g>
</g>
<g>
</g>
<g>
</g>
<g>
</g>
<g>
</g>
<g>
</g>
<g>
</g>
<g>
</g>
<g>
</g>
<g>
</g>
</svg>
