<?xml version="1.0" encoding="iso-8859-1"?>
<!-- Generator: Adobe Illustrator 19.1.0, SVG Export Plug-In . SVG Version: 6.00 Build 0)  -->
<svg version="1.1" id="Capa_1" xmlns="http://www.w3.org/2000/svg" xmlns:xlink="http://www.w3.org/1999/xlink" x="0px" y="0px"
	 viewBox="0 0 65.5 65.5" style="enable-background:new 0 0 65.5 65.5;" xml:space="preserve">
<g>
	<g id="group-7svg">
		<path id="path-1_27_" style="fill:#FF917B;" d="M18.684,38.744c-0.586-0.215-1.685-2.689-1.685-2.689
			c-2.783-7.227,0.819-15.342,8.047-18.125c7.226-2.783,15.341,0.82,18.124,8.047l1.787,6.044L18.684,38.744L18.684,38.744z"/>
		<path id="path-2_27_" style="fill:#53ECF4;" d="M14.161,59.419h39.998c2.256,0,4.434-0.744,6.061-2.308
			c3.326-3.194,5.215-7.475,5.279-12.675c0.096-7.937-5.06-15.005-12.821-16.671c-6.642-1.426-12.812,1.029-16.583,5.601
			c-1.696-0.72-3.56-1.137-5.519-1.137c-5.993,0-11.103,3.727-13.158,8.992c-2.599-0.588-5.55-0.333-8.703,2.682
			c-1.949,1.863-3.226,4.369-3.215,7.065c0.006,1.495,0.348,2.739,0.957,3.976C7.875,57.831,10.944,59.419,14.161,59.419z"/>
		<path id="path-3_25_" style="fill:#8B71B5;" d="M54.014,51.837c0.06-4.898-3.123-9.278-7.912-10.307
			c-4.099-0.88-7.908,0.627-10.235,3.448c-1.046-0.444-2.197-0.707-3.406-0.707c-3.699,0-6.852,2.298-8.121,5.548
			c-1.604-0.363-3.425-0.207-5.371,1.654l0,0"/>
		<path id="path-4_23_" d="M50.159,58.419H10.161c-4.109,0-7.493-1.893-9.051-5.065c-0.68-1.384-1.103-2.6-1.11-4.382
			c-0.012-2.98,1.294-5.877,3.677-8.157c2.687-2.567,5.66-3.661,8.836-3.28c2.602-5.398,7.996-8.823,14.063-8.823
			c1.743,0,3.447,0.286,5.081,0.849c3.419-3.674,8.201-5.76,13.285-5.76c1.344,0,2.706,0.146,4.051,0.435
			c8.354,1.793,14.113,9.233,14.006,18.093c-0.067,5.439-1.997,10.019-5.74,13.614C55.55,57.586,53.161,58.419,50.159,58.419z
			 M11.263,40.46c-1.932,0-3.736,0.825-5.512,2.523C3.968,44.689,2.991,46.811,3,48.96c0.005,1.225,0.274,1.996,0.802,3.071
			c1.043,2.122,3.419,3.388,6.359,3.388h39.998c2.231,0,3.874-0.536,5.022-1.639c3.141-3.018,4.762-6.882,4.818-11.487
			c0.091-7.415-4.695-13.634-11.635-15.124c-5.714-1.226-11.519,0.764-15.111,5.12c-0.425,0.513-1.135,0.686-1.744,0.426
			c-1.567-0.665-3.227-1.003-4.933-1.003c-5.236,0-9.853,3.159-11.761,8.047c-0.27,0.692-1.011,1.081-1.728,0.918
			C12.442,40.531,11.846,40.46,11.263,40.46z"/>
		<path id="path-5_21_" d="M50.014,51.419c-0.006,0-0.011,0-0.018,0c-0.828,0-1.491-0.73-1.482-1.559
			c0.053-4.333-2.713-7.981-6.726-8.842c-3.378-0.726-6.652,0.363-8.764,2.925c-0.424,0.512-1.133,0.68-1.744,0.421
			c-0.917-0.39-1.865-0.59-2.819-0.59c-2.995,0-5.634,1.802-6.723,4.592c-0.27,0.692-1.006,1.078-1.729,0.917
			c-1.067-0.242-2.377-0.28-4.002,1.274c-0.599,0.572-1.548,0.552-2.121-0.047s-0.552-1.549,0.046-2.121
			c1.689-1.615,3.495-2.344,5.515-2.214c1.761-3.318,5.181-5.404,9.014-5.404c1.005,0,2.001,0.152,2.973,0.453
			c2.811-2.825,6.922-4.032,10.983-3.16c5.341,1.146,9.167,6.146,9.097,11.833C51.505,50.719,50.835,51.419,50.014,51.419z"/>
		<path id="path-6_20_" d="M33.226,14.427c-0.203,0-0.41-0.042-0.607-0.13c-0.758-0.336-1.099-1.222-0.763-1.979l2.373-5.344
			c0.336-0.757,1.223-1.099,1.98-0.762c0.757,0.336,1.098,1.223,0.762,1.98l-2.373,5.344C34.349,14.094,33.802,14.427,33.226,14.427
			z"/>
		<path id="path-7_16_" d="M10.079,23.34c-0.203,0-0.41-0.041-0.608-0.129l-5.343-2.373c-0.758-0.336-1.099-1.222-0.763-1.98
			c0.335-0.756,1.222-1.099,1.979-0.762l5.344,2.373c0.758,0.336,1.099,1.222,0.763,1.98C11.203,23.008,10.654,23.34,10.079,23.34z"
			/>
		<path id="path-8_14_" d="M42.915,22.272c-0.603,0-1.17-0.366-1.4-0.962c-0.297-0.773,0.087-1.641,0.861-1.939l4.085-1.573
			c0.772-0.296,1.64,0.088,1.938,0.861c0.298,0.773-0.087,1.641-0.86,1.939l-4.085,1.573C43.276,22.239,43.094,22.272,42.915,22.272
			z"/>
		<path id="path-9_13_" d="M4.112,37.213c-0.602,0-1.17-0.365-1.399-0.961c-0.298-0.773,0.086-1.641,0.86-1.939l5.105-1.966
			c0.769-0.298,1.641,0.087,1.939,0.861c0.298,0.773-0.087,1.641-0.86,1.939l-5.106,1.965C4.474,37.181,4.292,37.213,4.112,37.213z"
			/>
		<path id="path-10_12_" d="M19.737,15.367c-0.603,0-1.17-0.365-1.399-0.961l-2.36-6.127c-0.298-0.773,0.087-1.641,0.861-1.939
			c0.768-0.296,1.64,0.087,1.938,0.861l2.359,6.127c0.298,0.773-0.086,1.641-0.86,1.939C20.099,15.335,19.917,15.367,19.737,15.367z
			"/>
		<path id="path-11_12_" d="M14.684,38.244c-0.171,0-0.345-0.029-0.515-0.092c-0.384-0.14-1.183-0.433-2.541-3.488
			c-1.519-3.939-1.413-8.157,0.269-11.947c1.683-3.789,4.74-6.697,8.61-8.187c3.87-1.489,8.087-1.383,11.876,0.299
			c3.79,1.683,6.697,4.74,8.186,8.609c0.298,0.773-0.087,1.642-0.86,1.939c-0.774,0.297-1.642-0.087-1.939-0.861
			c-1.202-3.121-3.548-5.588-6.604-6.945c-3.059-1.358-6.462-1.443-9.581-0.241c-3.122,1.202-5.588,3.547-6.946,6.605
			c-1.357,3.057-1.443,6.46-0.241,9.581c0.334,0.745,0.833,1.656,1.071,1.949c0.597,0.366,0.874,1.112,0.624,1.794
			C15.871,37.867,15.296,38.244,14.684,38.244z"/>
	</g>
</g>
<g>
</g>
<g>
</g>
<g>
</g>
<g>
</g>
<g>
</g>
<g>
</g>
<g>
</g>
<g>
</g>
<g>
</g>
<g>
</g>
<g>
</g>
<g>
</g>
<g>
</g>
<g>
</g>
<g>
</g>
</svg>
