<?xml version="1.0" encoding="iso-8859-1"?>
<!-- Generator: Adobe Illustrator 19.1.0, SVG Export Plug-In . SVG Version: 6.00 Build 0)  -->
<svg version="1.1" id="Capa_1" xmlns="http://www.w3.org/2000/svg" xmlns:xlink="http://www.w3.org/1999/xlink" x="0px" y="0px"
	 viewBox="0 0 65.499 65.499" style="enable-background:new 0 0 65.499 65.499;" xml:space="preserve">
<g>
	<g id="group-2svg">
		<path id="path-1_10_" style="fill:#53ECF4;" d="M15.716,49.717h38.786c2.188,0,4.3-0.415,5.878-1.931
			c3.225-3.098,5.057-7.095,5.118-12.138c0.094-7.697-4.906-14.473-12.431-16.089c-6.441-1.383-12.425,1.036-16.081,5.469
			c-1.644-0.698-3.453-1.083-5.352-1.083c-5.812,0-10.767,3.624-12.76,8.729c-2.52-0.57-5.381-0.318-8.439,2.605
			c-1.889,1.808-3.128,4.24-3.117,6.854c0.005,1.45,0.338,2.35,0.927,3.55C9.62,48.483,12.597,49.717,15.716,49.717z"/>
		<path id="path-2_10_" style="fill:#8B71B5;" d="M54.362,42.978c0.058-4.75-3.028-8.997-7.672-9.994
			c-3.976-0.853-7.668,0.607-9.925,3.343c-1.015-0.431-2.131-0.685-3.303-0.685c-3.587,0-6.645,2.228-7.875,5.38
			c-1.555-0.353-3.321-0.201-5.208,1.603l0,0"/>
		<path id="path-3_9_" d="M48.684,49.717H9.898c-3.896,0-7.275-1.951-8.817-5.092C0.329,43.096,0.006,41.773,0,40.201
			c-0.012-2.902,1.259-5.722,3.581-7.942c2.602-2.488,5.484-3.556,8.572-3.194c2.534-5.23,7.772-8.546,13.663-8.546
			c1.675,0,3.324,0.277,4.914,0.823c3.314-3.545,7.949-5.559,12.88-5.559c1.31,0,2.64,0.143,3.953,0.425
			c8.123,1.744,13.722,8.993,13.617,17.629c-0.065,5.339-1.942,9.817-5.579,13.311C53.852,48.829,51.46,49.717,48.684,49.717z
			 M10.965,31.996c-1.862,0-3.599,0.795-5.311,2.432c-1.72,1.644-2.663,3.69-2.654,5.761c0.004,1.102,0.228,2.004,0.773,3.113
			c1.035,2.107,3.382,3.415,6.125,3.415h38.786c1.385,0,3.348-0.3,4.839-1.732c3.035-2.916,4.602-6.68,4.657-11.185
			c0.088-7.19-4.537-13.218-11.247-14.659c-5.533-1.188-11.144,0.73-14.608,4.93c-0.423,0.513-1.132,0.686-1.744,0.426
			c-1.529-0.649-3.132-0.978-4.765-0.978c-5.06,0-9.52,3.049-11.363,7.769c-0.269,0.691-1.001,1.081-1.729,0.917
			C12.102,32.064,11.527,31.996,10.965,31.996z"/>
		<path id="path-4_7_" d="M48.544,42.717c-0.006,0-0.013,0-0.019,0c-0.828,0-1.492-0.779-1.481-1.607
			c0.051-4.179-2.617-7.723-6.488-8.555c-3.256-0.698-6.414,0.338-8.452,2.809c-0.423,0.513-1.132,0.675-1.744,0.415
			c-0.884-0.375-1.798-0.571-2.716-0.571c-2.885,0-5.428,1.734-6.478,4.423c-0.269,0.691-1.003,1.079-1.729,0.916
			c-1.021-0.231-2.278-0.269-3.84,1.223c-0.598,0.573-1.547,0.552-2.12-0.047c-0.573-0.599-0.551-1.548,0.047-2.121
			c1.639-1.568,3.403-2.286,5.352-2.161c1.719-3.218,5.044-5.239,8.768-5.239c0.97,0,1.931,0.145,2.87,0.433
			c2.737-2.736,6.729-3.903,10.672-3.057c5.2,1.116,8.925,6.034,8.858,11.569C50.033,41.968,49.364,42.717,48.544,42.717z"/>
	</g>
</g>
<g>
</g>
<g>
</g>
<g>
</g>
<g>
</g>
<g>
</g>
<g>
</g>
<g>
</g>
<g>
</g>
<g>
</g>
<g>
</g>
<g>
</g>
<g>
</g>
<g>
</g>
<g>
</g>
<g>
</g>
</svg>
