<?xml version="1.0" encoding="iso-8859-1"?>
<!-- Generator: Adobe Illustrator 19.1.0, SVG Export Plug-In . SVG Version: 6.00 Build 0)  -->
<svg version="1.1" id="Capa_1" xmlns="http://www.w3.org/2000/svg" xmlns:xlink="http://www.w3.org/1999/xlink" x="0px" y="0px"
	 viewBox="0 0 63.374 63.374" style="enable-background:new 0 0 63.374 63.374;" xml:space="preserve">
<g>
	<g id="group-3svg">
		<path id="path-1_21_" style="fill:#53ECF4;" d="M58.356,42.475c3.161-3.037,4.956-7.162,5.017-12.105
			c0.092-7.544-4.809-14.289-12.185-15.873c-6.313-1.355-12.178,0.964-15.762,5.31c-1.612-0.685-3.384-1.089-5.246-1.089
			c-5.697,0-10.553,3.54-12.507,8.544c-2.469-0.559-5.274-0.318-8.271,2.547c-1.853,1.771-3.066,4.152-3.056,6.715
			c0.006,1.42,0.332,2.715,0.909,3.891l0,0"/>
		<path id="path-2_21_" style="fill:#8B71B5;" d="M52.458,37.349c0.056-4.656-2.968-8.819-7.521-9.796
			c-3.896-0.837-7.516,0.594-9.728,3.276c-0.995-0.422-2.088-0.671-3.237-0.671c-3.516,0-6.513,2.184-7.719,5.273
			c-1.524-0.346-3.255-0.197-5.105,1.571l0,0"/>
		<path id="path-3_20_" d="M53.51,41.067c-0.393,0-0.787-0.154-1.081-0.461c-0.574-0.597-0.555-1.547,0.042-2.121
			c2.926-2.811,4.502-6.63,4.556-11.041c0.086-7.062-4.438-12.979-11-14.388c-5.497-1.18-10.839,0.613-14.29,4.797
			c-0.423,0.513-1.132,0.686-1.744,0.426c-1.513-0.642-3.081-0.969-4.659-0.969c-4.949,0-9.309,2.98-11.109,7.59
			c-0.27,0.691-1.002,1.082-1.729,0.917c-1.745-0.395-4.107-0.506-6.904,2.169C3.913,29.591,2.992,31.589,3,33.61
			c0.004,1.136,0.258,2.224,0.755,3.236c0.365,0.744,0.059,1.642-0.685,2.007c-0.744,0.365-1.643,0.059-2.008-0.685
			C0.363,36.745,0.006,35.215,0,33.621c-0.011-2.852,1.238-5.623,3.519-7.804c2.568-2.455,5.324-3.489,8.405-3.137
			c2.492-5.122,7.631-8.37,13.41-8.37c1.627,0,3.24,0.274,4.81,0.815c4.14-4.41,10.366-6.321,16.513-5.002
			c7.849,1.685,13.471,8.985,13.37,17.357c-0.065,5.234-1.958,9.787-5.478,13.169C54.259,40.928,53.884,41.067,53.51,41.067z"/>
		<path id="path-4_18_" d="M47.612,36.3c-0.006,0-0.013,0-0.019,0c-0.828,0-1.491-0.869-1.482-1.698
			c0.05-4.082-2.555-7.589-6.335-8.401c-3.177-0.682-6.264,0.306-8.255,2.72c-0.423,0.513-1.133,0.663-1.744,0.404
			c-0.863-0.367-1.755-0.564-2.651-0.564c-2.816,0-5.297,1.69-6.322,4.313c-0.269,0.692-1.003,1.08-1.729,0.915
			c-0.995-0.225-2.217-0.262-3.737,1.192c-0.598,0.571-1.548,0.55-2.12-0.049c-0.573-0.598-0.551-1.549,0.047-2.121
			c1.583-1.513,3.35-2.224,5.247-2.124c1.693-3.156,4.958-5.137,8.614-5.137c0.947,0,1.887,0.141,2.805,0.42
			c2.69-2.68,6.608-3.821,10.475-2.992c5.11,1.097,8.771,6.021,8.705,11.461C49.101,35.461,48.432,36.3,47.612,36.3z"/>
		<path id="path-5_16_" d="M6.614,45.86c0-0.861,0.699-1.56,1.56-1.56c0.862,0,1.56,0.699,1.56,1.56c0,0.862-0.698,1.56-1.56,1.56
			C7.313,47.42,6.614,46.722,6.614,45.86z"/>
		<path id="path-6_15_" d="M14.311,45.86c0-0.861,0.698-1.56,1.56-1.56c0.861,0,1.56,0.699,1.56,1.56c0,0.862-0.699,1.56-1.56,1.56
			C15.009,47.42,14.311,46.722,14.311,45.86z"/>
		<path id="path-7_11_" d="M22.215,45.86c0-0.861,0.698-1.56,1.56-1.56c0.861,0,1.56,0.699,1.56,1.56c0,0.862-0.699,1.56-1.56,1.56
			C22.913,47.42,22.215,46.722,22.215,45.86z"/>
		<path id="path-8_11_" d="M29.703,45.86c0-0.861,0.698-1.56,1.56-1.56s1.56,0.699,1.56,1.56c0,0.862-0.698,1.56-1.56,1.56
			S29.703,46.722,29.703,45.86z"/>
		<path id="path-9_10_" d="M37.399,45.86c0-0.861,0.699-1.56,1.56-1.56c0.862,0,1.56,0.699,1.56,1.56c0,0.862-0.698,1.56-1.56,1.56
			C38.098,47.42,37.399,46.722,37.399,45.86z"/>
		<path id="path-10_10_" d="M0.374,52.1c0-0.861,0.699-1.56,1.56-1.56c0.862,0,1.56,0.699,1.56,1.56c0,0.862-0.698,1.561-1.56,1.561
			C1.073,53.661,0.374,52.962,0.374,52.1z"/>
		<path id="path-11_10_" d="M8.07,52.1c0-0.861,0.699-1.56,1.56-1.56c0.862,0,1.56,0.699,1.56,1.56c0,0.862-0.698,1.561-1.56,1.561
			C8.769,53.661,8.07,52.962,8.07,52.1z"/>
		<path id="path-12_9_" d="M15.975,52.1c0-0.861,0.698-1.56,1.56-1.56c0.861,0,1.56,0.699,1.56,1.56c0,0.862-0.699,1.561-1.56,1.561
			C16.673,53.661,15.975,52.962,15.975,52.1z"/>
		<path id="path-13_8_" d="M23.463,52.1c0-0.861,0.698-1.56,1.56-1.56c0.861,0,1.56,0.699,1.56,1.56c0,0.862-0.699,1.561-1.56,1.561
			C24.161,53.661,23.463,52.962,23.463,52.1z"/>
		<path id="path-14_8_" d="M31.159,52.1c0-0.861,0.698-1.56,1.56-1.56c0.862,0,1.56,0.699,1.56,1.56c0,0.862-0.698,1.561-1.56,1.561
			C31.857,53.661,31.159,52.962,31.159,52.1z"/>
		<path id="path-15_7_" d="M11.815,39.62c0-0.861,0.698-1.56,1.56-1.56c0.861,0,1.56,0.699,1.56,1.56c0,0.862-0.699,1.56-1.56,1.56
			C12.513,41.18,11.815,40.482,11.815,39.62z"/>
		<path id="path-16_6_" d="M19.511,39.62c0-0.861,0.698-1.56,1.56-1.56c0.861,0,1.56,0.699,1.56,1.56c0,0.862-0.699,1.56-1.56,1.56
			C20.209,41.18,19.511,40.482,19.511,39.62z"/>
		<path id="path-17_5_" d="M27.415,39.62c0-0.861,0.698-1.56,1.56-1.56c0.861,0,1.56,0.699,1.56,1.56c0,0.862-0.699,1.56-1.56,1.56
			C28.113,41.18,27.415,40.482,27.415,39.62z"/>
		<path id="path-18_3_" d="M34.903,39.62c0-0.861,0.699-1.56,1.56-1.56c0.862,0,1.56,0.699,1.56,1.56c0,0.862-0.698,1.56-1.56,1.56
			C35.602,41.18,34.903,40.482,34.903,39.62z"/>
		<path id="path-19_2_" d="M42.599,39.62c0-0.861,0.699-1.56,1.56-1.56c0.862,0,1.56,0.699,1.56,1.56c0,0.862-0.698,1.56-1.56,1.56
			C43.298,41.18,42.599,40.482,42.599,39.62z"/>
	</g>
</g>
<g>
</g>
<g>
</g>
<g>
</g>
<g>
</g>
<g>
</g>
<g>
</g>
<g>
</g>
<g>
</g>
<g>
</g>
<g>
</g>
<g>
</g>
<g>
</g>
<g>
</g>
<g>
</g>
<g>
</g>
</svg>
