<?xml version="1.0" encoding="iso-8859-1"?>
<!-- Generator: Adobe Illustrator 19.1.0, SVG Export Plug-In . SVG Version: 6.00 Build 0)  -->
<svg version="1.1" id="Capa_1" xmlns="http://www.w3.org/2000/svg" xmlns:xlink="http://www.w3.org/1999/xlink" x="0px" y="0px"
	 viewBox="0 0 65.5 65.5" style="enable-background:new 0 0 65.5 65.5;" xml:space="preserve">
<g>
	<g id="group-10svg">
		<path id="path-1" style="fill:#8B71B5;" d="M27.066,26.697c-4.459-4.459-5.624-10.953-3.52-16.489
			c-1.988,0.755-3.854,1.92-5.454,3.52c-6.059,6.06-6.059,14.789,0,20.848l0,0"/>
		<path id="path-2" style="fill:#53ECF4;" d="M60.22,52.529c3.327-3.195,5.215-7.534,5.279-12.735
			c0.097-7.937-5.06-15.034-12.82-16.7c-6.642-1.427-12.813,1.014-16.583,5.586c-1.697-0.721-3.561-1.145-5.52-1.145
			c-5.993,0-11.103,3.724-13.158,8.989c-2.599-0.589-5.55-0.335-8.703,2.68c-1.949,1.863-3.226,4.368-3.215,7.064
			c0.006,1.495,0.349,2.857,0.957,4.094l0,0"/>
		<path id="path-3" d="M56.221,52.029c-0.394,0-0.788-0.154-1.083-0.461c-0.573-0.597-0.554-1.547,0.043-2.121
			c3.095-2.972,4.761-7.009,4.818-11.672c0.091-7.468-4.694-13.725-11.635-15.215c-5.817-1.248-11.462,0.649-15.111,5.074
			c-0.424,0.513-1.134,0.685-1.743,0.426c-1.604-0.68-3.263-1.025-4.934-1.025c-5.239,0-9.855,3.153-11.761,8.035
			c-0.27,0.692-1.013,1.081-1.728,0.917c-1.855-0.42-4.366-0.538-7.334,2.301C3.969,39.993,2.991,42.114,3,44.262
			c0.005,1.205,0.275,2.362,0.804,3.439c0.365,0.744,0.057,1.643-0.686,2.007c-0.745,0.366-1.643,0.059-2.008-0.685
			C0.38,47.535,0.007,45.937,0,44.274c-0.012-2.979,1.295-5.875,3.679-8.154c2.698-2.581,5.595-3.658,8.834-3.273
			c2.599-5.392,7.994-8.812,14.063-8.812c1.72,0,3.425,0.292,5.083,0.869c4.337-4.646,10.876-6.663,17.334-5.277
			c8.223,1.765,14.112,9.413,14.006,18.185c-0.068,5.485-2.052,10.257-5.739,13.799C56.969,51.891,56.595,52.029,56.221,52.029z"/>
		<path id="path-4" d="M11.258,50.585c0-0.906,0.735-1.641,1.641-1.641c0.907,0,1.642,0.735,1.642,1.641
			c0,0.907-0.735,1.641-1.642,1.641C11.993,52.226,11.258,51.492,11.258,50.585z"/>
		<path id="path-5" d="M19.355,50.585c0-0.906,0.735-1.641,1.642-1.641c0.906,0,1.641,0.735,1.641,1.641
			c0,0.907-0.735,1.641-1.641,1.641C20.09,52.226,19.355,51.492,19.355,50.585z"/>
		<path id="path-6" d="M27.672,50.585c0-0.906,0.734-1.641,1.64-1.641c0.908,0,1.642,0.735,1.642,1.641
			c0,0.907-0.734,1.641-1.642,1.641C28.406,52.226,27.672,51.492,27.672,50.585z"/>
		<path id="path-7" d="M35.55,50.585c0-0.906,0.735-1.641,1.641-1.641c0.906,0,1.641,0.735,1.641,1.641
			c0,0.907-0.735,1.641-1.641,1.641C36.285,52.226,35.55,51.492,35.55,50.585z"/>
		<path id="path-8" d="M43.647,50.585c0-0.906,0.735-1.641,1.641-1.641c0.907,0,1.642,0.735,1.642,1.641
			c0,0.907-0.735,1.641-1.642,1.641C44.382,52.226,43.647,51.492,43.647,50.585z"/>
		<path id="path-9" d="M4.693,57.15c0-0.906,0.735-1.641,1.641-1.641s1.641,0.735,1.641,1.641c0,0.907-0.735,1.642-1.641,1.642
			S4.693,58.057,4.693,57.15z"/>
		<path id="path-10" d="M12.79,57.15c0-0.906,0.735-1.641,1.641-1.641c0.907,0,1.641,0.735,1.641,1.641
			c0,0.907-0.734,1.642-1.641,1.642C13.525,58.792,12.79,58.057,12.79,57.15z"/>
		<path id="path-11" d="M21.106,57.15c0-0.906,0.735-1.641,1.642-1.641c0.906,0,1.64,0.735,1.64,1.641
			c0,0.907-0.734,1.642-1.64,1.642C21.841,58.792,21.106,58.057,21.106,57.15z"/>
		<path id="path-12" d="M28.984,57.15c0-0.906,0.736-1.641,1.642-1.641s1.641,0.735,1.641,1.641c0,0.907-0.735,1.642-1.641,1.642
			S28.984,58.057,28.984,57.15z"/>
		<path id="path-13" d="M37.082,57.15c0-0.906,0.734-1.641,1.64-1.641c0.908,0,1.642,0.735,1.642,1.641
			c0,0.907-0.734,1.642-1.642,1.642C37.816,58.792,37.082,58.057,37.082,57.15z"/>
		<path id="path-14" d="M16.729,44.02c0-0.907,0.735-1.642,1.642-1.642c0.906,0,1.641,0.735,1.641,1.642
			c0,0.906-0.735,1.641-1.641,1.641C17.464,45.661,16.729,44.926,16.729,44.02z"/>
		<path id="path-15" d="M24.826,44.02c0-0.907,0.735-1.642,1.642-1.642c0.906,0,1.641,0.735,1.641,1.642
			c0,0.906-0.735,1.641-1.641,1.641C25.561,45.661,24.826,44.926,24.826,44.02z"/>
		<path id="path-16" d="M33.142,44.02c0-0.907,0.735-1.642,1.642-1.642c0.906,0,1.642,0.735,1.642,1.642
			c0,0.906-0.736,1.641-1.642,1.641C33.877,45.661,33.142,44.926,33.142,44.02z"/>
		<path id="path-17" d="M41.021,44.02c0-0.907,0.735-1.642,1.641-1.642c0.907,0,1.642,0.735,1.642,1.642
			c0,0.906-0.735,1.641-1.642,1.641C41.756,45.661,41.021,44.926,41.021,44.02z"/>
		<path id="path-18" d="M49.118,44.02c0-0.907,0.735-1.642,1.642-1.642c0.906,0,1.641,0.735,1.641,1.642
			c0,0.906-0.735,1.641-1.641,1.641C49.853,45.661,49.118,44.926,49.118,44.02z"/>
		<path id="path-19" d="M14.093,34.076c-0.384,0-0.768-0.146-1.061-0.439c-6.655-6.655-6.655-16.314-0.001-22.969
			c1.701-1.701,3.714-3,5.981-3.862c0.555-0.21,1.177-0.076,1.594,0.341c0.418,0.418,0.552,1.042,0.342,1.594
			c-1.96,5.158-0.712,11.005,3.179,14.895c0.586,0.586,0.586,1.535,0,2.121c-0.586,0.586-1.535,0.586-2.121,0.001
			c-3.886-3.886-5.602-9.377-4.765-14.686c-0.748,0.501-1.445,1.074-2.089,1.717c-5.513,5.513-5.512,13.214,0.001,18.727
			c0.586,0.585,0.586,1.535,0,2.121C14.86,33.93,14.476,34.076,14.093,34.076z"/>
	</g>
</g>
<g>
</g>
<g>
</g>
<g>
</g>
<g>
</g>
<g>
</g>
<g>
</g>
<g>
</g>
<g>
</g>
<g>
</g>
<g>
</g>
<g>
</g>
<g>
</g>
<g>
</g>
<g>
</g>
<g>
</g>
</svg>
