<?xml version="1.0" encoding="iso-8859-1"?>
<!-- Generator: Adobe Illustrator 19.1.0, SVG Export Plug-In . SVG Version: 6.00 Build 0)  -->
<svg version="1.1" id="Capa_1" xmlns="http://www.w3.org/2000/svg" xmlns:xlink="http://www.w3.org/1999/xlink" x="0px" y="0px"
	 viewBox="0 0 65.499 65.499" style="enable-background:new 0 0 65.499 65.499;" xml:space="preserve">
<g>
	<g id="group-9svg">
		<path id="path-1_29_" style="fill:#FF917B;" d="M18.683,37.705c-0.585-0.214-1.685-2.689-1.685-2.689
			c-2.783-7.227,0.82-15.341,8.047-18.124s15.342,0.82,18.125,8.047l1.85,5.223L21.377,39.01L18.683,37.705z"/>
		<path id="path-2_29_" style="fill:#53ECF4;" d="M60.221,56.192c3.325-3.195,5.213-7.534,5.277-12.735
			c0.097-7.937-5.059-15.034-12.82-16.7c-6.642-1.427-12.813,1.014-16.583,5.586c-1.696-0.721-3.561-1.145-5.519-1.145
			c-5.994,0-11.103,3.724-13.159,8.989c-2.599-0.589-5.549-0.335-8.702,2.679C6.766,44.73,5.489,47.235,5.5,49.931
			c0.006,1.495,0.348,2.856,0.956,4.094l0,0"/>
		<path id="path-3_27_" d="M56.221,54.692c-0.394,0-0.788-0.154-1.082-0.46c-0.574-0.598-0.555-1.548,0.043-2.121
			c3.093-2.973,4.759-7.01,4.816-11.673c0.091-7.468-4.693-13.725-11.634-15.215c-5.818-1.248-11.463,0.649-15.112,5.074
			c-0.424,0.512-1.132,0.685-1.744,0.426c-1.602-0.681-3.261-1.025-4.932-1.025c-5.239,0-9.856,3.153-11.762,8.034
			c-0.269,0.693-1.011,1.081-1.728,0.918c-1.855-0.42-4.365-0.538-7.335,2.301C3.969,42.655,2.991,44.777,3,46.925
			c0.005,1.207,0.274,2.363,0.803,3.439c0.365,0.743,0.057,1.642-0.686,2.007c-0.744,0.366-1.643,0.059-2.008-0.685
			C0.38,50.2,0.007,48.602,0,46.937c-0.012-2.98,1.295-5.876,3.679-8.155c2.697-2.58,5.595-3.657,8.834-3.272
			c2.598-5.393,7.993-8.812,14.063-8.812c1.72,0,3.425,0.292,5.082,0.869c4.337-4.648,10.88-6.662,17.335-5.277
			c8.222,1.765,14.111,9.413,14.005,18.185c-0.067,5.485-2.051,10.257-5.738,13.799C56.969,54.553,56.595,54.692,56.221,54.692z"/>
		<path id="path-4_25_" d="M33.226,12.388c-0.203,0-0.41-0.041-0.607-0.129c-0.758-0.336-1.099-1.223-0.763-1.979l2.372-5.344
			c0.335-0.757,1.222-1.098,1.98-0.762c0.758,0.336,1.098,1.223,0.763,1.98l-2.373,5.343C34.35,12.056,33.802,12.388,33.226,12.388z
			"/>
		<path id="path-5_23_" d="M10.079,21.302c-0.203,0-0.41-0.042-0.607-0.129L4.128,18.8c-0.758-0.336-1.099-1.223-0.763-1.979
			c0.335-0.757,1.224-1.1,1.98-0.763l5.343,2.372c0.758,0.337,1.099,1.223,0.763,1.98C11.203,20.97,10.654,21.302,10.079,21.302z"/>
		<path id="path-6_22_" d="M42.915,20.234c-0.603,0-1.17-0.366-1.399-0.962c-0.298-0.773,0.086-1.641,0.86-1.939l4.084-1.573
			c0.769-0.297,1.64,0.087,1.938,0.861c0.298,0.773-0.087,1.641-0.86,1.939l-4.084,1.573C43.277,20.201,43.095,20.234,42.915,20.234
			z"/>
		<path id="path-7_18_" d="M4.111,35.175c-0.602,0-1.17-0.366-1.399-0.962c-0.298-0.773,0.087-1.641,0.86-1.938l5.106-1.967
			c0.768-0.297,1.64,0.087,1.938,0.861s-0.087,1.641-0.86,1.939L4.65,35.074C4.473,35.142,4.291,35.175,4.111,35.175z"/>
		<path id="path-8_16_" d="M19.736,13.329c-0.602,0-1.17-0.366-1.399-0.962l-2.36-6.127c-0.297-0.772,0.087-1.64,0.861-1.938
			c0.768-0.297,1.64,0.087,1.938,0.861l2.36,6.126c0.297,0.774-0.087,1.641-0.861,1.939C20.099,13.297,19.916,13.329,19.736,13.329z
			"/>
		<path id="path-9_15_" d="M14.683,36.206c-0.171,0-0.345-0.03-0.515-0.092c-0.384-0.141-1.182-0.433-2.54-3.488
			c-3.105-8.058,0.891-17.058,8.878-20.134c7.988-3.075,16.987,0.92,20.063,8.908c0.298,0.773-0.087,1.641-0.86,1.939
			c-0.77,0.296-1.641-0.087-1.939-0.861c-2.482-6.444-9.745-9.668-16.186-7.186c-6.443,2.481-9.667,9.742-7.187,16.186
			c0.334,0.744,0.834,1.656,1.073,1.95c0.595,0.365,0.872,1.111,0.622,1.793C15.869,35.829,15.295,36.206,14.683,36.206z"/>
		<path id="path-10_14_" d="M11.258,53.248c0-0.906,0.734-1.641,1.64-1.641c0.908,0,1.642,0.735,1.642,1.641
			c0,0.907-0.734,1.641-1.642,1.641C11.992,54.889,11.258,54.155,11.258,53.248z"/>
		<path id="path-11_13_" d="M19.354,53.248c0-0.906,0.736-1.641,1.642-1.641s1.642,0.735,1.642,1.641
			c0,0.907-0.736,1.641-1.642,1.641S19.354,54.155,19.354,53.248z"/>
		<path id="path-12_11_" d="M27.671,53.248c0-0.906,0.734-1.641,1.641-1.641s1.641,0.735,1.641,1.641
			c0,0.907-0.734,1.641-1.641,1.641S27.671,54.155,27.671,53.248z"/>
		<path id="path-13_10_" d="M35.549,53.248c0-0.906,0.735-1.641,1.641-1.641c0.907,0,1.642,0.735,1.642,1.641
			c0,0.907-0.735,1.641-1.642,1.641C36.284,54.889,35.549,54.155,35.549,53.248z"/>
		<path id="path-14_10_" d="M43.646,53.248c0-0.906,0.735-1.641,1.642-1.641c0.906,0,1.641,0.735,1.641,1.641
			c0,0.907-0.735,1.641-1.641,1.641C44.381,54.889,43.646,54.155,43.646,53.248z"/>
		<path id="path-15_9_" d="M4.692,59.813c0-0.906,0.735-1.641,1.642-1.641c0.906,0,1.64,0.735,1.64,1.641
			c0,0.907-0.734,1.641-1.64,1.641C5.427,61.454,4.692,60.72,4.692,59.813z"/>
		<path id="path-16_8_" d="M12.789,59.813c0-0.906,0.735-1.641,1.642-1.641c0.906,0,1.641,0.735,1.641,1.641
			c0,0.907-0.735,1.641-1.641,1.641C13.524,61.454,12.789,60.72,12.789,59.813z"/>
		<path id="path-17_6_" d="M21.105,59.813c0-0.906,0.736-1.641,1.642-1.641s1.642,0.735,1.642,1.641
			c0,0.907-0.736,1.641-1.642,1.641S21.105,60.72,21.105,59.813z"/>
		<path id="path-18_4_" d="M28.984,59.813c0-0.906,0.735-1.641,1.641-1.641s1.641,0.735,1.641,1.641
			c0,0.907-0.735,1.641-1.641,1.641S28.984,60.72,28.984,59.813z"/>
		<path id="path-19_3_" d="M37.081,59.813c0-0.906,0.735-1.641,1.642-1.641c0.906,0,1.641,0.735,1.641,1.641
			c0,0.907-0.735,1.641-1.641,1.641C37.816,61.454,37.081,60.72,37.081,59.813z"/>
		<path id="path-20_1_" d="M16.728,46.683c0-0.907,0.736-1.642,1.642-1.642s1.642,0.735,1.642,1.642
			c0,0.906-0.736,1.641-1.642,1.641S16.728,47.589,16.728,46.683z"/>
		<path id="path-21_1_" d="M24.826,46.683c0-0.907,0.734-1.642,1.641-1.642c0.907,0,1.641,0.735,1.641,1.642
			c0,0.906-0.734,1.641-1.641,1.641C25.56,48.324,24.826,47.589,24.826,46.683z"/>
		<path id="path-22" d="M33.141,46.683c0-0.907,0.736-1.642,1.642-1.642c0.906,0,1.642,0.735,1.642,1.642
			c0,0.906-0.736,1.641-1.642,1.641C33.877,48.324,33.141,47.589,33.141,46.683z"/>
		<path id="path-23" d="M41.02,46.683c0-0.907,0.735-1.642,1.642-1.642c0.906,0,1.641,0.735,1.641,1.642
			c0,0.906-0.735,1.641-1.641,1.641C41.755,48.324,41.02,47.589,41.02,46.683z"/>
		<path id="path-24" d="M49.117,46.683c0-0.907,0.735-1.642,1.642-1.642c0.906,0,1.641,0.735,1.641,1.642
			c0,0.906-0.735,1.641-1.641,1.641C49.852,48.324,49.117,47.589,49.117,46.683z"/>
	</g>
</g>
<g>
</g>
<g>
</g>
<g>
</g>
<g>
</g>
<g>
</g>
<g>
</g>
<g>
</g>
<g>
</g>
<g>
</g>
<g>
</g>
<g>
</g>
<g>
</g>
<g>
</g>
<g>
</g>
<g>
</g>
</svg>
