<?xml version="1.0" encoding="iso-8859-1"?>
<!-- Generator: Adobe Illustrator 19.1.0, SVG Export Plug-In . SVG Version: 6.00 Build 0)  -->
<svg version="1.1" id="Capa_1" xmlns="http://www.w3.org/2000/svg" xmlns:xlink="http://www.w3.org/1999/xlink" x="0px" y="0px"
	 viewBox="0 0 63.374 63.374" style="enable-background:new 0 0 63.374 63.374;" xml:space="preserve">
<g>
	<g id="group-4svg">
		<path id="path-1_24_" style="fill:#53ECF4;" d="M58.357,38.054c3.16-3.037,4.956-7.161,5.016-12.105
			c0.092-7.544-4.809-14.289-12.185-15.873c-6.313-1.355-12.178,0.965-15.762,5.31c-1.612-0.685-3.384-1.088-5.245-1.088
			c-5.697,0-10.554,3.539-12.507,8.543c-2.47-0.559-5.275-0.318-8.272,2.547C7.55,27.16,6.336,29.54,6.347,32.103
			c0.005,1.421,0.331,2.715,0.908,3.891l0,0"/>
		<path id="path-2_24_" style="fill:#8B71B5;" d="M52.458,32.928c0.057-4.656-2.968-8.819-7.521-9.796
			c-3.896-0.837-7.516,0.595-9.728,3.276c-0.994-0.422-2.088-0.671-3.237-0.671c-3.516,0-6.513,2.185-7.719,5.273
			c-1.524-0.345-3.255-0.197-5.105,1.572l0,0"/>
		<path id="path-3_23_" d="M53.511,36.646c-0.394,0-0.787-0.154-1.082-0.46c-0.574-0.598-0.555-1.548,0.043-2.121
			c2.926-2.812,4.502-6.63,4.555-11.041c0.086-7.063-4.437-12.979-11-14.389c-5.495-1.179-10.839,0.614-14.29,4.798
			c-0.423,0.512-1.132,0.685-1.743,0.426c-1.514-0.643-3.082-0.969-4.66-0.969c-4.948,0-9.309,2.979-11.109,7.59
			c-0.27,0.691-1.003,1.082-1.729,0.917c-1.745-0.395-4.106-0.506-6.903,2.168C3.913,25.171,2.992,27.168,3,29.189
			c0.005,1.136,0.259,2.224,0.756,3.236c0.365,0.744,0.058,1.643-0.686,2.008c-0.744,0.365-1.643,0.059-2.008-0.686
			C0.364,32.324,0.006,30.794,0,29.201c-0.011-2.852,1.239-5.624,3.519-7.804c2.569-2.455,5.328-3.488,8.405-3.138
			c2.492-5.122,7.631-8.369,13.41-8.369c1.628,0,3.241,0.273,4.81,0.814c4.141-4.41,10.366-6.321,16.513-5.002
			c7.849,1.685,13.472,8.985,13.37,17.358c-0.064,5.234-1.958,9.787-5.477,13.168C54.259,36.507,53.885,36.646,53.511,36.646z"/>
		<path id="path-4_21_" d="M47.612,31.55c-0.006,0-0.012,0-0.018,0c-0.829,0-1.492-0.705-1.482-1.533
			c0.05-4.082-2.556-7.508-6.336-8.319c-3.176-0.682-6.265,0.348-8.255,2.761c-0.422,0.513-1.132,0.684-1.744,0.424
			c-0.863-0.366-1.755-0.553-2.651-0.553c-2.816,0-5.297,1.695-6.321,4.319c-0.27,0.691-1.003,1.08-1.729,0.917
			c-0.995-0.226-2.218-0.261-3.737,1.192c-0.598,0.573-1.549,0.552-2.121-0.047c-0.573-0.599-0.551-1.548,0.048-2.121
			c1.582-1.513,3.349-2.223,5.247-2.124c1.692-3.155,4.957-5.137,8.613-5.137c0.948,0,1.888,0.141,2.806,0.421
			c2.689-2.681,6.606-3.824,10.474-2.993c5.111,1.097,8.772,5.857,8.706,11.296C49.102,30.876,48.432,31.55,47.612,31.55z"/>
		<path id="path-5_19_" d="M48.147,39.48c-0.207,0-0.417-0.043-0.618-0.134c-0.755-0.341-1.089-1.23-0.747-1.985l1.094-2.416
			c0.341-0.755,1.23-1.09,1.985-0.748c0.755,0.342,1.089,1.23,0.747,1.985l-1.094,2.417C49.264,39.153,48.718,39.48,48.147,39.48z"
			/>
		<path id="path-6_18_" d="M38.572,39.48c-0.207,0-0.417-0.043-0.617-0.134c-0.755-0.341-1.09-1.23-0.748-1.985l1.094-2.416
			c0.342-0.755,1.231-1.09,1.985-0.748c0.755,0.342,1.089,1.23,0.748,1.985l-1.095,2.417C39.689,39.153,39.143,39.48,38.572,39.48z"
			/>
		<path id="path-7_14_" d="M28.998,39.48c-0.207,0-0.417-0.043-0.618-0.134c-0.755-0.341-1.089-1.23-0.747-1.985l1.094-2.416
			c0.341-0.755,1.23-1.09,1.985-0.748c0.755,0.342,1.089,1.23,0.747,1.985l-1.094,2.417C30.115,39.153,29.569,39.48,28.998,39.48z"
			/>
		<path id="path-8_12_" d="M19.423,39.48c-0.207,0-0.417-0.043-0.617-0.134c-0.755-0.341-1.09-1.23-0.748-1.985l1.094-2.416
			c0.341-0.755,1.231-1.09,1.985-0.748c0.755,0.342,1.089,1.23,0.748,1.985l-1.095,2.417C20.54,39.153,19.994,39.48,19.423,39.48z"
			/>
		<path id="path-9_11_" d="M9.849,39.48c-0.207,0-0.417-0.043-0.618-0.134c-0.754-0.341-1.089-1.23-0.747-1.985l1.094-2.416
			c0.341-0.755,1.231-1.09,1.985-0.748c0.755,0.342,1.089,1.23,0.748,1.985l-1.095,2.417C10.966,39.153,10.42,39.48,9.849,39.48z"/>
		<path id="path-10_11_" d="M40.487,49.328c-0.207,0-0.417-0.043-0.617-0.134c-0.755-0.341-1.09-1.23-0.748-1.985l1.094-2.416
			c0.342-0.755,1.231-1.089,1.985-0.748c0.755,0.342,1.089,1.231,0.748,1.985l-1.095,2.416C41.604,49,41.058,49.328,40.487,49.328z"
			/>
		<path id="path-11_11_" d="M30.913,49.328c-0.208,0-0.417-0.043-0.618-0.134c-0.755-0.341-1.089-1.23-0.748-1.985l1.095-2.416
			c0.34-0.755,1.229-1.089,1.984-0.748c0.755,0.342,1.09,1.231,0.748,1.985l-1.094,2.416C32.029,49,31.483,49.328,30.913,49.328z"/>
		<path id="path-12_10_" d="M21.338,49.328c-0.207,0-0.417-0.043-0.617-0.134c-0.755-0.341-1.09-1.23-0.748-1.985l1.094-2.416
			c0.341-0.755,1.229-1.089,1.985-0.748c0.755,0.342,1.09,1.231,0.748,1.985l-1.094,2.416C22.455,49,21.909,49.328,21.338,49.328z"
			/>
		<path id="path-13_9_" d="M11.764,49.328c-0.206,0-0.417-0.043-0.618-0.134c-0.754-0.341-1.089-1.23-0.748-1.985l1.094-2.416
			c0.342-0.754,1.231-1.09,1.985-0.748c0.755,0.342,1.09,1.23,0.749,1.985l-1.094,2.416C12.881,49,12.335,49.328,11.764,49.328z"/>
		<path id="path-14_9_" d="M31.733,58.082c-0.207,0-0.417-0.043-0.617-0.134c-0.755-0.341-1.09-1.231-0.748-1.985l1.094-2.416
			c0.341-0.755,1.231-1.09,1.985-0.748c0.755,0.342,1.09,1.23,0.748,1.985L33.1,57.2C32.85,57.754,32.304,58.082,31.733,58.082z"/>
		<path id="path-15_8_" d="M22.159,58.082c-0.207,0-0.417-0.043-0.618-0.134c-0.754-0.341-1.089-1.231-0.747-1.985l1.094-2.416
			c0.341-0.755,1.231-1.09,1.985-0.748c0.755,0.342,1.089,1.23,0.748,1.985L23.526,57.2C23.276,57.754,22.73,58.082,22.159,58.082z"
			/>
		<path id="path-16_7_" d="M12.584,58.082c-0.207,0-0.417-0.043-0.617-0.134c-0.755-0.341-1.09-1.231-0.748-1.985l1.094-2.416
			c0.342-0.755,1.231-1.09,1.985-0.748c0.755,0.342,1.09,1.23,0.748,1.985L13.952,57.2C13.701,57.754,13.155,58.082,12.584,58.082z"
			/>
	</g>
</g>
<g>
</g>
<g>
</g>
<g>
</g>
<g>
</g>
<g>
</g>
<g>
</g>
<g>
</g>
<g>
</g>
<g>
</g>
<g>
</g>
<g>
</g>
<g>
</g>
<g>
</g>
<g>
</g>
<g>
</g>
</svg>
