<?xml version="1.0" encoding="iso-8859-1"?>
<!-- Generator: Adobe Illustrator 19.1.0, SVG Export Plug-In . SVG Version: 6.00 Build 0)  -->
<svg version="1.1" id="Capa_1" xmlns="http://www.w3.org/2000/svg" xmlns:xlink="http://www.w3.org/1999/xlink" x="0px" y="0px"
	 viewBox="0 0 65.499 65.499" style="enable-background:new 0 0 65.499 65.499;" xml:space="preserve">
<g>
	<g id="group-12svg">
		<path id="path-1_2_" style="fill:#53ECF4;" d="M60.22,51.231c3.326-3.195,5.215-7.534,5.278-12.735
			c0.097-7.937-5.059-15.034-12.82-16.7c-6.642-1.426-12.813,1.014-16.583,5.586c-1.696-0.721-3.561-1.145-5.519-1.145
			c-5.994,0-11.103,3.724-13.159,8.989c-2.598-0.589-5.549-0.335-8.702,2.679C6.766,39.769,5.489,42.274,5.5,44.97
			c0.006,1.495,0.348,2.857,0.956,4.094l0,0"/>
		<path id="path-2_2_" style="fill:#8B71B5;" d="M27.065,25.399c-4.458-4.459-5.623-10.953-3.52-16.489
			c-1.987,0.756-3.853,1.92-5.453,3.521c-6.06,6.059-6.06,14.788,0,20.847l0,0"/>
		<path id="path-3_2_" d="M56.22,50.732c-0.393,0-0.787-0.155-1.081-0.461c-0.574-0.598-0.555-1.547,0.042-2.121
			c3.095-2.974,4.761-7.01,4.817-11.672c0.092-7.469-4.693-13.725-11.635-15.216c-5.815-1.248-11.461,0.649-15.111,5.074
			c-0.423,0.513-1.132,0.686-1.743,0.426c-1.603-0.68-3.263-1.026-4.933-1.026c-5.239,0-9.856,3.155-11.761,8.036
			c-0.27,0.691-1.003,1.081-1.729,0.917C11.231,34.27,8.72,34.15,5.751,36.99C3.968,38.695,2.991,40.817,3,42.964
			c0.005,1.207,0.275,2.364,0.803,3.439c0.364,0.744,0.058,1.643-0.686,2.008c-0.744,0.365-1.643,0.058-2.008-0.686
			C0.38,46.238,0.006,44.641,0,42.976c-0.012-2.979,1.294-5.875,3.678-8.155c2.699-2.58,5.603-3.655,8.835-3.272
			c2.599-5.392,7.993-8.813,14.063-8.813c1.72,0,3.425,0.292,5.082,0.87c4.337-4.646,10.878-6.663,17.335-5.277
			c8.222,1.765,14.112,9.413,14.005,18.185c-0.067,5.485-2.051,10.256-5.738,13.799C56.969,50.592,56.594,50.732,56.22,50.732z"/>
		<path id="path-4_2_" d="M14.092,32.778c-0.384,0-0.768-0.146-1.061-0.439c-6.655-6.655-6.655-16.314,0-22.969
			c1.7-1.7,3.712-3,5.98-3.862c0.554-0.21,1.177-0.076,1.594,0.341c0.418,0.418,0.552,1.042,0.342,1.594
			c-1.96,5.157-0.712,11.004,3.179,14.895c0.586,0.586,0.586,1.536,0,2.122c-0.586,0.585-1.535,0.585-2.121-0.001
			c-3.886-3.885-5.601-9.375-4.765-14.685c-0.748,0.501-1.445,1.075-2.088,1.717c-5.513,5.513-5.513,13.214,0,18.727
			c0.586,0.585,0.586,1.535,0,2.121C14.859,32.632,14.475,32.778,14.092,32.778z"/>
		<path id="path-5_2_" d="M51.013,41.486c-0.207,0-0.417-0.042-0.617-0.133c-0.755-0.342-1.09-1.231-0.748-1.986l1.094-2.416
			c0.342-0.755,1.231-1.089,1.985-0.748c0.755,0.342,1.09,1.231,0.748,1.986l-1.094,2.416C52.13,41.159,51.584,41.486,51.013,41.486
			z"/>
		<path id="path-6_2_" d="M41.439,41.486c-0.207,0-0.417-0.042-0.618-0.133c-0.755-0.342-1.089-1.231-0.748-1.986l1.095-2.416
			c0.341-0.755,1.229-1.089,1.985-0.748c0.755,0.342,1.089,1.231,0.747,1.986l-1.094,2.416
			C42.555,41.159,42.009,41.486,41.439,41.486z"/>
		<path id="path-7_2_" d="M31.864,41.486c-0.206,0-0.416-0.042-0.617-0.133c-0.755-0.342-1.09-1.231-0.748-1.986l1.094-2.416
			c0.341-0.755,1.23-1.089,1.985-0.748c0.755,0.342,1.09,1.231,0.748,1.986l-1.094,2.416C32.981,41.159,32.435,41.486,31.864,41.486
			z"/>
		<path id="path-8_2_" d="M22.29,41.486c-0.207,0-0.417-0.042-0.618-0.133c-0.755-0.342-1.089-1.231-0.747-1.986l1.094-2.416
			c0.341-0.755,1.229-1.089,1.985-0.748c0.755,0.342,1.089,1.231,0.747,1.986l-1.094,2.416
			C23.406,41.159,22.861,41.486,22.29,41.486z"/>
		<path id="path-9_2_" d="M12.716,41.486c-0.207,0-0.417-0.042-0.618-0.133c-0.755-0.342-1.089-1.231-0.748-1.986l1.095-2.416
			c0.34-0.755,1.229-1.089,1.984-0.748c0.755,0.342,1.09,1.231,0.748,1.986l-1.094,2.416C13.832,41.159,13.286,41.486,12.716,41.486
			z"/>
		<path id="path-10_2_" d="M43.354,51.335c-0.207,0-0.417-0.043-0.618-0.134c-0.755-0.342-1.089-1.231-0.747-1.986l1.094-2.416
			c0.341-0.755,1.229-1.089,1.985-0.748c0.754,0.342,1.089,1.231,0.747,1.985l-1.094,2.417
			C44.47,51.007,43.925,51.335,43.354,51.335z"/>
		<path id="path-11_2_" d="M33.779,51.335c-0.207,0-0.417-0.043-0.618-0.134c-0.755-0.342-1.089-1.231-0.747-1.986l1.094-2.416
			c0.341-0.755,1.23-1.089,1.985-0.748c0.755,0.342,1.089,1.231,0.747,1.985l-1.094,2.417C34.896,51.007,34.35,51.335,33.779,51.335
			z"/>
		<path id="path-12_2_" d="M24.205,51.335c-0.207,0-0.417-0.043-0.618-0.134c-0.755-0.342-1.089-1.231-0.747-1.986l1.094-2.416
			c0.341-0.755,1.23-1.089,1.985-0.748c0.755,0.342,1.089,1.231,0.747,1.985l-1.094,2.417
			C25.322,51.007,24.776,51.335,24.205,51.335z"/>
		<path id="path-13_2_" d="M14.63,51.335c-0.207,0-0.417-0.043-0.618-0.134c-0.754-0.342-1.089-1.231-0.747-1.986l1.094-2.416
			c0.341-0.755,1.231-1.089,1.985-0.748c0.755,0.342,1.089,1.231,0.748,1.985l-1.095,2.417
			C15.747,51.007,15.201,51.335,14.63,51.335z"/>
		<path id="path-14_2_" d="M34.6,60.089c-0.207,0-0.417-0.044-0.618-0.135c-0.755-0.342-1.089-1.23-0.747-1.985l1.094-2.416
			c0.341-0.755,1.229-1.09,1.985-0.748c0.755,0.342,1.089,1.231,0.747,1.985l-1.094,2.417C35.717,59.761,35.171,60.089,34.6,60.089z
			"/>
		<path id="path-15_2_" d="M25.026,60.089c-0.207,0-0.417-0.044-0.618-0.135c-0.755-0.342-1.089-1.23-0.748-1.985l1.095-2.416
			c0.34-0.755,1.231-1.09,1.984-0.748c0.755,0.342,1.09,1.231,0.748,1.985l-1.094,2.417C26.142,59.761,25.596,60.089,25.026,60.089z
			"/>
		<path id="path-16_2_" d="M15.451,60.089c-0.207,0-0.417-0.044-0.618-0.135c-0.755-0.342-1.089-1.23-0.747-1.985l1.094-2.416
			c0.341-0.755,1.229-1.09,1.985-0.748c0.755,0.342,1.089,1.231,0.747,1.985l-1.094,2.417
			C16.568,59.761,16.022,60.089,15.451,60.089z"/>
	</g>
</g>
<g>
</g>
<g>
</g>
<g>
</g>
<g>
</g>
<g>
</g>
<g>
</g>
<g>
</g>
<g>
</g>
<g>
</g>
<g>
</g>
<g>
</g>
<g>
</g>
<g>
</g>
<g>
</g>
<g>
</g>
</svg>
