<?xml version="1.0" encoding="iso-8859-1"?>
<!-- Generator: Adobe Illustrator 19.1.0, SVG Export Plug-In . SVG Version: 6.00 Build 0)  -->
<svg version="1.1" id="Capa_1" xmlns="http://www.w3.org/2000/svg" xmlns:xlink="http://www.w3.org/1999/xlink" x="0px" y="0px"
	 viewBox="0 0 66.5 66.5" style="enable-background:new 0 0 66.5 66.5;" xml:space="preserve">
<g>
	<g id="group-11svg">
		<path id="path-1_1_" style="fill:#FF917B;" d="M19.685,34.267c-0.586-0.214-1.686-2.688-1.686-2.688
			c-2.783-7.228,0.82-15.342,8.047-18.125s15.342,0.82,18.124,8.047l1.176,4.371l-22.968,9.841L19.685,34.267z"/>
		<path id="path-2_1_" style="fill:#53ECF4;" d="M61.221,52.754c3.325-3.195,5.215-7.534,5.278-12.735
			c0.097-7.937-5.059-15.034-12.82-16.7c-6.643-1.427-12.813,1.014-16.583,5.586c-1.696-0.721-3.562-1.145-5.52-1.145
			c-5.993,0-11.102,3.724-13.158,8.989c-2.598-0.589-5.55-0.335-8.703,2.68c-1.948,1.863-3.226,4.368-3.215,7.064
			c0.006,1.495,0.349,2.856,0.956,4.094l0,0"/>
		<path id="path-3_1_" d="M56.221,52.254c-0.394,0-0.787-0.154-1.082-0.461c-0.573-0.597-0.555-1.547,0.043-2.12
			c3.095-2.974,4.761-7.01,4.817-11.673c0.091-7.468-4.693-13.724-11.635-15.215c-5.809-1.246-11.46,0.649-15.111,5.074
			c-0.425,0.513-1.134,0.685-1.743,0.426c-1.603-0.68-3.263-1.025-4.934-1.025c-5.239,0-9.855,3.154-11.76,8.034
			c-0.271,0.693-1.013,1.082-1.729,0.918c-1.855-0.42-4.366-0.538-7.336,2.301C3.969,40.218,2.991,42.34,3,44.487
			c0.005,1.207,0.275,2.364,0.803,3.439c0.365,0.743,0.058,1.642-0.686,2.007c-0.745,0.366-1.642,0.059-2.007-0.685
			C0.38,47.762,0.007,46.164,0,44.499c-0.011-2.978,1.294-5.874,3.678-8.154c2.7-2.581,5.598-3.656,8.836-3.273
			c2.599-5.393,7.993-8.812,14.062-8.812c1.72,0,3.425,0.292,5.083,0.869c4.336-4.647,10.882-6.663,17.334-5.277
			c8.223,1.765,14.113,9.413,14.006,18.185c-0.067,5.484-2.051,10.256-5.739,13.799C56.969,52.115,56.595,52.254,56.221,52.254z"/>
		<path id="path-4_1_" d="M33.227,9.951c-0.203,0-0.41-0.042-0.608-0.129c-0.757-0.337-1.098-1.224-0.762-1.98l2.373-5.344
			c0.337-0.757,1.221-1.099,1.979-0.762c0.758,0.336,1.099,1.223,0.763,1.98l-2.373,5.343C34.35,9.618,33.802,9.951,33.227,9.951z"
			/>
		<path id="path-5_1_" d="M10.079,18.864c-0.203,0-0.41-0.042-0.607-0.129l-5.344-2.373c-0.758-0.336-1.098-1.223-0.763-1.979
			c0.336-0.757,1.223-1.099,1.98-0.763l5.344,2.372c0.758,0.337,1.098,1.223,0.762,1.98C11.203,18.532,10.655,18.864,10.079,18.864z
			"/>
		<path id="path-6_1_" d="M42.915,17.796c-0.602,0-1.17-0.366-1.399-0.962c-0.298-0.773,0.087-1.641,0.86-1.939l4.084-1.573
			c0.769-0.296,1.641,0.087,1.939,0.861c0.298,0.773-0.087,1.641-0.861,1.939l-4.084,1.573
			C43.278,17.763,43.095,17.796,42.915,17.796z"/>
		<path id="path-7_1_" d="M4.113,32.737c-0.603,0-1.17-0.366-1.4-0.961c-0.298-0.774,0.087-1.641,0.861-1.94l5.105-1.966
			c0.77-0.297,1.641,0.088,1.938,0.861c0.298,0.774-0.086,1.641-0.86,1.939l-5.105,1.966C4.475,32.704,4.292,32.737,4.113,32.737z"
			/>
		<path id="path-8_1_" d="M19.738,10.891c-0.603,0-1.17-0.365-1.4-0.962l-2.359-6.126c-0.298-0.773,0.087-1.642,0.86-1.939
			c0.77-0.296,1.641,0.087,1.939,0.861l2.359,6.126c0.298,0.774-0.087,1.641-0.86,1.939C20.1,10.859,19.917,10.891,19.738,10.891z"
			/>
		<path id="path-9_1_" d="M14.685,33.768c-0.171,0-0.346-0.029-0.516-0.092c-0.384-0.141-1.182-0.433-2.541-3.488
			c-1.518-3.94-1.413-8.157,0.27-11.947c1.682-3.79,4.74-6.697,8.609-8.187c3.87-1.49,8.086-1.384,11.876,0.299
			c3.79,1.682,6.697,4.74,8.187,8.609c0.297,0.773-0.087,1.641-0.861,1.939c-0.774,0.297-1.641-0.088-1.938-0.861
			c-1.202-3.122-3.548-5.588-6.605-6.945c-3.056-1.357-6.46-1.443-9.581-0.241c-3.122,1.202-5.588,3.547-6.945,6.605
			c-1.357,3.056-1.443,6.459-0.241,9.58c0.334,0.745,0.833,1.657,1.071,1.95c0.597,0.366,0.873,1.112,0.624,1.794
			C15.871,33.39,15.296,33.768,14.685,33.768z"/>
		<path id="path-10_1_" d="M48.825,46.292c-0.207,0-0.416-0.043-0.618-0.133c-0.755-0.343-1.089-1.231-0.747-1.986l1.095-2.417
			c0.342-0.754,1.229-1.089,1.985-0.747c0.755,0.342,1.089,1.231,0.747,1.985l-1.094,2.416
			C49.942,45.965,49.397,46.292,48.825,46.292z"/>
		<path id="path-11_1_" d="M39.251,46.292c-0.207,0-0.417-0.043-0.617-0.133c-0.755-0.342-1.09-1.231-0.748-1.986l1.094-2.416
			c0.341-0.755,1.232-1.09,1.984-0.748c0.755,0.341,1.09,1.23,0.748,1.984l-1.094,2.417C40.368,45.964,39.823,46.292,39.251,46.292z
			"/>
		<path id="path-12_1_" d="M29.677,46.292c-0.207,0-0.417-0.043-0.617-0.133c-0.755-0.342-1.09-1.231-0.748-1.986l1.094-2.416
			c0.34-0.755,1.231-1.09,1.984-0.748c0.755,0.341,1.09,1.23,0.748,1.984l-1.094,2.417C30.794,45.964,30.248,46.292,29.677,46.292z"
			/>
		<path id="path-13_1_" d="M20.102,46.292c-0.207,0-0.417-0.043-0.618-0.133c-0.755-0.343-1.089-1.231-0.747-1.986l1.094-2.417
			c0.342-0.754,1.23-1.089,1.986-0.747c0.755,0.342,1.089,1.231,0.747,1.985l-1.095,2.416
			C21.218,45.965,20.673,46.292,20.102,46.292z"/>
		<path id="path-14_1_" d="M10.528,46.292c-0.207,0-0.417-0.043-0.619-0.133c-0.754-0.343-1.088-1.231-0.747-1.986l1.095-2.417
			c0.342-0.754,1.229-1.089,1.985-0.747c0.755,0.342,1.089,1.231,0.748,1.985l-1.095,2.416
			C11.644,45.965,11.099,46.292,10.528,46.292z"/>
		<path id="path-15_1_" d="M41.166,56.14c-0.207,0-0.417-0.043-0.617-0.134c-0.755-0.342-1.09-1.23-0.748-1.985l1.094-2.416
			c0.341-0.755,1.231-1.09,1.984-0.748c0.755,0.342,1.09,1.23,0.748,1.985l-1.094,2.417C42.283,55.812,41.738,56.14,41.166,56.14z"
			/>
		<path id="path-16_1_" d="M31.591,56.14c-0.207,0-0.417-0.043-0.618-0.134c-0.755-0.342-1.089-1.231-0.747-1.986l1.095-2.416
			c0.341-0.755,1.229-1.09,1.985-0.747c0.755,0.342,1.089,1.231,0.747,1.986l-1.095,2.416C32.707,55.813,32.162,56.14,31.591,56.14z
			"/>
		<path id="path-17_1_" d="M22.017,56.14c-0.207,0-0.417-0.043-0.618-0.134c-0.755-0.342-1.089-1.231-0.747-1.986l1.094-2.416
			c0.342-0.755,1.229-1.09,1.986-0.747c0.755,0.342,1.089,1.231,0.747,1.986l-1.095,2.416C23.133,55.813,22.588,56.14,22.017,56.14z
			"/>
		<path id="path-18_1_" d="M12.443,56.14c-0.207,0-0.417-0.043-0.618-0.134c-0.754-0.342-1.089-1.23-0.748-1.985l1.094-2.416
			c0.34-0.755,1.233-1.09,1.985-0.748c0.754,0.342,1.089,1.23,0.748,1.985l-1.094,2.417C13.56,55.812,13.014,56.14,12.443,56.14z"/>
		<path id="path-19_1_" d="M32.412,64.894c-0.207,0-0.417-0.043-0.617-0.134c-0.755-0.342-1.09-1.23-0.748-1.985l1.094-2.416
			c0.341-0.756,1.231-1.09,1.984-0.748c0.755,0.341,1.09,1.23,0.748,1.984l-1.093,2.417C33.53,64.566,32.984,64.894,32.412,64.894z"
			/>
		<path id="path-20" d="M22.838,64.894c-0.207,0-0.417-0.043-0.617-0.134c-0.755-0.342-1.09-1.23-0.748-1.985l1.094-2.416
			c0.34-0.756,1.232-1.09,1.984-0.748c0.755,0.341,1.09,1.23,0.748,1.984l-1.094,2.417C23.955,64.566,23.409,64.894,22.838,64.894z"
			/>
		<path id="path-21" d="M13.263,64.894c-0.207,0-0.417-0.043-0.618-0.134c-0.755-0.342-1.089-1.23-0.747-1.985l1.094-2.417
			c0.342-0.755,1.229-1.089,1.986-0.747c0.755,0.341,1.089,1.231,0.747,1.985l-1.095,2.416
			C14.379,64.567,13.834,64.894,13.263,64.894z"/>
	</g>
</g>
<g>
</g>
<g>
</g>
<g>
</g>
<g>
</g>
<g>
</g>
<g>
</g>
<g>
</g>
<g>
</g>
<g>
</g>
<g>
</g>
<g>
</g>
<g>
</g>
<g>
</g>
<g>
</g>
<g>
</g>
</svg>
