<?xml version="1.0" encoding="iso-8859-1"?>
<!-- Generator: Adobe Illustrator 19.1.0, SVG Export Plug-In . SVG Version: 6.00 Build 0)  -->
<svg version="1.1" id="Capa_1" xmlns="http://www.w3.org/2000/svg" xmlns:xlink="http://www.w3.org/1999/xlink" x="0px" y="0px"
	 viewBox="0 0 65.5 65.5" style="enable-background:new 0 0 65.5 65.5;" xml:space="preserve">
<g>
	<g id="group-15svg">
		<path id="path-1_5_" style="fill:#8B71B5;" d="M27.066,22.759c-4.459-4.459-5.624-10.953-3.52-16.489
			c-1.987,0.755-3.853,1.92-5.454,3.52c-6.059,6.06-6.059,14.789,0,20.848l0,0"/>
		<path id="path-2_5_" style="fill:#53ECF4;" d="M60.221,48.591c3.325-3.195,5.214-7.534,5.278-12.736
			c0.096-7.937-5.059-15.033-12.82-16.699c-6.643-1.427-12.813,1.014-16.584,5.586c-1.695-0.721-3.56-1.145-5.519-1.145
			c-5.993,0-11.103,3.724-13.158,8.989c-2.599-0.589-5.55-0.336-8.702,2.68c-1.95,1.863-3.227,4.367-3.216,7.064
			c0.006,1.495,0.349,2.856,0.957,4.094l0,0"/>
		<path id="path-3_5_" d="M56.221,49.091c-0.394,0-0.787-0.154-1.082-0.461c-0.574-0.597-0.555-1.547,0.043-2.12
			c3.094-2.974,4.76-7.01,4.817-11.673c0.091-7.468-4.694-13.724-11.635-15.215c-5.812-1.247-11.461,0.649-15.111,5.074
			c-0.423,0.513-1.132,0.686-1.744,0.426c-1.602-0.68-3.262-1.025-4.933-1.025c-5.239,0-9.856,3.153-11.761,8.034
			c-0.27,0.692-1.002,1.082-1.729,0.918c-1.854-0.42-4.364-0.538-7.334,2.301C3.969,37.055,2.991,39.176,3,41.324
			c0.005,1.207,0.275,2.364,0.803,3.438c0.365,0.744,0.059,1.643-0.685,2.008c-0.742,0.365-1.642,0.059-2.008-0.685
			c-0.73-1.486-1.103-3.084-1.11-4.75c-0.012-2.979,1.295-5.875,3.679-8.154c2.699-2.58,5.6-3.658,8.834-3.272
			c2.599-5.393,7.993-8.812,14.063-8.812c1.721,0,3.426,0.292,5.083,0.869c4.337-4.647,10.877-6.662,17.335-5.277
			c8.222,1.765,14.112,9.413,14.005,18.185c-0.067,5.485-2.052,10.256-5.739,13.798C56.969,48.952,56.595,49.091,56.221,49.091z"/>
		<path id="path-4_4_" d="M41.166,52.977c-0.207,0-0.417-0.043-0.618-0.134c-0.755-0.342-1.089-1.23-0.748-1.985l1.095-2.416
			c0.341-0.755,1.23-1.091,1.985-0.748c0.754,0.342,1.089,1.23,0.747,1.985l-1.094,2.416C42.282,52.649,41.737,52.977,41.166,52.977
			z"/>
		<path id="path-5_4_" d="M31.591,52.977c-0.207,0-0.417-0.043-0.617-0.134c-0.755-0.342-1.09-1.23-0.748-1.985l1.095-2.416
			c0.341-0.755,1.23-1.091,1.984-0.748c0.755,0.342,1.09,1.23,0.748,1.985l-1.094,2.416C32.708,52.649,32.162,52.977,31.591,52.977z
			"/>
		<path id="path-6_4_" d="M22.017,52.977c-0.207,0-0.417-0.043-0.618-0.134c-0.755-0.342-1.089-1.23-0.747-1.985l1.094-2.416
			c0.341-0.755,1.229-1.091,1.985-0.748c0.755,0.342,1.089,1.23,0.747,1.985l-1.094,2.416
			C23.133,52.649,22.588,52.977,22.017,52.977z"/>
		<path id="path-7_4_" d="M12.443,52.977c-0.207,0-0.417-0.043-0.618-0.134c-0.755-0.342-1.089-1.23-0.748-1.985l1.095-2.416
			c0.34-0.755,1.23-1.091,1.984-0.748c0.755,0.342,1.09,1.23,0.748,1.985l-1.094,2.416C13.559,52.649,13.013,52.977,12.443,52.977z"
			/>
		<path id="path-8_4_" d="M32.412,61.731c-0.206,0-0.417-0.043-0.617-0.134c-0.755-0.342-1.09-1.23-0.748-1.985l1.093-2.416
			c0.342-0.755,1.229-1.09,1.986-0.748c0.754,0.341,1.089,1.23,0.748,1.985l-1.094,2.416C33.529,61.403,32.984,61.731,32.412,61.731
			z"/>
		<path id="path-9_4_" d="M22.838,61.731c-0.207,0-0.417-0.043-0.618-0.134c-0.755-0.342-1.089-1.231-0.748-1.985l1.095-2.417
			c0.34-0.755,1.23-1.089,1.984-0.747c0.755,0.341,1.09,1.23,0.748,1.985l-1.094,2.416C23.954,61.403,23.408,61.731,22.838,61.731z"
			/>
		<path id="path-10_4_" d="M13.263,61.731c-0.207,0-0.417-0.043-0.617-0.134c-0.755-0.342-1.09-1.231-0.748-1.985l1.094-2.417
			c0.342-0.755,1.23-1.089,1.985-0.747c0.755,0.341,1.09,1.23,0.748,1.985l-1.094,2.416C14.38,61.403,13.834,61.731,13.263,61.731z"
			/>
		<path id="path-11_4_" d="M40.581,43.676c-0.438,0-0.873-0.192-1.17-0.56c-0.519-0.645-0.417-1.59,0.229-2.109l7.995-6.432
			l-6.53-2.683c-0.515-0.212-0.87-0.691-0.924-1.245c-0.053-0.553,0.205-1.091,0.67-1.396l8.879-5.836
			c0.693-0.456,1.623-0.263,2.077,0.43c0.455,0.692,0.263,1.622-0.429,2.077l-6.504,4.275l6.25,2.567
			c0.49,0.202,0.838,0.648,0.914,1.172c0.076,0.525-0.131,1.052-0.544,1.384l-9.973,8.024
			C41.243,43.567,40.911,43.676,40.581,43.676z"/>
		<path id="path-12_4_" d="M14.092,31.138c-0.384,0-0.768-0.146-1.061-0.439c-6.654-6.655-6.654-16.314,0-22.969
			c1.701-1.7,3.713-3,5.982-3.862c0.552-0.21,1.176-0.076,1.593,0.341c0.418,0.418,0.551,1.042,0.342,1.594
			c-1.96,5.157-0.712,11.004,3.179,14.895c0.586,0.586,0.586,1.536,0,2.121c-0.586,0.586-1.536,0.586-2.121,0
			c-3.886-3.885-5.602-9.376-4.765-14.685c-0.748,0.501-1.445,1.074-2.088,1.717c-5.513,5.513-5.513,13.213,0,18.727
			c0.585,0.585,0.585,1.535,0,2.121C14.86,30.992,14.476,31.138,14.092,31.138z"/>
	</g>
</g>
<g>
</g>
<g>
</g>
<g>
</g>
<g>
</g>
<g>
</g>
<g>
</g>
<g>
</g>
<g>
</g>
<g>
</g>
<g>
</g>
<g>
</g>
<g>
</g>
<g>
</g>
<g>
</g>
<g>
</g>
</svg>
