<?xml version="1.0" encoding="iso-8859-1"?>
<!-- Generator: Adobe Illustrator 19.1.0, SVG Export Plug-In . SVG Version: 6.00 Build 0)  -->
<svg version="1.1" id="Capa_1" xmlns="http://www.w3.org/2000/svg" xmlns:xlink="http://www.w3.org/1999/xlink" x="0px" y="0px"
	 viewBox="0 0 65.499 65.499" style="enable-background:new 0 0 65.499 65.499;" xml:space="preserve">
<g>
	<g id="group-13svg">
		<path id="path-1_3_" style="fill:#53ECF4;" d="M60.22,50.416c3.326-3.195,5.215-7.535,5.278-12.736
			c0.097-7.937-5.059-15.034-12.82-16.7c-6.642-1.426-12.812,1.014-16.583,5.586c-1.696-0.72-3.561-1.145-5.519-1.145
			c-5.993,0-11.103,3.724-13.159,8.989c-2.598-0.588-5.549-0.335-8.702,2.68c-1.949,1.863-3.226,4.368-3.215,7.064
			c0.006,1.495,0.349,2.857,0.956,4.094l0,0"/>
		<path id="path-2_3_" d="M56.22,47.916c-0.394,0-0.787-0.155-1.081-0.462c-0.574-0.597-0.555-1.546,0.042-2.12
			c3.095-2.973,4.761-7.009,4.817-11.672c0.091-7.468-4.693-13.725-11.635-15.215c-5.811-1.248-11.461,0.648-15.111,5.074
			c-0.422,0.512-1.132,0.685-1.744,0.426c-1.602-0.681-3.262-1.026-4.932-1.026c-5.239,0-9.856,3.154-11.761,8.035
			c-0.27,0.691-1.001,1.081-1.729,0.917c-1.854-0.42-4.365-0.539-7.334,2.301C3.968,35.879,2.991,38,3,40.149
			c0.004,1.206,0.275,2.363,0.803,3.438c0.365,0.744,0.058,1.643-0.686,2.008c-0.744,0.365-1.643,0.058-2.008-0.686
			C0.38,43.424,0.007,41.825,0,40.161c-0.012-2.98,1.294-5.876,3.678-8.155c2.699-2.58,5.604-3.657,8.835-3.273
			c2.599-5.392,7.993-8.812,14.063-8.812c1.719,0,3.425,0.292,5.082,0.869c4.338-4.646,10.877-6.663,17.335-5.277
			c8.222,1.766,14.113,9.414,14.005,18.186c-0.066,5.484-2.051,10.255-5.739,13.798C56.969,47.777,56.594,47.916,56.22,47.916z"/>
		<path id="path-3_3_" d="M40.581,44.689c-0.438,0-0.873-0.192-1.17-0.56c-0.519-0.645-0.417-1.59,0.229-2.109l7.995-6.432
			l-6.53-2.683c-0.515-0.212-0.871-0.69-0.924-1.244c-0.053-0.554,0.205-1.092,0.67-1.398l8.879-5.835
			c0.692-0.456,1.622-0.263,2.077,0.429c0.455,0.693,0.263,1.623-0.429,2.077l-6.504,4.276l6.25,2.567
			c0.49,0.202,0.838,0.648,0.914,1.172c0.076,0.526-0.131,1.052-0.544,1.384l-9.973,8.025C41.243,44.58,40.911,44.689,40.581,44.689
			z"/>
	</g>
</g>
<g>
</g>
<g>
</g>
<g>
</g>
<g>
</g>
<g>
</g>
<g>
</g>
<g>
</g>
<g>
</g>
<g>
</g>
<g>
</g>
<g>
</g>
<g>
</g>
<g>
</g>
<g>
</g>
<g>
</g>
</svg>
