<?xml version="1.0" encoding="iso-8859-1"?>
<!-- Generator: Adobe Illustrator 19.1.0, SVG Export Plug-In . SVG Version: 6.00 Build 0)  -->
<svg version="1.1" id="Capa_1" xmlns="http://www.w3.org/2000/svg" xmlns:xlink="http://www.w3.org/1999/xlink" x="0px" y="0px"
	 viewBox="0 0 66.499 66.499" style="enable-background:new 0 0 66.499 66.499;" xml:space="preserve">
<g>
	<g id="group-14svg">
		<path id="path-1_4_" style="fill:#FF917B;" d="M19.684,34.707c-0.585-0.214-1.686-2.688-1.686-2.688
			c-2.782-7.227,0.82-15.342,8.047-18.125s15.342,0.82,18.125,8.047l1.787,6.043L19.684,34.707L19.684,34.707z"/>
		<path id="path-2_4_" style="fill:#53ECF4;" d="M61.221,53.755c3.325-3.195,5.214-7.535,5.277-12.736
			c0.097-7.937-5.059-15.034-12.819-16.7c-6.643-1.426-12.813,1.015-16.584,5.586c-1.696-0.72-3.56-1.145-5.519-1.145
			c-5.993,0-11.103,3.724-13.159,8.989c-2.598-0.588-5.549-0.335-8.702,2.68c-1.949,1.863-3.226,4.368-3.215,7.064
			c0.006,1.495,0.349,2.857,0.956,4.094l0,0"/>
		<path id="path-3_4_" d="M56.221,52.255c-0.394,0-0.787-0.155-1.082-0.461c-0.574-0.598-0.555-1.547,0.043-2.121
			c3.094-2.973,4.76-7.009,4.816-11.672c0.092-7.469-4.693-13.725-11.634-15.216c-5.81-1.246-11.462,0.65-15.112,5.075
			c-0.422,0.512-1.132,0.685-1.743,0.425c-1.603-0.68-3.262-1.025-4.933-1.025c-5.239,0-9.856,3.154-11.761,8.035
			c-0.27,0.691-1.006,1.081-1.729,0.917c-1.856-0.419-4.365-0.538-7.335,2.301C3.969,40.218,2.991,42.339,3,44.487
			c0.005,1.207,0.275,2.364,0.803,3.438c0.365,0.744,0.059,1.643-0.685,2.008c-0.743,0.365-1.642,0.06-2.008-0.684
			c-0.73-1.487-1.104-3.084-1.11-4.75c-0.012-2.979,1.294-5.875,3.678-8.155c2.7-2.58,5.603-3.658,8.835-3.272
			c2.599-5.392,7.993-8.812,14.063-8.812c1.72,0,3.425,0.292,5.083,0.87c4.338-4.647,10.877-6.665,17.335-5.278
			c8.221,1.765,14.111,9.413,14.004,18.185c-0.066,5.485-2.051,10.257-5.738,13.799C56.969,52.115,56.595,52.255,56.221,52.255z"/>
		<path id="path-4_3_" d="M33.226,9.951c-0.203,0-0.409-0.042-0.607-0.13c-0.757-0.336-1.099-1.222-0.763-1.979l2.373-5.344
			c0.336-0.756,1.22-1.099,1.98-0.762c0.757,0.336,1.098,1.223,0.762,1.979l-2.372,5.344C34.35,9.618,33.802,9.951,33.226,9.951z"/>
		<path id="path-5_3_" d="M10.079,18.864c-0.203,0-0.41-0.042-0.608-0.129l-5.344-2.373c-0.756-0.336-1.098-1.222-0.762-1.98
			c0.336-0.756,1.219-1.099,1.98-0.761l5.344,2.372c0.757,0.336,1.098,1.222,0.762,1.979C11.203,18.532,10.654,18.864,10.079,18.864
			z"/>
		<path id="path-6_3_" d="M42.915,17.796c-0.602,0-1.17-0.366-1.4-0.961c-0.297-0.774,0.088-1.642,0.861-1.94l4.084-1.573
			c0.773-0.298,1.641,0.088,1.939,0.861s-0.088,1.641-0.86,1.939l-4.085,1.573C43.277,17.763,43.095,17.796,42.915,17.796z"/>
		<path id="path-7_3_" d="M4.112,32.737c-0.602,0-1.171-0.365-1.4-0.961c-0.298-0.773,0.088-1.641,0.861-1.939l5.105-1.966
			c0.772-0.298,1.641,0.088,1.939,0.861c0.297,0.773-0.088,1.641-0.861,1.939l-5.105,1.965C4.474,32.705,4.291,32.737,4.112,32.737z
			"/>
		<path id="path-8_3_" d="M19.737,10.891c-0.602,0-1.171-0.365-1.4-0.961l-2.36-6.127c-0.297-0.773,0.088-1.641,0.861-1.939
			c0.772-0.296,1.641,0.088,1.939,0.861l2.36,6.127c0.297,0.773-0.088,1.641-0.861,1.939C20.099,10.859,19.916,10.891,19.737,10.891
			z"/>
		<path id="path-9_3_" d="M14.684,33.768c-0.171,0-0.346-0.029-0.516-0.092c-0.383-0.14-1.182-0.433-2.54-3.487
			c-3.105-8.058,0.891-17.059,8.878-20.135c7.989-3.075,16.989,0.921,20.064,8.909c0.297,0.773-0.088,1.64-0.861,1.939
			c-0.775,0.296-1.641-0.088-1.939-0.862c-1.202-3.121-3.547-5.588-6.605-6.945c-3.057-1.358-6.46-1.443-9.581-0.241
			c-6.443,2.481-9.667,9.742-7.186,16.186c0.334,0.745,0.833,1.656,1.072,1.95c0.596,0.366,0.872,1.112,0.623,1.793
			C15.87,33.391,15.295,33.768,14.684,33.768z"/>
		<path id="path-10_3_" d="M41.165,56.14c-0.207,0-0.417-0.043-0.617-0.133c-0.755-0.342-1.09-1.231-0.748-1.985l1.094-2.417
			c0.342-0.755,1.231-1.089,1.985-0.748c0.755,0.342,1.09,1.231,0.748,1.985l-1.094,2.416C42.282,55.813,41.736,56.14,41.165,56.14z
			"/>
		<path id="path-11_3_" d="M31.591,56.14c-0.207,0-0.417-0.043-0.617-0.133c-0.755-0.342-1.09-1.231-0.748-1.985l1.094-2.417
			c0.342-0.755,1.231-1.089,1.985-0.748c0.755,0.342,1.09,1.231,0.748,1.985l-1.095,2.416C32.708,55.813,32.162,56.14,31.591,56.14z
			"/>
		<path id="path-12_3_" d="M22.017,56.14c-0.207,0-0.417-0.043-0.618-0.133c-0.755-0.342-1.09-1.231-0.748-1.985l1.095-2.417
			c0.34-0.755,1.229-1.089,1.984-0.748c0.755,0.342,1.09,1.231,0.748,1.985l-1.094,2.416C23.133,55.813,22.587,56.14,22.017,56.14z"
			/>
		<path id="path-13_3_" d="M12.442,56.14c-0.207,0-0.417-0.043-0.617-0.133c-0.755-0.342-1.09-1.231-0.748-1.985l1.094-2.417
			c0.341-0.755,1.229-1.089,1.985-0.748c0.755,0.342,1.09,1.231,0.748,1.985l-1.095,2.416C13.559,55.813,13.013,56.14,12.442,56.14z
			"/>
		<path id="path-14_3_" d="M32.412,64.894c-0.207,0-0.417-0.043-0.618-0.134c-0.755-0.342-1.089-1.231-0.748-1.985l1.095-2.416
			c0.341-0.755,1.23-1.09,1.984-0.748c0.755,0.342,1.09,1.23,0.748,1.985l-1.094,2.416C33.528,64.566,32.982,64.894,32.412,64.894z"
			/>
		<path id="path-15_3_" d="M22.837,64.894c-0.207,0-0.417-0.043-0.617-0.134c-0.755-0.342-1.09-1.231-0.748-1.985l1.094-2.416
			c0.341-0.755,1.231-1.09,1.985-0.748c0.755,0.342,1.09,1.23,0.748,1.985l-1.094,2.416C23.954,64.566,23.408,64.894,22.837,64.894z
			"/>
		<path id="path-16_3_" d="M13.263,64.894c-0.207,0-0.417-0.043-0.618-0.134c-0.754-0.342-1.089-1.231-0.747-1.985l1.094-2.416
			c0.341-0.755,1.231-1.09,1.985-0.748c0.755,0.342,1.089,1.23,0.748,1.985l-1.095,2.416C14.38,64.566,13.834,64.894,13.263,64.894z
			"/>
		<path id="path-17_2_" d="M40.581,46.839c-0.439,0-0.874-0.191-1.169-0.56c-0.52-0.645-0.418-1.589,0.228-2.108l7.995-6.433
			l-6.531-2.683c-0.514-0.212-0.87-0.691-0.923-1.244c-0.053-0.554,0.205-1.092,0.67-1.397l8.879-5.836
			c0.692-0.455,1.622-0.263,2.077,0.43c0.455,0.692,0.263,1.623-0.43,2.077l-6.504,4.275l6.251,2.567
			c0.49,0.202,0.838,0.648,0.914,1.173c0.076,0.525-0.131,1.051-0.544,1.384l-9.974,8.024
			C41.243,46.731,40.911,46.839,40.581,46.839z"/>
	</g>
</g>
<g>
</g>
<g>
</g>
<g>
</g>
<g>
</g>
<g>
</g>
<g>
</g>
<g>
</g>
<g>
</g>
<g>
</g>
<g>
</g>
<g>
</g>
<g>
</g>
<g>
</g>
<g>
</g>
<g>
</g>
</svg>
