<?xml version="1.0" encoding="iso-8859-1"?>
<!-- Generator: Adobe Illustrator 19.1.0, SVG Export Plug-In . SVG Version: 6.00 Build 0)  -->
<svg version="1.1" id="Capa_1" xmlns="http://www.w3.org/2000/svg" xmlns:xlink="http://www.w3.org/1999/xlink" x="0px" y="0px"
	 viewBox="0 0 63 63" style="enable-background:new 0 0 63 63;" xml:space="preserve">
<g>
	<g id="group-5svg">
		<path id="path-1_25_" d="M47.405,32.221c-0.384,0-0.767-0.147-1.06-0.439c-0.586-0.586-0.586-1.536,0-2.122l5.456-5.456
			c0.586-0.586,1.535-0.586,2.121-0.001c0.586,0.587,0.586,1.536,0,2.122l-5.456,5.456C48.173,32.074,47.789,32.221,47.405,32.221z"
			/>
		<path id="path-2_25_" d="M14.665,32.221c-0.384,0-0.768-0.147-1.061-0.44l-5.456-5.456c-0.586-0.586-0.586-1.535,0-2.122
			c0.586-0.585,1.535-0.585,2.121,0.001l5.457,5.456c0.585,0.586,0.585,1.536,0,2.122C15.433,32.074,15.049,32.221,14.665,32.221z"
			/>
		<path id="path-3_24_" d="M61.5,46.152h-5c-0.829,0-1.5-0.671-1.5-1.5s0.671-1.5,1.5-1.5h5c0.829,0,1.5,0.671,1.5,1.5
			S62.329,46.152,61.5,46.152z"/>
		<path id="path-4_22_" d="M7.5,46.152h-6c-0.829,0-1.5-0.671-1.5-1.5s0.671-1.5,1.5-1.5h6c0.829,0,1.5,0.671,1.5,1.5
			S8.329,46.152,7.5,46.152z"/>
		<path id="path-5_20_" d="M31,26.652c-0.829,0-1.5-0.671-1.5-1.5v-10c0-0.829,0.671-1.5,1.5-1.5s1.5,0.671,1.5,1.5v10
			C32.5,25.981,31.829,26.652,31,26.652z"/>
		<path id="path-6_19_" style="fill:#FF917B;" d="M54.483,49.151c0-10.222-8.286-18.508-18.508-18.508s-18.509,8.286-18.509,18.508
			l0,0"/>
		<path id="path-7_15_" style="fill:#E56A77;" d="M33.605,49.348c0-4.451,3.609-8.059,8.06-8.059s8.059,3.608,8.059,8.059l0,0"/>
		<path id="path-8_13_" d="M49.483,48.651c-0.828,0-1.5-0.671-1.5-1.5c0-9.378-7.63-17.008-17.008-17.008
			c-9.379,0-17.009,7.63-17.009,17.008c0,0.829-0.671,1.5-1.5,1.5c-0.828,0-1.5-0.671-1.5-1.5c0-11.032,8.976-20.008,20.009-20.008
			c11.032,0,20.008,8.976,20.008,20.008C50.983,47.979,50.312,48.651,49.483,48.651z"/>
		<path id="path-9_12_" d="M44.724,48.848c-0.829,0-1.5-0.672-1.5-1.5c0-3.617-2.942-6.559-6.559-6.559s-6.56,2.942-6.56,6.559
			c0,0.828-0.671,1.5-1.5,1.5c-0.828,0-1.5-0.672-1.5-1.5c0-5.271,4.289-9.559,9.56-9.559s9.559,4.288,9.559,9.559
			C46.224,48.177,45.553,48.848,44.724,48.848z"/>
	</g>
</g>
<g>
</g>
<g>
</g>
<g>
</g>
<g>
</g>
<g>
</g>
<g>
</g>
<g>
</g>
<g>
</g>
<g>
</g>
<g>
</g>
<g>
</g>
<g>
</g>
<g>
</g>
<g>
</g>
<g>
</g>
</svg>
