<?xml version="1.0" encoding="iso-8859-1"?>
<!-- Generator: Adobe Illustrator 19.1.0, SVG Export Plug-In . SVG Version: 6.00 Build 0)  -->
<svg version="1.1" id="Capa_1" xmlns="http://www.w3.org/2000/svg" xmlns:xlink="http://www.w3.org/1999/xlink" x="0px" y="0px"
	 viewBox="0 0 63.179 63.179" style="enable-background:new 0 0 63.179 63.179;" xml:space="preserve">
<g>
	<g id="group-28svg">
		<path id="path-1_19_" d="M31.808,63.179L31.808,63.179c-0.267,0-0.537-0.007-0.808-0.021c-4.909-0.257-9.262-2.812-11.946-7.009
			c-2.848-4.456-3.363-10.077-1.378-15.035c1.213-3.031,3.092-5.075,5.867-6.361V2.5c0-1.378,1.122-2.5,2.5-2.5h11
			c1.379,0,2.5,1.122,2.5,2.5v32.84c4.622,2.504,7.152,7.005,7.152,12.776c0,4.029-1.533,7.808-4.317,10.642
			C39.578,61.609,35.824,63.179,31.808,63.179z M26.543,3v32.75c0,0.626-0.387,1.186-0.972,1.405
			c-2.539,0.953-4.068,2.47-5.11,5.074c-1.627,4.062-1.208,8.662,1.122,12.304c2.155,3.372,5.644,5.423,9.574,5.629
			c3.462,0.179,6.699-1.081,9.081-3.507c2.229-2.269,3.457-5.302,3.457-8.539c0-3.458-1.09-8.085-6.282-10.491
			c-0.531-0.245-0.87-0.776-0.87-1.36V3H26.543z"/>
		<path id="path-2_19_" d="M17.637,7.804c0-1.1,0.893-1.993,1.992-1.993c1.101,0,1.993,0.893,1.993,1.993s-0.892,1.992-1.993,1.992
			C18.53,9.796,17.637,8.904,17.637,7.804z"/>
		<path id="path-3_18_" d="M17.637,14.445c0-1.1,0.893-1.992,1.992-1.992c1.101,0,1.993,0.892,1.993,1.992s-0.892,1.992-1.993,1.992
			C18.53,16.437,17.637,15.545,17.637,14.445z"/>
		<path id="path-4_16_" d="M17.637,21.086c0-1.101,0.893-1.993,1.992-1.993c1.101,0,1.993,0.892,1.993,1.993
			c0,1.1-0.892,1.992-1.993,1.992C18.53,23.078,17.637,22.186,17.637,21.086z"/>
		<path id="path-5_14_" d="M17.637,27.727c0-1.101,0.893-1.993,1.992-1.993c1.101,0,1.993,0.892,1.993,1.993
			c0,1.1-0.892,1.992-1.993,1.992C18.53,29.719,17.637,28.827,17.637,27.727z"/>
		<path id="path-6_13_" style="fill:#E56A77;" d="M24.236,47c-0.047,1-0.071,1.102-0.071,1.549c0,4.723,3.728,8.669,8.451,8.669
			c4.722,0,8.293-4.005,8.293-8.727c0-0.448-0.026-0.491-0.074-1.491H24.236z"/>
	</g>
</g>
<g>
</g>
<g>
</g>
<g>
</g>
<g>
</g>
<g>
</g>
<g>
</g>
<g>
</g>
<g>
</g>
<g>
</g>
<g>
</g>
<g>
</g>
<g>
</g>
<g>
</g>
<g>
</g>
<g>
</g>
</svg>
