<?xml version="1.0" encoding="iso-8859-1"?>
<!-- Generator: Adobe Illustrator 19.1.0, SVG Export Plug-In . SVG Version: 6.00 Build 0)  -->
<svg version="1.1" id="Capa_1" xmlns="http://www.w3.org/2000/svg" xmlns:xlink="http://www.w3.org/1999/xlink" x="0px" y="0px"
	 viewBox="0 0 63.179 63.179" style="enable-background:new 0 0 63.179 63.179;" xml:space="preserve">
<g>
	<g id="group-26svg">
		<path id="path-1_17_" d="M31.665,63.179L31.665,63.179c-0.45,0-0.904-0.02-1.362-0.06c-5.046-0.444-9.377-3.282-11.884-7.783
			c-2.595-4.661-2.715-10.28-0.32-15.031c1.278-2.535,3.177-4.36,5.788-5.555V2.5c0-1.378,1.122-2.5,2.5-2.5h11
			c1.378,0,2.5,1.122,2.5,2.5v32.84c4.524,2.462,6.908,6.858,6.908,12.776c0,4.022-1.58,7.805-4.448,10.655
			C39.485,61.613,35.692,63.179,31.665,63.179z M26.887,3v32.75c0,0.626-0.388,1.186-0.973,1.405
			c-2.413,0.905-4.045,2.335-5.136,4.501c-1.946,3.861-1.848,8.43,0.262,12.221c2.015,3.619,5.487,5.898,9.527,6.253
			c3.65,0.32,7.112-0.951,9.666-3.488c2.297-2.282,3.562-5.31,3.562-8.526c0-5.105-2.032-8.635-6.038-10.491
			c-0.531-0.245-0.87-0.776-0.87-1.36V3H26.887z"/>
		<path id="path-2_17_" d="M17.331,7.804c0-1.1,0.892-1.993,1.992-1.993c1.101,0,1.993,0.893,1.993,1.993s-0.892,1.992-1.993,1.992
			C18.223,9.796,17.331,8.904,17.331,7.804z"/>
		<path id="path-3_16_" d="M17.331,14.445c0-1.1,0.892-1.992,1.992-1.992c1.101,0,1.993,0.892,1.993,1.992s-0.892,1.992-1.993,1.992
			C18.223,16.437,17.331,15.545,17.331,14.445z"/>
		<path id="path-4_14_" d="M17.331,21.086c0-1.101,0.892-1.993,1.992-1.993c1.101,0,1.993,0.892,1.993,1.993
			c0,1.1-0.892,1.992-1.993,1.992C18.223,23.078,17.331,22.186,17.331,21.086z"/>
		<path id="path-5_12_" d="M17.331,27.727c0-1.101,0.892-1.993,1.992-1.993c1.101,0,1.993,0.892,1.993,1.993
			c0,1.1-0.892,1.992-1.993,1.992C18.223,29.719,17.331,28.827,17.331,27.727z"/>
		<path id="path-6_11_" style="fill:#E56A77;" d="M33.887,40.659V19h-4v21.659c-5,1.117-6.062,4.33-6.062,8.125
			c0,4.722,3.746,8.551,8.468,8.551c4.723,0,8.02-3.829,8.02-8.551C40.313,44.989,38.887,41.776,33.887,40.659z"/>
	</g>
</g>
<g>
</g>
<g>
</g>
<g>
</g>
<g>
</g>
<g>
</g>
<g>
</g>
<g>
</g>
<g>
</g>
<g>
</g>
<g>
</g>
<g>
</g>
<g>
</g>
<g>
</g>
<g>
</g>
<g>
</g>
</svg>
