<?xml version="1.0" encoding="iso-8859-1"?>
<!-- Generator: Adobe Illustrator 19.1.0, SVG Export Plug-In . SVG Version: 6.00 Build 0)  -->
<svg version="1.1" id="Capa_1" xmlns="http://www.w3.org/2000/svg" xmlns:xlink="http://www.w3.org/1999/xlink" x="0px" y="0px"
	 viewBox="0 0 63.501 63.501" style="enable-background:new 0 0 63.501 63.501;" xml:space="preserve">
<g>
	<g id="group-27svg">
		<path id="path-1_18_" d="M31.794,63.501L31.794,63.501c-0.803,0-1.617-0.064-2.42-0.19c-4.526-0.71-8.435-3.406-10.727-7.397
			c-2.43-4.234-2.786-9.316-0.975-13.943c1.114-2.848,3.432-5.301,6.434-6.846V2.5c0-1.378,1.122-2.5,2.5-2.5h11
			c1.379,0,2.5,1.122,2.5,2.5v33.163c4.496,2.45,6.864,6.846,6.864,12.775c0,4.02-1.589,7.805-4.475,10.657
			C39.622,61.936,35.821,63.501,31.794,63.501z M27.106,3v33.073c0,0.597-0.354,1.137-0.901,1.375
			c-2.713,1.18-4.805,3.227-5.74,5.616c-1.477,3.776-1.192,7.915,0.784,11.357c1.863,3.245,4.914,5.349,8.59,5.926
			c3.893,0.612,7.777-0.646,10.547-3.385c2.311-2.285,3.584-5.312,3.584-8.524c0-5.119-2.017-8.648-5.994-10.491
			c-0.531-0.245-0.87-0.776-0.87-1.361V3H27.106z"/>
		<path id="path-2_18_" d="M17.432,8.126c0-1.1,0.891-1.992,1.992-1.992c1.1,0,1.992,0.892,1.992,1.992
			c0,1.101-0.892,1.992-1.992,1.992C18.323,10.118,17.432,9.227,17.432,8.126z"/>
		<path id="path-3_17_" d="M17.432,14.767c0-1.101,0.891-1.992,1.992-1.992c1.1,0,1.992,0.891,1.992,1.992
			c0,1.1-0.892,1.992-1.992,1.992C18.323,16.759,17.432,15.867,17.432,14.767z"/>
		<path id="path-4_15_" d="M17.432,21.408c0-1.1,0.891-1.993,1.992-1.993c1.1,0,1.992,0.893,1.992,1.993
			c0,1.1-0.892,1.992-1.992,1.992C18.323,23.4,17.432,22.508,17.432,21.408z"/>
		<path id="path-5_13_" d="M17.432,28.049c0-1.101,0.891-1.992,1.992-1.992c1.1,0,1.992,0.891,1.992,1.992
			c0,1.1-0.892,1.992-1.992,1.992C18.323,30.041,17.432,29.149,17.432,28.049z"/>
		<path id="path-6_12_" style="fill:#E56A77;" d="M34.106,40.98V33h-4v7.98c-5,1.119-6.121,4.332-6.121,8.126
			c0,4.723,3.715,8.551,8.438,8.551c4.722,0,8.065-3.828,8.065-8.551C40.488,45.312,39.106,42.099,34.106,40.98z"/>
	</g>
</g>
<g>
</g>
<g>
</g>
<g>
</g>
<g>
</g>
<g>
</g>
<g>
</g>
<g>
</g>
<g>
</g>
<g>
</g>
<g>
</g>
<g>
</g>
<g>
</g>
<g>
</g>
<g>
</g>
<g>
</g>
</svg>
