<?xml version="1.0" encoding="iso-8859-1"?>
<!-- Generator: Adobe Illustrator 19.1.0, SVG Export Plug-In . SVG Version: 6.00 Build 0)  -->
<svg version="1.1" id="Capa_1" xmlns="http://www.w3.org/2000/svg" xmlns:xlink="http://www.w3.org/1999/xlink" x="0px" y="0px"
	 viewBox="0 0 62.916 62.916" style="enable-background:new 0 0 62.916 62.916;" xml:space="preserve">
<g>
	<g id="group-31svg">
		<path id="path-1_23_" style="fill:#E56A77;" d="M12.009,30.183c-1.564,0-4.284,0.687-4.284,0.196
			c0-15.202,12.081-26.931,26.983-26.931c14.903,0,26.984,11.807,26.984,27.009c0,0.536-2.828-0.288-4.457-0.288
			C53.746,30.169,15.498,30.183,12.009,30.183z"/>
		<path id="path-2_23_" d="M45.918,36.208c-0.828,0-1.5-0.671-1.5-1.5c0-4.31,3.507-7.817,7.817-7.817
			c0.683,0,1.481,0.089,2.253,0.175c0.201,0.023,0.437,0.05,0.67,0.073C54.481,13.498,43.546,3,29.708,3
			C15.877,3,4.947,13.486,4.259,27.116c0.201-0.02,0.4-0.042,0.573-0.06c0.745-0.081,1.517-0.165,2.177-0.165
			c4.311,0,7.817,3.507,7.817,7.817c0,0.829-0.671,1.5-1.5,1.5c-0.828,0-1.5-0.671-1.5-1.5c0-2.656-2.161-4.817-4.817-4.817
			c-0.498,0-1.187,0.075-1.853,0.148c-1.731,0.187-2.68,0.29-3.39-0.347c-0.344-0.309-0.541-0.749-0.541-1.209
			C1.225,12.512,13.737,0,29.708,0C45.68,0,58.192,12.512,58.192,28.483c0,0.465-0.201,0.91-0.548,1.222
			c-0.729,0.651-1.709,0.541-3.489,0.343c-0.69-0.077-1.404-0.157-1.92-0.157c-2.657,0-4.817,2.161-4.817,4.817
			C47.418,35.537,46.746,36.208,45.918,36.208z"/>
		<path id="path-3_22_" d="M45.868,35.815c-0.781,0-1.439-0.605-1.494-1.396c-0.174-2.513-2.281-4.482-4.799-4.482
			c-1.492,0-2.876,0.681-3.799,1.866l-1.185,1.521l-1.183-1.521c-0.922-1.186-2.306-1.866-3.798-1.866
			c-1.493,0-2.877,0.68-3.8,1.866l-1.183,1.521l-1.184-1.521c-0.923-1.185-2.308-1.866-3.8-1.866c-2.497,0-4.604,1.951-4.797,4.441
			c-0.064,0.826-0.808,1.44-1.61,1.379c-0.827-0.063-1.445-0.785-1.38-1.611c0.312-4.042,3.732-7.209,7.787-7.209
			c1.848,0,3.595,0.641,4.983,1.798c1.388-1.157,3.134-1.798,4.984-1.798c1.848,0,3.594,0.641,4.982,1.798
			c1.389-1.157,3.135-1.798,4.983-1.798c4.088,0,7.51,3.196,7.791,7.275c0.058,0.827-0.566,1.543-1.392,1.6
			C45.939,35.814,45.904,35.815,45.868,35.815z"/>
		<path id="path-4_20_" d="M32.192,62.916c-2.871,0-4.877-1.816-4.877-4.417V28.29c0-0.828,0.672-1.5,1.5-1.5
			c0.828,0,1.5,0.672,1.5,1.5v30.209c0,1.233,1.176,1.417,1.877,1.417c1.138,0,1.904-1.07,1.904-2.069c0-0.828,0.672-1.5,1.5-1.5
			s1.5,0.672,1.5,1.5C37.096,60.285,35.221,62.916,32.192,62.916z"/>
		<path id="path-5_18_" d="M45.871,34.622c-0.027,0-0.055-0.001-0.084-0.002c-0.826-0.046-1.46-0.754-1.415-1.58
			c0.014-0.244,1.139-24.404-15.161-30.125c-0.781-0.274-1.192-1.13-0.918-1.912c0.276-0.781,1.129-1.193,1.912-0.918
			C48.638,6.554,47.429,32.12,47.368,33.206C47.323,34.004,46.662,34.622,45.871,34.622z"/>
		<path id="path-6_17_" d="M13.377,34.622c-0.791,0-1.452-0.618-1.497-1.416C11.82,32.12,10.611,6.554,29.043,0.085
			c0.784-0.275,1.638,0.137,1.912,0.918c0.275,0.782-0.136,1.638-0.918,1.912C13.738,8.636,14.863,32.796,14.876,33.04
			c0.045,0.826-0.589,1.534-1.415,1.58C13.433,34.621,13.405,34.622,13.377,34.622z"/>
		<path id="path-7_13_" d="M45.815,44.79c-0.828,0-1.5-0.671-1.5-1.5v-8c0-0.828,0.672-1.5,1.5-1.5c0.828,0,1.5,0.672,1.5,1.5v8
			C47.315,44.119,46.643,44.79,45.815,44.79z"/>
	</g>
</g>
<g>
</g>
<g>
</g>
<g>
</g>
<g>
</g>
<g>
</g>
<g>
</g>
<g>
</g>
<g>
</g>
<g>
</g>
<g>
</g>
<g>
</g>
<g>
</g>
<g>
</g>
<g>
</g>
<g>
</g>
</svg>
