<?xml version="1.0" encoding="iso-8859-1"?>
<!-- Generator: Adobe Illustrator 19.1.0, SVG Export Plug-In . SVG Version: 6.00 Build 0)  -->
<svg version="1.1" id="Capa_1" xmlns="http://www.w3.org/2000/svg" xmlns:xlink="http://www.w3.org/1999/xlink" x="0px" y="0px"
	 viewBox="0 0 62.999 62.999" style="enable-background:new 0 0 62.999 62.999;" xml:space="preserve">
<g>
	<g id="group-21svg">
		<path id="path-1_12_" style="fill:#53ECF4;" d="M43.425,51.886c-4.01,0.001-8.48-1.269-13.257-4.691
			C13.939,35.571,3.036,46.544,2.58,47.017c-0.576,0.597-1.525,0.613-2.121,0.038s-0.613-1.525-0.039-2.121
			C0.55,44.8,13.6,31.639,31.915,44.756c16.07,11.508,27.871-4.529,28.367-5.217c0.486-0.674,1.423-0.825,2.093-0.343
			c0.673,0.483,0.826,1.421,0.343,2.093C62.615,41.433,54.925,51.885,43.425,51.886z"/>
		<path id="path-2_12_" style="fill:#53ECF4;" d="M43.425,61.043c-4.01,0.001-8.48-1.269-13.257-4.69
			C14.006,44.778,3.035,55.706,2.577,56.178c-0.579,0.593-1.527,0.606-2.12,0.03c-0.593-0.575-0.61-1.521-0.037-2.116
			c0.13-0.135,13.18-13.295,31.495-0.178c16.074,11.51,27.871-4.529,28.367-5.218c0.486-0.673,1.423-0.824,2.093-0.342
			c0.673,0.483,0.826,1.42,0.343,2.093C62.615,50.59,54.925,61.042,43.425,61.043z"/>
		<path id="path-3_11_" style="fill:#53ECF4;" d="M43.425,42.442c-4.01,0-8.48-1.27-13.257-4.692
			C13.939,26.126,3.036,37.1,2.58,37.572c-0.576,0.597-1.525,0.614-2.121,0.039s-0.613-1.525-0.039-2.121
			c0.13-0.135,13.18-13.295,31.495-0.178c16.07,11.507,27.871-4.529,28.367-5.217c0.486-0.674,1.423-0.825,2.093-0.344
			c0.673,0.484,0.826,1.421,0.343,2.094C62.615,31.988,54.925,42.44,43.425,42.442z"/>
		<path id="path-4_9_" d="M52.979,7.486c-0.207,0-0.417-0.044-0.618-0.134c-0.755-0.342-1.089-1.231-0.747-1.986l1.145-2.528
			c0.342-0.754,1.23-1.089,1.985-0.747c0.755,0.342,1.089,1.231,0.748,1.986l-1.146,2.527C54.095,7.158,53.549,7.486,52.979,7.486z"
			/>
		<path id="path-5_8_" d="M42.963,7.486c-0.207,0-0.417-0.044-0.618-0.134c-0.754-0.342-1.089-1.23-0.747-1.985l1.144-2.528
			c0.342-0.755,1.229-1.089,1.986-0.748c0.754,0.342,1.089,1.23,0.747,1.985L44.33,6.604C44.079,7.158,43.534,7.486,42.963,7.486z"
			/>
		<path id="path-6_7_" d="M32.948,7.486c-0.207,0-0.417-0.044-0.619-0.134c-0.754-0.342-1.089-1.23-0.747-1.985l1.145-2.528
			c0.342-0.755,1.229-1.089,1.985-0.748c0.754,0.342,1.089,1.23,0.747,1.985l-1.144,2.528C34.063,7.158,33.519,7.486,32.948,7.486z"
			/>
		<path id="path-7_7_" d="M22.931,7.486c-0.207,0-0.417-0.044-0.618-0.134c-0.754-0.342-1.089-1.23-0.747-1.985l1.144-2.528
			c0.343-0.755,1.229-1.089,1.986-0.748c0.753,0.342,1.088,1.23,0.747,1.985l-1.145,2.528C24.047,7.158,23.502,7.486,22.931,7.486z"
			/>
		<path id="path-8_7_" d="M12.915,7.486c-0.207,0-0.417-0.044-0.618-0.134c-0.754-0.342-1.089-1.23-0.747-1.985l1.145-2.528
			c0.342-0.755,1.228-1.089,1.985-0.748c0.754,0.342,1.089,1.23,0.747,1.985l-1.145,2.528C14.032,7.158,13.487,7.486,12.915,7.486z"
			/>
		<path id="path-9_7_" d="M44.965,17.788c-0.207,0-0.417-0.043-0.618-0.134c-0.755-0.342-1.089-1.231-0.747-1.986l1.145-2.527
			c0.342-0.755,1.23-1.09,1.986-0.747c0.755,0.341,1.089,1.23,0.747,1.985l-1.146,2.528C46.082,17.46,45.536,17.788,44.965,17.788z"
			/>
		<path id="path-10_7_" d="M34.95,17.788c-0.207,0-0.417-0.043-0.618-0.134c-0.754-0.341-1.089-1.23-0.747-1.985l1.145-2.528
			c0.342-0.754,1.228-1.089,1.985-0.748c0.754,0.342,1.089,1.231,0.747,1.985l-1.144,2.528C36.067,17.46,35.521,17.788,34.95,17.788
			z"/>
		<path id="path-11_7_" d="M24.935,17.788c-0.207,0-0.417-0.043-0.618-0.134c-0.754-0.341-1.089-1.23-0.747-1.985l1.144-2.528
			c0.342-0.754,1.23-1.089,1.985-0.748c0.754,0.342,1.089,1.231,0.748,1.985l-1.145,2.528C26.051,17.46,25.506,17.788,24.935,17.788
			z"/>
		<path id="path-12_7_" d="M14.918,17.788c-0.207,0-0.417-0.043-0.618-0.134c-0.754-0.341-1.089-1.23-0.747-1.985l1.145-2.528
			c0.341-0.754,1.228-1.089,1.985-0.748c0.754,0.342,1.089,1.231,0.747,1.985l-1.145,2.528
			C16.034,17.46,15.489,17.788,14.918,17.788z"/>
		<path id="path-13_6_" d="M35.809,26.946c-0.207,0-0.417-0.044-0.618-0.134c-0.754-0.342-1.089-1.231-0.747-1.986l1.144-2.527
			c0.342-0.756,1.23-1.09,1.985-0.748c0.754,0.342,1.089,1.23,0.748,1.985l-1.145,2.527C36.924,26.618,36.38,26.946,35.809,26.946z"
			/>
		<path id="path-14_6_" d="M25.793,26.946c-0.207,0-0.417-0.044-0.618-0.134c-0.754-0.342-1.089-1.231-0.747-1.986l1.145-2.527
			c0.341-0.756,1.229-1.09,1.985-0.748c0.754,0.342,1.089,1.23,0.747,1.985l-1.145,2.527C26.909,26.618,26.365,26.946,25.793,26.946
			z"/>
		<path id="path-15_5_" d="M15.777,26.946c-0.207,0-0.417-0.044-0.619-0.134c-0.753-0.342-1.088-1.231-0.747-1.986l1.145-2.527
			c0.342-0.756,1.229-1.09,1.985-0.748c0.754,0.342,1.089,1.23,0.747,1.985l-1.144,2.527C16.892,26.618,16.347,26.946,15.777,26.946
			z"/>
	</g>
</g>
<g>
</g>
<g>
</g>
<g>
</g>
<g>
</g>
<g>
</g>
<g>
</g>
<g>
</g>
<g>
</g>
<g>
</g>
<g>
</g>
<g>
</g>
<g>
</g>
<g>
</g>
<g>
</g>
<g>
</g>
</svg>
