<?xml version="1.0" encoding="iso-8859-1"?>
<!-- Generator: Adobe Illustrator 19.1.0, SVG Export Plug-In . SVG Version: 6.00 Build 0)  -->
<svg version="1.1" id="Capa_1" xmlns="http://www.w3.org/2000/svg" xmlns:xlink="http://www.w3.org/1999/xlink" x="0px" y="0px"
	 viewBox="0 0 63 63" style="enable-background:new 0 0 63 63;" xml:space="preserve">
<g>
	<g id="group-17svg">
		<path id="path-1_7_" d="M60.798,48.994c-0.001,0-0.003,0-0.004,0L18.95,49.005C8.763,48.984,0.265,41.659,0.007,32.602
			c-0.143-4.994,1.873-10.643,4.905-13.623c3.219-3.167,7.468-4.985,11.978-4.985c0.05,0,0.098,0,0.147,0
			c4.565,0,8.841,1.962,12.043,5.217c2.617,2.661,4.041,6.237,4.008,9.969c-0.032,3.732-1.515,7.256-4.176,9.873
			c-4.415,4.342-11.62,4.375-16.056,0.055c-2.067-2.012-3.056-4.869-2.713-7.85c0.422-3.669,2.505-6.494,5.57-7.563
			c2.876-1.002,5.998-0.286,8.151,1.866c0.945,0.945,1.526,2.175,1.679,3.556c0.351,3.167-0.859,5.733-3.237,6.864
			c-2.183,1.036-4.788,0.577-6.483-1.147c-0.581-0.591-0.574-1.54,0.017-2.121c0.591-0.579,1.542-0.573,2.121,0.018
			c0.787,0.799,2.043,1.023,3.057,0.54c1.188-0.564,1.75-1.958,1.543-3.823c-0.077-0.696-0.359-1.306-0.818-1.764
			c-1.332-1.331-3.264-1.773-5.041-1.153c-1.983,0.692-3.286,2.542-3.579,5.077c-0.236,2.05,0.429,4.006,1.825,5.364
			c3.279,3.191,8.598,3.177,11.86-0.031c2.09-2.055,3.255-4.801,3.28-7.731c0.026-2.931-1.092-5.695-3.147-7.785
			c-2.64-2.683-6.166-4.179-9.929-4.21c-3.75-0.016-7.314,1.404-9.997,4.044c-2.442,2.401-4.129,7.161-4.01,11.318
			c0.239,8.35,8.466,13.534,15.951,13.55l41.846,0.111c0.828,0.002,1.498,0.554,1.496,1.382
			C62.296,48.447,61.624,48.994,60.798,48.994z"/>
		<path id="path-2_7_" style="fill:#53ECF4;" d="M32.147,43.994c-0.827,0-1.498-0.744-1.5-1.571
			c-0.002-0.828,0.668-1.539,1.496-1.541l20.713-0.074c3.567-0.007,7.038-3.443,7.141-7.059c0.053-1.837-0.703-4.008-1.758-5.046
			c-1.185-1.165-2.75-1.804-4.411-1.787c-1.662,0.014-3.217,0.673-4.381,1.857c-0.875,0.89-1.352,2.067-1.341,3.315
			c0.011,1.248,0.507,2.418,1.397,3.293c1.325,1.301,3.482,1.306,4.812,0.012c0.52-0.507,0.768-1.245,0.679-2.025
			c-0.112-0.969-0.562-1.639-1.269-1.885c-0.602-0.209-1.257-0.061-1.71,0.391c-0.586,0.586-1.535,0.586-2.121,0
			c-0.586-0.586-0.586-1.535,0-2.121c1.272-1.273,3.122-1.695,4.818-1.103c1.8,0.628,3.019,2.263,3.262,4.375
			c0.196,1.711-0.374,3.357-1.567,4.518c-2.489,2.422-6.529,2.413-9.007-0.023c-1.462-1.437-2.276-3.358-2.294-5.407
			c-0.018-2.05,0.765-3.944,2.202-5.405c1.726-1.756,4.032-2.714,6.494-2.714c0.027,0,0.053,0,0.079,0
			c2.433,0,4.725,0.897,6.461,2.605c1.639,1.612,2.731,4.58,2.654,7.247c-0.149,5.204-4.979,10.017-10.133,10.028l-20.712,0.12
			C32.15,43.994,32.148,43.994,32.147,43.994z"/>
	</g>
</g>
<g>
</g>
<g>
</g>
<g>
</g>
<g>
</g>
<g>
</g>
<g>
</g>
<g>
</g>
<g>
</g>
<g>
</g>
<g>
</g>
<g>
</g>
<g>
</g>
<g>
</g>
<g>
</g>
<g>
</g>
</svg>
