<?xml version="1.0" encoding="iso-8859-1"?>
<!-- Generator: Adobe Illustrator 19.1.0, SVG Export Plug-In . SVG Version: 6.00 Build 0)  -->
<svg version="1.1" id="Capa_1" xmlns="http://www.w3.org/2000/svg" xmlns:xlink="http://www.w3.org/1999/xlink" x="0px" y="0px"
	 viewBox="0 0 63 63" style="enable-background:new 0 0 63 63;" xml:space="preserve">
<g>
	<g id="group-23svg">
		<path id="path-1_14_" style="fill:#53ECF4;" d="M43.426,52.351c-4.01,0.001-8.481-1.269-13.258-4.691
			C13.937,36.035,3.035,47.009,2.579,47.482c-0.575,0.597-1.524,0.614-2.121,0.038c-0.596-0.574-0.613-1.524-0.038-2.12
			c0.129-0.135,13.18-13.296,31.495-0.179c16.07,11.51,27.872-4.529,28.366-5.217c0.484-0.672,1.421-0.826,2.094-0.343
			c0.672,0.483,0.826,1.421,0.343,2.093C62.615,41.897,54.925,52.35,43.426,52.351z"/>
		<path id="path-2_14_" style="fill:#53ECF4;" d="M43.426,61.509c-4.01,0-8.481-1.27-13.258-4.691
			C13.937,45.192,3.035,56.166,2.579,56.64c-0.575,0.597-1.524,0.613-2.121,0.038c-0.596-0.575-0.613-1.524-0.038-2.121
			c0.129-0.134,13.18-13.295,31.495-0.178c16.07,11.51,27.872-4.53,28.366-5.218c0.484-0.672,1.421-0.826,2.094-0.343
			c0.672,0.484,0.826,1.421,0.343,2.094C62.615,51.055,54.925,61.508,43.426,61.509z"/>
		<path id="path-3_13_" style="fill:#53ECF4;" d="M43.426,42.907c-4.01,0.001-8.481-1.27-13.258-4.691
			C13.937,26.59,3.035,37.564,2.579,38.037c-0.575,0.598-1.524,0.614-2.121,0.039c-0.596-0.575-0.613-1.524-0.038-2.121
			c0.129-0.135,13.18-13.296,31.495-0.178c16.07,11.51,27.872-4.529,28.366-5.218c0.484-0.671,1.421-0.826,2.094-0.342
			c0.672,0.483,0.826,1.42,0.343,2.093C62.615,32.453,54.925,42.906,43.426,42.907z"/>
		<path id="path-4_11_" d="M20.299,25.587c-0.826,0-1.498-0.425-1.5-1.252c-0.002-0.829,0.668-1.38,1.496-1.382l26.414-0.009
			c4.755-0.01,9.38-4.543,9.517-9.361c0.07-2.444-0.947-5.324-2.365-6.719c-3.279-3.224-8.57-3.173-11.795,0.106
			c-2.463,2.505-2.429,6.552,0.077,9.016c1.845,1.815,4.857,1.825,6.712,0.019c0.757-0.737,1.117-1.802,0.988-2.926
			c-0.159-1.38-0.848-2.38-1.891-2.744c-0.92-0.322-1.92-0.092-2.609,0.597c-0.586,0.585-1.535,0.585-2.121-0.001
			c-0.586-0.586-0.586-1.535,0-2.121c1.511-1.509,3.702-2.011,5.718-1.308c2.14,0.747,3.592,2.704,3.883,5.236
			c0.237,2.053-0.447,4.028-1.875,5.419c-3.016,2.934-7.909,2.921-10.909-0.028c-3.685-3.625-3.735-9.571-0.112-13.255
			c4.384-4.458,11.578-4.519,16.037-0.133c2.015,1.98,3.355,5.664,3.261,8.959c-0.183,6.427-6.146,12.047-12.509,12.061
			l-26.413-0.174C20.302,25.587,20.301,25.587,20.299,25.587z"/>
	</g>
</g>
<g>
</g>
<g>
</g>
<g>
</g>
<g>
</g>
<g>
</g>
<g>
</g>
<g>
</g>
<g>
</g>
<g>
</g>
<g>
</g>
<g>
</g>
<g>
</g>
<g>
</g>
<g>
</g>
<g>
</g>
</svg>
