<?xml version="1.0" encoding="iso-8859-1"?>
<!-- Generator: Adobe Illustrator 19.1.0, SVG Export Plug-In . SVG Version: 6.00 Build 0)  -->
<svg version="1.1" id="Capa_1" xmlns="http://www.w3.org/2000/svg" xmlns:xlink="http://www.w3.org/1999/xlink" x="0px" y="0px"
	 viewBox="0 0 64.5 64.5" style="enable-background:new 0 0 64.5 64.5;" xml:space="preserve">
<g>
	<g id="group-16svg">
		<path id="path-1_6_" style="fill:#53ECF4;" d="M59.383,49.396c3.223-3.097,5.054-7.303,5.116-12.344
			c0.094-7.693-4.904-14.572-12.426-16.186C45.636,19.484,39.655,21.849,36,26.28c-1.643-0.698-3.451-1.11-5.349-1.11
			c-5.809,0-10.762,3.61-12.754,8.713c-2.518-0.57-5.379-0.325-8.434,2.597c-1.889,1.806-3.127,4.234-3.116,6.847
			c0.005,1.449,0.337,2.769,0.926,3.968l0,0"/>
		<path id="path-2_6_" d="M54.537,47.019c-0.394,0-0.787-0.155-1.082-0.461c-0.574-0.598-0.555-1.547,0.043-2.121
			c2.99-2.873,4.6-6.774,4.655-11.28c0.088-7.216-4.535-13.262-11.241-14.702c-5.617-1.205-11.074,0.627-14.601,4.902
			c-0.423,0.514-1.133,0.686-1.743,0.427c-1.547-0.657-3.15-0.991-4.764-0.991c-5.058,0-9.516,3.045-11.355,7.758
			c-0.27,0.692-1.002,1.083-1.729,0.918c-1.787-0.405-4.205-0.518-7.067,2.219C3.934,35.331,2.992,37.376,3,39.444
			c0.005,1.163,0.265,2.278,0.773,3.313c0.365,0.744,0.059,1.642-0.685,2.008c-0.742,0.365-1.642,0.059-2.007-0.685
			C0.37,42.633,0.007,41.077,0,39.456c-0.011-2.9,1.26-5.719,3.58-7.937c2.617-2.502,5.428-3.553,8.567-3.188
			c2.532-5.226,7.768-8.538,13.657-8.538c1.663,0,3.312,0.281,4.914,0.835c4.215-4.5,10.563-6.45,16.824-5.106
			c7.99,1.716,13.715,9.147,13.611,17.671c-0.065,5.329-1.994,9.965-5.577,13.408C55.285,46.88,54.911,47.019,54.537,47.019z"/>
		<path id="path-3_6_" d="M13.91,47.263c-0.826,0-1.498-0.587-1.5-1.414c-0.001-0.829,0.668-1.461,1.497-1.464l24.471-0.044
			c4.351-0.009,8.583-4.175,8.708-8.583c0.064-2.237-0.864-4.88-2.158-6.152c-1.451-1.428-3.372-2.196-5.405-2.185
			c-2.035,0.017-3.941,0.827-5.368,2.278c-1.085,1.103-1.675,2.564-1.662,4.111c0.014,1.547,0.628,2.998,1.732,4.083
			c1.67,1.641,4.39,1.648,6.065,0.016c0.677-0.658,0.998-1.613,0.883-2.619c-0.142-1.236-0.754-2.13-1.679-2.453
			c-0.813-0.283-1.695-0.081-2.303,0.527c-0.586,0.586-1.535,0.586-2.121,0c-0.586-0.586-0.586-1.536,0-2.121
			c1.43-1.43,3.504-1.904,5.412-1.238c2.024,0.706,3.397,2.554,3.671,4.942c0.223,1.937-0.423,3.8-1.77,5.112
			c-2.837,2.761-7.44,2.748-10.261-0.026c-1.675-1.648-2.608-3.848-2.629-6.197c-0.02-2.348,0.876-4.564,2.523-6.239
			c1.989-2.022,4.646-3.149,7.482-3.173c2.859-0.027,5.511,1.059,7.533,3.047c1.886,1.855,3.142,5.302,3.054,8.383
			c-0.172,6.01-5.748,11.414-11.7,11.426l-24.471-0.017C13.913,47.263,13.912,47.263,13.91,47.263z"/>
	</g>
</g>
<g>
</g>
<g>
</g>
<g>
</g>
<g>
</g>
<g>
</g>
<g>
</g>
<g>
</g>
<g>
</g>
<g>
</g>
<g>
</g>
<g>
</g>
<g>
</g>
<g>
</g>
<g>
</g>
<g>
</g>
</svg>
