<?xml version="1.0" encoding="iso-8859-1"?>
<!-- Generator: Adobe Illustrator 19.1.0, SVG Export Plug-In . SVG Version: 6.00 Build 0)  -->
<svg version="1.1" id="Capa_1" xmlns="http://www.w3.org/2000/svg" xmlns:xlink="http://www.w3.org/1999/xlink" x="0px" y="0px"
	 viewBox="0 0 62.999 62.999" style="enable-background:new 0 0 62.999 62.999;" xml:space="preserve">
<g>
	<g id="group-18svg">
		<path id="path-1_8_" d="M60.798,38.683c-0.001,0-0.003,0-0.004,0l-41.845,0.066C8.763,38.728,0.265,31.432,0.007,22.374
			C-0.137,17.381,1.88,11.69,4.911,8.709c3.22-3.166,7.469-5.026,11.979-5.026c0.049,0,0.097,0,0.146,0
			c4.566,0,8.842,2.018,12.043,5.272c2.617,2.662,4.041,6.266,4.009,9.997c-0.032,3.732-1.516,7.27-4.177,9.887
			c-4.415,4.342-11.619,4.382-16.055,0.062c-2.068-2.012-3.056-4.865-2.713-7.846c0.421-3.669,2.504-6.493,5.57-7.562
			c2.876-1.001,5.997-0.285,8.15,1.867c0.946,0.945,1.527,2.176,1.68,3.556c0.352,3.167-0.858,5.734-3.236,6.864
			c-2.185,1.038-4.79,0.578-6.485-1.146c-0.581-0.591-0.573-1.54,0.018-2.12c0.591-0.581,1.542-0.574,2.121,0.018
			c0.787,0.799,2.043,1.021,3.058,0.539c1.187-0.564,1.749-1.958,1.542-3.823c-0.078-0.696-0.36-1.306-0.819-1.764
			c-1.332-1.331-3.263-1.773-5.041-1.153c-1.982,0.691-3.286,2.541-3.578,5.077c-0.236,2.05,0.429,4.005,1.824,5.364
			c3.281,3.191,8.599,3.177,11.861-0.031c2.089-2.055,3.255-4.801,3.28-7.731c0.025-2.931-1.093-5.695-3.148-7.785
			c-2.639-2.684-6.166-4.179-9.928-4.21c-3.783-0.014-7.314,1.405-9.997,4.043c-2.443,2.402-4.129,7.163-4.01,11.319
			c0.238,8.35,8.466,13.534,15.951,13.55l41.846,0.111c0.828,0.002,1.498,0.498,1.496,1.327
			C62.296,38.192,61.624,38.683,60.798,38.683z"/>
		<path id="path-2_8_" style="fill:#53ECF4;" d="M32.147,33.683c-0.828,0-1.499-0.689-1.501-1.516
			c-0.001-0.828,0.668-1.511,1.497-1.513l20.713-0.06c3.567-0.007,7.038-3.436,7.141-7.052c0.053-1.837-0.703-4.005-1.759-5.043
			c-1.184-1.164-2.771-1.806-4.411-1.784c-1.661,0.013-3.217,0.673-4.381,1.857c-0.875,0.89-1.351,2.068-1.341,3.316
			c0.011,1.248,0.507,2.418,1.398,3.293c1.324,1.301,3.481,1.307,4.811,0.013c0.521-0.508,0.769-1.246,0.679-2.027
			c-0.111-0.968-0.561-1.638-1.268-1.884c-0.602-0.208-1.258-0.061-1.71,0.392c-0.586,0.585-1.536,0.585-2.121-0.001
			c-0.586-0.586-0.586-1.535,0-2.121c1.272-1.272,3.121-1.695,4.818-1.103c1.8,0.628,3.018,2.263,3.262,4.375
			c0.196,1.71-0.374,3.357-1.568,4.518c-2.488,2.422-6.528,2.413-9.007-0.023c-1.462-1.437-2.276-3.357-2.293-5.407
			c-0.018-2.05,0.764-3.999,2.202-5.461c1.725-1.755,4.032-2.769,6.494-2.769c0.026,0,0.052,0,0.079,0
			c2.432,0,4.724,0.953,6.461,2.661c1.639,1.612,2.73,4.608,2.653,7.274c-0.148,5.204-4.978,9.976-10.133,9.987L32.15,33.683
			C32.149,33.683,32.147,33.683,32.147,33.683z"/>
		<path id="path-3_7_" d="M14.59,51.225c0-0.894,0.724-1.618,1.618-1.618c0.894,0,1.618,0.724,1.618,1.618s-0.724,1.618-1.618,1.618
			C15.314,52.843,14.59,52.119,14.59,51.225z"/>
		<path id="path-4_5_" d="M22.573,51.225c0-0.894,0.725-1.618,1.618-1.618c0.894,0,1.619,0.724,1.619,1.618
			s-0.725,1.618-1.619,1.618C23.298,52.843,22.573,52.119,22.573,51.225z"/>
		<path id="path-5_5_" d="M30.772,51.225c0-0.894,0.724-1.618,1.619-1.618c0.893,0,1.617,0.724,1.617,1.618
			s-0.724,1.618-1.617,1.618C31.496,52.843,30.772,52.119,30.772,51.225z"/>
		<path id="path-6_5_" d="M38.539,51.225c0-0.894,0.725-1.618,1.618-1.618c0.894,0,1.618,0.724,1.618,1.618
			s-0.724,1.618-1.618,1.618C39.264,52.843,38.539,52.119,38.539,51.225z"/>
		<path id="path-7_5_" d="M46.523,51.225c0-0.894,0.724-1.618,1.618-1.618c0.893,0,1.618,0.724,1.618,1.618
			s-0.725,1.618-1.618,1.618C47.247,52.843,46.523,52.119,46.523,51.225z"/>
		<path id="path-8_5_" d="M8.117,57.698c0-0.894,0.725-1.619,1.618-1.619c0.894,0,1.619,0.725,1.619,1.619s-0.725,1.618-1.619,1.618
			C8.842,59.316,8.117,58.592,8.117,57.698z"/>
		<path id="path-9_5_" d="M16.101,57.698c0-0.894,0.724-1.619,1.618-1.619c0.893,0,1.618,0.725,1.618,1.619
			s-0.725,1.618-1.618,1.618C16.825,59.316,16.101,58.592,16.101,57.698z"/>
		<path id="path-10_5_" d="M24.299,57.698c0-0.894,0.724-1.619,1.618-1.619c0.895,0,1.618,0.725,1.618,1.619
			s-0.723,1.618-1.618,1.618C25.023,59.316,24.299,58.592,24.299,57.698z"/>
		<path id="path-11_5_" d="M32.066,57.698c0-0.894,0.725-1.619,1.619-1.619c0.893,0,1.618,0.725,1.618,1.619
			s-0.725,1.618-1.618,1.618C32.791,59.316,32.066,58.592,32.066,57.698z"/>
		<path id="path-12_5_" d="M40.05,57.698c0-0.894,0.724-1.619,1.618-1.619s1.618,0.725,1.618,1.619s-0.724,1.618-1.618,1.618
			S40.05,58.592,40.05,57.698z"/>
		<path id="path-13_4_" d="M19.984,44.752c0-0.893,0.725-1.618,1.619-1.618c0.893,0,1.618,0.725,1.618,1.618
			c0,0.894-0.725,1.618-1.618,1.618C20.709,46.37,19.984,45.646,19.984,44.752z"/>
		<path id="path-14_4_" d="M27.967,44.752c0-0.893,0.724-1.618,1.618-1.618c0.894,0,1.618,0.725,1.618,1.618
			c0,0.894-0.724,1.618-1.618,1.618C28.691,46.37,27.967,45.646,27.967,44.752z"/>
		<path id="path-15_4_" d="M36.166,44.752c0-0.893,0.725-1.618,1.618-1.618c0.894,0,1.618,0.725,1.618,1.618
			c0,0.894-0.724,1.618-1.618,1.618C36.891,46.37,36.166,45.646,36.166,44.752z"/>
		<path id="path-16_4_" d="M43.934,44.752c0-0.893,0.724-1.618,1.618-1.618c0.893,0,1.618,0.725,1.618,1.618
			c0,0.894-0.725,1.618-1.618,1.618C44.658,46.37,43.934,45.646,43.934,44.752z"/>
		<path id="path-17_3_" d="M51.916,44.752c0-0.893,0.725-1.618,1.618-1.618c0.894,0,1.618,0.725,1.618,1.618
			c0,0.894-0.724,1.618-1.618,1.618C52.641,46.37,51.916,45.646,51.916,44.752z"/>
	</g>
</g>
<g>
</g>
<g>
</g>
<g>
</g>
<g>
</g>
<g>
</g>
<g>
</g>
<g>
</g>
<g>
</g>
<g>
</g>
<g>
</g>
<g>
</g>
<g>
</g>
<g>
</g>
<g>
</g>
<g>
</g>
</svg>
