<?xml version="1.0" encoding="iso-8859-1"?>
<!-- Generator: Adobe Illustrator 19.1.0, SVG Export Plug-In . SVG Version: 6.00 Build 0)  -->
<svg version="1.1" id="Capa_1" xmlns="http://www.w3.org/2000/svg" xmlns:xlink="http://www.w3.org/1999/xlink" x="0px" y="0px"
	 viewBox="0 0 63 63" style="enable-background:new 0 0 63 63;" xml:space="preserve">
<g>
	<g id="group-24svg">
		<path id="path-1_15_" d="M47.915,20.266c-0.384,0-0.768-0.147-1.061-0.44c-0.586-0.585-0.586-1.535,0-2.121l5.457-5.457
			c0.586-0.586,1.535-0.585,2.121,0c0.586,0.586,0.586,1.536,0,2.122l-5.456,5.456C48.683,20.118,48.299,20.266,47.915,20.266z"/>
		<path id="path-2_15_" d="M15.175,20.266c-0.384,0-0.768-0.147-1.061-0.44L8.657,14.37c-0.586-0.586-0.586-1.536,0-2.122
			c0.586-0.586,1.535-0.585,2.121,0l5.457,5.457c0.586,0.586,0.586,1.536,0,2.121C15.942,20.118,15.559,20.266,15.175,20.266z"/>
		<path id="path-3_14_" d="M61.5,33.791h-5c-0.829,0-1.5-0.671-1.5-1.5c0-0.829,0.671-1.5,1.5-1.5h5c0.829,0,1.5,0.671,1.5,1.5
			C63,33.119,62.329,33.791,61.5,33.791z"/>
		<path id="path-4_12_" d="M7.5,33.791h-6c-0.829,0-1.5-0.671-1.5-1.5c0-0.829,0.671-1.5,1.5-1.5h6c0.829,0,1.5,0.671,1.5,1.5
			C9,33.119,8.329,33.791,7.5,33.791z"/>
		<path id="path-5_10_" d="M31,14.291c-0.829,0-1.5-0.671-1.5-1.5v-10c0-0.829,0.671-1.5,1.5-1.5s1.5,0.671,1.5,1.5v10
			C32.5,13.62,31.829,14.291,31,14.291z"/>
		<path id="path-6_9_" style="fill:#FF917B;" d="M54.993,37.195c0-10.222-8.286-18.509-18.509-18.509
			c-10.221,0-18.508,8.287-18.508,18.509l0,0"/>
		<path id="path-7_9_" style="fill:#E56A77;" d="M34.115,37.393c0-4.451,3.609-8.059,8.059-8.059c4.451,0,8.059,3.608,8.059,8.059
			l0,0"/>
		<path id="path-8_9_" d="M49.993,36.695c-0.828,0-1.5-0.672-1.5-1.5c0-9.379-7.63-17.009-17.009-17.009
			c-9.378,0-17.008,7.63-17.008,17.009c0,0.828-0.671,1.5-1.5,1.5c-0.829,0-1.5-0.672-1.5-1.5c0-11.033,8.976-20.009,20.008-20.009
			c11.033,0,20.009,8.976,20.009,20.009C51.493,36.024,50.822,36.695,49.993,36.695z"/>
		<path id="path-9_9_" d="M45.233,36.893c-0.828,0-1.5-0.671-1.5-1.499c0-3.618-2.942-6.56-6.559-6.56
			c-3.616,0-6.559,2.942-6.559,6.56c0,0.828-0.671,1.499-1.5,1.499c-0.828,0-1.5-0.671-1.5-1.499c0-5.272,4.288-9.56,9.559-9.56
			s9.559,4.288,9.559,9.56C46.733,36.222,46.062,36.893,45.233,36.893z"/>
		<path id="path-10_9_" style="fill:#53ECF4;" d="M40.374,61.709c-3.649,0-7.719-1.156-12.066-4.27
			C13.811,47.057,3.971,56.844,3.56,57.265c-0.577,0.59-1.525,0.606-2.12,0.029c-0.593-0.575-0.61-1.521-0.036-2.116
			C1.521,55.056,13.401,43.075,30.055,55c14.361,10.286,24.989-4.067,25.435-4.684c0.485-0.671,1.423-0.822,2.093-0.339
			c0.672,0.484,0.825,1.419,0.342,2.092C57.831,52.2,50.837,61.708,40.374,61.709z"/>
		<path id="path-11_9_" style="fill:#53ECF4;" d="M40.374,53.174c-3.649,0-7.719-1.155-12.066-4.269
			C13.811,38.521,3.971,48.309,3.56,48.729c-0.577,0.591-1.525,0.607-2.12,0.03c-0.593-0.575-0.61-1.521-0.036-2.116
			c0.117-0.122,11.997-12.104,28.651-0.178c14.361,10.286,24.989-4.068,25.435-4.684c0.485-0.671,1.423-0.822,2.093-0.339
			c0.672,0.484,0.825,1.419,0.342,2.091C57.831,43.665,50.837,53.174,40.374,53.174z"/>
	</g>
</g>
<g>
</g>
<g>
</g>
<g>
</g>
<g>
</g>
<g>
</g>
<g>
</g>
<g>
</g>
<g>
</g>
<g>
</g>
<g>
</g>
<g>
</g>
<g>
</g>
<g>
</g>
<g>
</g>
<g>
</g>
</svg>
