<?xml version="1.0" encoding="iso-8859-1"?>
<!-- Generator: Adobe Illustrator 19.1.0, SVG Export Plug-In . SVG Version: 6.00 Build 0)  -->
<svg version="1.1" id="Capa_1" xmlns="http://www.w3.org/2000/svg" xmlns:xlink="http://www.w3.org/1999/xlink" x="0px" y="0px"
	 viewBox="0 0 64.899 64.899" style="enable-background:new 0 0 64.899 64.899;" xml:space="preserve">
<g>
	<g id="group-20svg">
		<path id="path-1_11_" style="fill:#8B71B5;" d="M36.628,18.748C32.235,14.354,31.086,7.955,33.159,2.5
			c-1.958,0.744-3.797,1.892-5.374,3.469c-5.97,5.97-5.97,15.651,0,21.621c5.971,5.971,15.652,5.971,21.621,0
			c1.578-1.577,2.726-3.416,3.47-5.374C47.421,24.289,41.022,23.141,36.628,18.748z"/>
		<path id="path-2_11_" style="fill:#53ECF4;" d="M44.375,55.742c-4.01,0.001-8.48-1.269-13.257-4.691
			C14.888,39.427,3.985,50.4,3.529,50.873c-0.576,0.597-1.524,0.613-2.121,0.038c-0.596-0.575-0.613-1.525-0.039-2.121
			c0.13-0.134,13.181-13.295,31.495-0.178c16.074,11.511,27.872-4.529,28.368-5.218c0.484-0.673,1.421-0.824,2.092-0.342
			c0.673,0.483,0.826,1.42,0.343,2.093C63.565,45.288,55.875,55.741,44.375,55.742z"/>
		<path id="path-3_10_" style="fill:#53ECF4;" d="M44.375,64.899c-4.01,0.001-8.48-1.269-13.257-4.691
			c-16.23-11.624-27.133-0.65-27.589-0.178c-0.576,0.597-1.524,0.614-2.121,0.039c-0.596-0.575-0.613-1.525-0.039-2.121
			c0.13-0.135,13.181-13.296,31.495-0.179c16.07,11.508,27.872-4.528,28.368-5.217c0.484-0.673,1.421-0.825,2.092-0.343
			c0.673,0.484,0.826,1.421,0.343,2.094C63.565,54.446,55.875,64.898,44.375,64.899z"/>
		<path id="path-4_8_" style="fill:#53ECF4;" d="M44.375,46.298c-4.01,0-8.48-1.27-13.257-4.692
			C14.954,30.032,3.985,40.96,3.526,41.431c-0.579,0.593-1.527,0.606-2.12,0.031c-0.593-0.575-0.61-1.521-0.037-2.116
			c0.13-0.135,13.181-13.295,31.495-0.178c16.074,11.51,27.872-4.53,28.368-5.218c0.484-0.673,1.421-0.824,2.092-0.343
			c0.673,0.483,0.826,1.421,0.343,2.094C63.565,35.844,55.875,46.296,44.375,46.298z"/>
		<path id="path-5_7_" d="M34.597,32.568c-4.486,0-8.701-1.747-11.872-4.917c-6.545-6.546-6.545-17.197,0-23.743
			c1.677-1.678,3.664-2.96,5.901-3.81c0.554-0.21,1.178-0.076,1.594,0.341c0.418,0.418,0.552,1.042,0.342,1.594
			c-1.929,5.073-0.702,10.825,3.127,14.654c2.598,2.598,6.054,4.029,9.733,4.029c1.69,0,3.347-0.303,4.921-0.902
			c0.554-0.209,1.177-0.076,1.594,0.342c0.418,0.417,0.551,1.041,0.341,1.593c-0.85,2.237-2.132,4.223-3.81,5.901
			C43.297,30.821,39.081,32.568,34.597,32.568z M26.859,4.369c-0.72,0.485-1.392,1.04-2.013,1.661
			c-5.375,5.376-5.375,14.123,0,19.499c2.604,2.605,6.067,4.039,9.751,4.039c3.682,0,7.145-1.434,9.75-4.039
			c0.62-0.62,1.174-1.292,1.66-2.01c-0.852,0.131-1.715,0.197-2.585,0.197c-4.48,0-8.689-1.743-11.854-4.908
			C27.745,14.986,26.052,9.591,26.859,4.369z"/>
	</g>
</g>
<g>
</g>
<g>
</g>
<g>
</g>
<g>
</g>
<g>
</g>
<g>
</g>
<g>
</g>
<g>
</g>
<g>
</g>
<g>
</g>
<g>
</g>
<g>
</g>
<g>
</g>
<g>
</g>
<g>
</g>
</svg>
