<?xml version="1.0" encoding="iso-8859-1"?>
<!-- Generator: Adobe Illustrator 19.1.0, SVG Export Plug-In . SVG Version: 6.00 Build 0)  -->
<svg version="1.1" id="Capa_1" xmlns="http://www.w3.org/2000/svg" xmlns:xlink="http://www.w3.org/1999/xlink" x="0px" y="0px"
	 viewBox="0 0 62.999 62.999" style="enable-background:new 0 0 62.999 62.999;" xml:space="preserve">
<g>
	<g id="group-19svg">
		<path id="path-1_9_" d="M60.799,36.028c-0.001,0-0.003,0-0.004,0l-41.846-0.265C8.763,35.742,0.265,28.279,0.007,19.222
			C-0.136,14.227,1.881,8.786,4.911,5.806c3.22-3.167,7.47-4.778,11.98-4.778c0.048,0,0.097,0,0.146,0
			c4.564,0,8.842,1.686,12.042,4.941c5.401,5.492,5.326,14.273-0.167,19.676c-4.416,4.342-11.618,4.32-16.056,0
			c-2.067-2.011-3.055-4.896-2.713-7.878c0.422-3.669,2.504-6.508,5.571-7.577c2.872-1.001,5.996-0.293,8.149,1.859
			c0.945,0.945,1.527,2.172,1.68,3.552c0.351,3.167-0.859,5.732-3.237,6.863c-2.184,1.038-4.79,0.577-6.484-1.147
			c-0.581-0.591-0.573-1.541,0.018-2.122c0.59-0.58,1.539-0.573,2.121,0.018c0.787,0.8,2.044,1.022,3.057,0.54
			c1.188-0.564,1.749-1.958,1.542-3.824c-0.076-0.695-0.359-1.305-0.818-1.763c-1.33-1.331-3.262-1.774-5.041-1.154
			c-1.982,0.692-3.286,2.542-3.577,5.077c-0.236,2.052,0.429,4.006,1.824,5.364c3.276,3.19,8.598,3.178,11.86-0.03
			c4.315-4.243,4.374-11.038,0.132-15.351c-2.638-2.683-6.165-4.044-9.927-4.044c-0.041,0-0.081,0-0.122,0
			c-3.718,0-7.221,1.267-9.876,3.878c-2.442,2.401-4.128,7.079-4.01,11.236c0.238,8.349,8.466,13.492,15.951,13.508l41.847,0.09
			c0.828,0.003,1.498,0.82,1.496,1.648C62.297,35.215,61.625,36.028,60.799,36.028z"/>
		<path id="path-2_9_" style="fill:#53ECF4;" d="M32.146,30.028c-0.827,0-1.498-0.52-1.5-1.347c-0.002-0.829,0.668-1.427,1.496-1.43
			l20.714-0.017c3.569-0.008,7.038-3.415,7.141-7.032c0.053-1.836-0.703-3.994-1.759-5.031c-1.184-1.165-2.732-1.81-4.411-1.78
			c-1.661,0.013-3.217,0.676-4.381,1.86c-1.806,1.837-1.781,4.803,0.057,6.61c1.323,1.301,3.48,1.308,4.811,0.013
			c0.521-0.507,0.769-1.245,0.679-2.025c-0.111-0.969-0.561-1.638-1.268-1.885c-0.604-0.21-1.259-0.06-1.711,0.392
			c-0.585,0.586-1.537,0.586-2.121-0.001c-0.585-0.586-0.585-1.536,0-2.121c1.275-1.272,3.124-1.694,4.82-1.102
			c1.799,0.627,3.017,2.263,3.26,4.374c0.197,1.711-0.374,3.358-1.567,4.519c-2.488,2.422-6.528,2.413-9.007-0.023
			c-3.016-2.968-3.057-8.02-0.091-11.036c1.725-1.755,4.032-2.938,6.494-2.938c0.026,0,0.052,0,0.079,0
			c2.432,0,4.724,1.121,6.461,2.829c1.638,1.612,2.73,4.691,2.653,7.358c-0.148,5.204-4.977,9.85-10.132,9.861L32.15,30.028
			C32.149,30.028,32.147,30.028,32.146,30.028z"/>
		<path id="path-3_8_" d="M50.549,43.631c-0.207,0-0.417-0.043-0.619-0.134c-0.753-0.342-1.088-1.231-0.747-1.985l1.08-2.382
			c0.341-0.755,1.228-1.09,1.985-0.748c0.754,0.342,1.089,1.23,0.747,1.985l-1.079,2.383C51.665,43.303,51.12,43.631,50.549,43.631z
			"/>
		<path id="path-4_6_" d="M41.109,43.631c-0.207,0-0.417-0.043-0.618-0.134c-0.754-0.342-1.089-1.231-0.747-1.985l1.079-2.382
			c0.343-0.755,1.229-1.09,1.985-0.748c0.754,0.342,1.089,1.23,0.748,1.985l-1.08,2.383C42.225,43.303,41.681,43.631,41.109,43.631z
			"/>
		<path id="path-5_6_" d="M31.67,43.631c-0.207,0-0.417-0.043-0.618-0.134c-0.754-0.342-1.089-1.231-0.747-1.985l1.079-2.382
			c0.341-0.755,1.229-1.09,1.985-0.748c0.754,0.342,1.089,1.23,0.747,1.985l-1.079,2.383C32.786,43.303,32.241,43.631,31.67,43.631z
			"/>
		<path id="path-6_6_" d="M22.23,43.631c-0.207,0-0.417-0.043-0.618-0.134c-0.754-0.342-1.089-1.231-0.747-1.985l1.079-2.382
			c0.342-0.755,1.23-1.09,1.986-0.748c0.753,0.342,1.088,1.23,0.747,1.985l-1.08,2.383C23.347,43.303,22.802,43.631,22.23,43.631z"
			/>
		<path id="path-7_6_" d="M12.792,43.631c-0.207,0-0.417-0.043-0.617-0.133c-0.755-0.342-1.09-1.231-0.748-1.986l1.078-2.382
			c0.341-0.755,1.232-1.089,1.984-0.748c0.755,0.342,1.09,1.23,0.748,1.985l-1.078,2.382C13.909,43.303,13.363,43.631,12.792,43.631
			z"/>
		<path id="path-8_6_" d="M42.998,53.34c-0.207,0-0.417-0.043-0.617-0.133c-0.755-0.342-1.09-1.231-0.748-1.986l1.078-2.382
			c0.341-0.755,1.231-1.089,1.984-0.749c0.755,0.342,1.09,1.231,0.748,1.986l-1.078,2.382C44.115,53.012,43.569,53.34,42.998,53.34z
			"/>
		<path id="path-9_6_" d="M33.558,53.34c-0.207,0-0.417-0.043-0.617-0.133c-0.755-0.342-1.09-1.231-0.748-1.986l1.078-2.382
			c0.341-0.755,1.233-1.089,1.985-0.749c0.755,0.342,1.09,1.231,0.748,1.986l-1.078,2.382C34.676,53.012,34.13,53.34,33.558,53.34z"
			/>
		<path id="path-10_6_" d="M24.119,53.34c-0.207,0-0.417-0.043-0.617-0.133c-0.755-0.342-1.09-1.231-0.748-1.986l1.078-2.382
			c0.341-0.755,1.23-1.089,1.984-0.749c0.755,0.342,1.09,1.231,0.748,1.986l-1.078,2.382C25.236,53.012,24.69,53.34,24.119,53.34z"
			/>
		<path id="path-11_6_" d="M14.68,53.34c-0.208,0-0.417-0.043-0.618-0.133c-0.755-0.342-1.089-1.231-0.748-1.986l1.078-2.382
			c0.341-0.755,1.232-1.089,1.985-0.749c0.755,0.342,1.09,1.231,0.748,1.986l-1.078,2.382C15.797,53.012,15.251,53.34,14.68,53.34z"
			/>
		<path id="path-12_6_" d="M34.367,61.97c-0.207,0-0.417-0.043-0.618-0.133c-0.754-0.342-1.089-1.231-0.747-1.986l1.079-2.382
			c0.342-0.755,1.228-1.089,1.985-0.748c0.754,0.342,1.089,1.231,0.747,1.986l-1.079,2.382C35.483,61.643,34.938,61.97,34.367,61.97
			z"/>
		<path id="path-13_5_" d="M24.928,61.97c-0.207,0-0.417-0.043-0.619-0.133c-0.753-0.342-1.088-1.231-0.747-1.986l1.079-2.382
			c0.342-0.755,1.229-1.089,1.986-0.748c0.754,0.342,1.089,1.231,0.747,1.986l-1.079,2.382C26.044,61.643,25.499,61.97,24.928,61.97
			z"/>
		<path id="path-14_5_" d="M15.488,61.97c-0.207,0-0.417-0.043-0.618-0.133c-0.754-0.342-1.089-1.231-0.747-1.986l1.079-2.382
			c0.342-0.755,1.229-1.089,1.985-0.748c0.754,0.342,1.089,1.231,0.747,1.986l-1.079,2.382C16.604,61.643,16.059,61.97,15.488,61.97
			z"/>
	</g>
</g>
<g>
</g>
<g>
</g>
<g>
</g>
<g>
</g>
<g>
</g>
<g>
</g>
<g>
</g>
<g>
</g>
<g>
</g>
<g>
</g>
<g>
</g>
<g>
</g>
<g>
</g>
<g>
</g>
<g>
</g>
</svg>
