<?xml version="1.0" encoding="iso-8859-1"?>
<!-- Generator: Adobe Illustrator 19.1.0, SVG Export Plug-In . SVG Version: 6.00 Build 0)  -->
<svg version="1.1" id="Capa_1" xmlns="http://www.w3.org/2000/svg" xmlns:xlink="http://www.w3.org/1999/xlink" x="0px" y="0px"
	 viewBox="0 0 64.888 64.888" style="enable-background:new 0 0 64.888 64.888;" xml:space="preserve">
<g>
	<g id="group-8svg">
		<path id="path-1_28_" style="fill:#FF917B;" d="M16.072,38.632c-0.585-0.215-1.686-2.689-1.686-2.689
			c-2.782-7.227,0.82-15.342,8.048-18.124c7.226-2.784,15.341,0.819,18.124,8.046L17.439,39.528L16.072,38.632z"/>
		<path id="path-2_28_" style="fill:#53ECF4;" d="M59.771,57.918c3.223-3.097,5.054-7.303,5.116-12.344
			c0.094-7.693-4.904-14.571-12.426-16.186c-6.438-1.382-12.419,0.983-16.073,5.414c-1.644-0.698-3.451-1.11-5.35-1.11
			c-5.808,0-10.76,3.61-12.753,8.713c-2.518-0.571-5.379-0.325-8.434,2.597c-1.89,1.806-3.127,4.234-3.116,6.847
			c0.004,1.449,0.337,2.769,0.926,3.968l0,0"/>
		<path id="path-3_26_" d="M14.298,56.408c-0.827,0-1.498-0.898-1.5-1.726c-0.002-0.828,0.668-1.616,1.496-1.619l24.472-0.122
			c4.35-0.009,8.583-4.214,8.709-8.622c0.063-2.238-0.865-4.899-2.159-6.172c-1.452-1.427-3.381-2.217-5.406-2.194
			c-2.034,0.017-3.94,0.822-5.367,2.273c-1.085,1.103-1.676,2.561-1.662,4.109c0.013,1.547,0.628,2.996,1.732,4.081
			c1.668,1.64,4.389,1.649,6.065,0.016c0.677-0.659,0.999-1.614,0.883-2.62c-0.143-1.236-0.754-2.13-1.679-2.452
			c-0.813-0.284-1.693-0.081-2.303,0.526c-0.586,0.586-1.535,0.586-2.121,0c-0.586-0.586-0.586-1.536,0-2.121
			c1.43-1.43,3.503-1.904,5.412-1.238c2.024,0.706,3.397,2.553,3.671,4.942c0.223,1.937-0.423,3.8-1.771,5.112
			c-2.834,2.761-7.438,2.748-10.26-0.027c-1.675-1.646-2.608-3.847-2.629-6.195c-0.02-2.349,0.876-4.566,2.524-6.241
			c1.988-2.022,4.644-3.148,7.48-3.172c2.875-0.014,5.512,1.059,7.534,3.047c1.886,1.854,3.142,5.302,3.054,8.382
			c-0.171,6.011-5.748,11.726-11.7,11.739l-24.471,0.294C14.301,56.408,14.299,56.408,14.298,56.408z"/>
		<path id="path-4_24_" d="M54.925,55.541c-0.394,0-0.787-0.155-1.082-0.461c-0.573-0.597-0.555-1.547,0.043-2.121
			c2.99-2.873,4.6-6.774,4.654-11.28c0.088-7.216-4.534-13.262-11.24-14.702c-5.619-1.206-11.074,0.627-14.601,4.902
			c-0.423,0.513-1.134,0.686-1.743,0.426c-1.548-0.656-3.15-0.99-4.763-0.99c-5.06,0-9.517,3.046-11.357,7.759
			c-0.269,0.692-1.011,1.08-1.728,0.917c-1.788-0.404-4.205-0.518-7.068,2.218c-1.719,1.644-2.661,3.689-2.652,5.757
			c0.005,1.163,0.265,2.277,0.773,3.313c0.366,0.743,0.059,1.642-0.685,2.007c-0.744,0.367-1.643,0.059-2.008-0.685
			c-0.71-1.446-1.073-3.001-1.08-4.623c-0.012-2.899,1.26-5.718,3.579-7.937c2.62-2.503,5.436-3.553,8.567-3.188
			c2.533-5.225,7.769-8.538,13.659-8.538c1.663,0,3.31,0.281,4.913,0.835c4.214-4.5,10.56-6.451,16.823-5.106
			c7.991,1.716,13.715,9.148,13.611,17.672c-0.065,5.328-1.993,9.963-5.576,13.406C55.673,55.402,55.299,55.541,54.925,55.541z"/>
		<path id="path-5_22_" d="M30.614,15.315c-0.203,0-0.41-0.041-0.607-0.129c-0.758-0.337-1.099-1.223-0.763-1.98l2.373-5.343
			c0.337-0.757,1.223-1.1,1.98-0.763c0.758,0.337,1.098,1.223,0.763,1.98l-2.374,5.344C31.738,14.983,31.19,15.315,30.614,15.315z"
			/>
		<path id="path-6_21_" d="M7.467,24.229c-0.203,0-0.41-0.042-0.607-0.13l-5.344-2.373c-0.758-0.336-1.099-1.222-0.763-1.979
			c0.335-0.757,1.222-1.1,1.98-0.762l5.343,2.372c0.758,0.336,1.099,1.222,0.763,1.98C8.591,23.896,8.042,24.229,7.467,24.229z"/>
		<path id="path-7_17_" d="M40.303,23.159c-0.603,0-1.17-0.365-1.4-0.96c-0.297-0.774,0.087-1.642,0.861-1.94l4.084-1.572
			c0.768-0.297,1.64,0.087,1.938,0.86c0.298,0.774-0.087,1.641-0.86,1.94l-4.084,1.572C40.665,23.127,40.483,23.159,40.303,23.159z"
			/>
		<path id="path-8_15_" d="M1.5,38.101c-0.602,0-1.17-0.366-1.399-0.961c-0.298-0.774,0.087-1.641,0.86-1.94l5.106-1.965
			c0.773-0.297,1.64,0.087,1.938,0.861c0.298,0.773-0.087,1.641-0.86,1.938L2.039,38C1.862,38.069,1.68,38.101,1.5,38.101z"/>
		<path id="path-9_14_" d="M17.125,16.255c-0.602,0-1.17-0.365-1.399-0.961l-2.36-6.127c-0.297-0.773,0.087-1.641,0.861-1.939
			c0.773-0.296,1.64,0.087,1.938,0.861l2.36,6.127c0.297,0.773-0.087,1.641-0.861,1.939C17.487,16.223,17.305,16.255,17.125,16.255z
			"/>
		<path id="path-10_13_" d="M12.072,39.133c-0.17,0-0.345-0.03-0.515-0.092c-0.384-0.141-1.183-0.433-2.541-3.489
			c-1.519-3.939-1.413-8.157,0.269-11.947c1.683-3.789,4.741-6.697,8.61-8.187c3.871-1.489,8.087-1.383,11.876,0.299
			c3.79,1.683,6.697,4.74,8.186,8.609c0.298,0.774-0.087,1.642-0.86,1.939c-0.775,0.297-1.642-0.087-1.939-0.861
			c-1.202-3.121-3.547-5.587-6.604-6.945c-3.059-1.358-6.462-1.443-9.581-0.241c-3.122,1.202-5.588,3.548-6.945,6.605
			c-1.358,3.057-1.444,6.459-0.242,9.581c0.334,0.745,0.833,1.656,1.072,1.95c0.596,0.365,0.873,1.112,0.623,1.793
			C13.259,38.755,12.684,39.133,12.072,39.133z"/>
	</g>
</g>
<g>
</g>
<g>
</g>
<g>
</g>
<g>
</g>
<g>
</g>
<g>
</g>
<g>
</g>
<g>
</g>
<g>
</g>
<g>
</g>
<g>
</g>
<g>
</g>
<g>
</g>
<g>
</g>
<g>
</g>
</svg>
