<?xml version="1.0" encoding="iso-8859-1"?>
<!-- Generator: Adobe Illustrator 19.1.0, SVG Export Plug-In . SVG Version: 6.00 Build 0)  -->
<svg version="1.1" id="Capa_1" xmlns="http://www.w3.org/2000/svg" xmlns:xlink="http://www.w3.org/1999/xlink" x="0px" y="0px"
	 viewBox="0 0 63 63" style="enable-background:new 0 0 63 63;" xml:space="preserve">
<g>
	<g id="group-22svg">
		<path id="path-1_13_" style="fill:#53ECF4;" d="M43.426,51.017c-4.01,0-8.481-1.27-13.258-4.692
			C14.009,34.752,3.036,45.68,2.576,46.151C2,46.742,1.051,46.757,0.457,46.181c-0.593-0.575-0.611-1.521-0.037-2.116
			c0.129-0.135,13.181-13.295,31.495-0.179c16.024,11.477,27.872-4.531,28.368-5.218c0.484-0.672,1.422-0.824,2.093-0.34
			c0.672,0.484,0.825,1.42,0.342,2.092C62.615,40.563,54.926,51.015,43.426,51.017z"/>
		<path id="path-2_13_" style="fill:#53ECF4;" d="M43.426,60.174c-4.01,0-8.481-1.27-13.258-4.691
			C13.935,43.857,3.035,54.832,2.579,55.305c-0.575,0.597-1.524,0.613-2.121,0.038c-0.596-0.574-0.613-1.524-0.038-2.12
			c0.129-0.135,13.181-13.296,31.495-0.179c16.022,11.477,27.871-4.532,28.368-5.219c0.484-0.671,1.422-0.823,2.093-0.339
			c0.672,0.483,0.825,1.419,0.342,2.091C62.615,49.72,54.925,60.173,43.426,60.174z"/>
		<path id="path-3_12_" style="fill:#53ECF4;" d="M43.426,41.572c-4.01,0.001-8.481-1.27-13.258-4.691
			C14.009,25.308,3.036,36.236,2.576,36.706C2,37.298,1.051,37.313,0.457,36.737c-0.593-0.576-0.611-1.522-0.037-2.117
			c0.129-0.134,13.181-13.295,31.495-0.177c16.024,11.477,27.872-4.533,28.368-5.22c0.484-0.671,1.422-0.822,2.093-0.339
			c0.672,0.484,0.825,1.419,0.342,2.092C62.615,31.119,54.926,41.571,43.426,41.572z"/>
		<path id="path-4_10_" d="M15.968,11.412c0-0.949,0.769-1.718,1.717-1.718c0.949,0,1.717,0.769,1.717,1.718
			c0,0.948-0.768,1.717-1.717,1.717C16.737,13.129,15.968,12.36,15.968,11.412z"/>
		<path id="path-5_9_" d="M24.439,11.412c0-0.949,0.768-1.718,1.717-1.718c0.948,0,1.717,0.769,1.717,1.718
			c0,0.948-0.769,1.717-1.717,1.717C25.207,13.129,24.439,12.36,24.439,11.412z"/>
		<path id="path-6_8_" d="M33.138,11.412c0-0.949,0.769-1.718,1.717-1.718c0.948,0,1.718,0.769,1.718,1.718
			c0,0.948-0.77,1.717-1.718,1.717C33.907,13.129,33.138,12.36,33.138,11.412z"/>
		<path id="path-7_8_" d="M41.38,11.412c0-0.949,0.769-1.718,1.717-1.718c0.948,0,1.717,0.769,1.717,1.718
			c0,0.948-0.769,1.717-1.717,1.717C42.149,13.129,41.38,12.36,41.38,11.412z"/>
		<path id="path-8_8_" d="M49.851,11.412c0-0.949,0.768-1.718,1.717-1.718c0.948,0,1.717,0.769,1.717,1.718
			c0,0.948-0.769,1.717-1.717,1.717C50.619,13.129,49.851,12.36,49.851,11.412z"/>
		<path id="path-9_8_" d="M9.1,18.28c0-0.948,0.768-1.717,1.717-1.717c0.948,0,1.717,0.769,1.717,1.717
			c0,0.948-0.769,1.717-1.717,1.717C9.868,19.997,9.1,19.228,9.1,18.28z"/>
		<path id="path-10_8_" d="M17.571,18.28c0-0.948,0.768-1.717,1.717-1.717c0.948,0,1.717,0.769,1.717,1.717
			c0,0.948-0.769,1.717-1.717,1.717C18.339,19.997,17.571,19.228,17.571,18.28z"/>
		<path id="path-11_8_" d="M26.27,18.28c0-0.948,0.769-1.717,1.717-1.717s1.717,0.769,1.717,1.717c0,0.948-0.769,1.717-1.717,1.717
			S26.27,19.228,26.27,18.28z"/>
		<path id="path-12_8_" d="M34.512,18.28c0-0.948,0.769-1.717,1.717-1.717c0.948,0,1.717,0.769,1.717,1.717
			c0,0.948-0.769,1.717-1.717,1.717C35.281,19.997,34.512,19.228,34.512,18.28z"/>
		<path id="path-13_7_" d="M42.983,18.28c0-0.948,0.768-1.717,1.716-1.717c0.949,0,1.718,0.769,1.718,1.717
			c0,0.948-0.769,1.717-1.718,1.717C43.751,19.997,42.983,19.228,42.983,18.28z"/>
		<path id="path-14_7_" d="M21.692,4.544c0-0.949,0.768-1.718,1.716-1.718c0.949,0,1.718,0.769,1.718,1.718
			c0,0.948-0.769,1.716-1.718,1.716C22.46,6.26,21.692,5.492,21.692,4.544z"/>
		<path id="path-15_6_" d="M30.162,4.544c0-0.949,0.769-1.718,1.717-1.718c0.948,0,1.717,0.769,1.717,1.718
			c0,0.948-0.769,1.716-1.717,1.716C30.931,6.26,30.162,5.492,30.162,4.544z"/>
		<path id="path-16_5_" d="M38.862,4.544c0-0.949,0.769-1.718,1.717-1.718c0.948,0,1.717,0.769,1.717,1.718
			c0,0.948-0.769,1.716-1.717,1.716C39.631,6.26,38.862,5.492,38.862,4.544z"/>
		<path id="path-17_4_" d="M47.103,4.544c0-0.949,0.769-1.718,1.718-1.718c0.948,0,1.716,0.769,1.716,1.718
			c0,0.948-0.768,1.716-1.716,1.716C47.872,6.26,47.103,5.492,47.103,4.544z"/>
		<path id="path-18_2_" d="M55.574,4.544c0-0.949,0.769-1.718,1.717-1.718c0.948,0,1.717,0.769,1.717,1.718
			c0,0.948-0.769,1.716-1.717,1.716C56.343,6.26,55.574,5.492,55.574,4.544z"/>
	</g>
</g>
<g>
</g>
<g>
</g>
<g>
</g>
<g>
</g>
<g>
</g>
<g>
</g>
<g>
</g>
<g>
</g>
<g>
</g>
<g>
</g>
<g>
</g>
<g>
</g>
<g>
</g>
<g>
</g>
<g>
</g>
</svg>
