<?xml version="1.0" encoding="iso-8859-1"?>
<!-- Generator: Adobe Illustrator 19.1.0, SVG Export Plug-In . SVG Version: 6.00 Build 0)  -->
<svg version="1.1" id="Capa_1" xmlns="http://www.w3.org/2000/svg" xmlns:xlink="http://www.w3.org/1999/xlink" x="0px" y="0px"
	 viewBox="0 0 66.381 66.381" style="enable-background:new 0 0 66.381 66.381;" xml:space="preserve">
<g>
	<g id="group-38svg">
		<path id="path-1_30_" style="fill:#EDC951;" d="M66.381,35.351c0,16.616-13.472,30.085-30.09,30.085S6.201,51.967,6.201,35.351
			S19.673,5.265,36.291,5.265S66.381,18.735,66.381,35.351z"/>
		<path id="path-2_30_" style="fill:#8B71B5;" d="M20.259,54.757c0-6.999,5.473-11.998,12.226-11.998h6.113
			c6.752,0,12.226,4.999,12.226,11.998H20.259z"/>
		<path id="path-3_30_" style="fill:#53ECF4;" d="M21.138,32.745c-0.428,2.638-2.001,3.436-4.572,2.704
			c-2.57-0.731-3.352-2.209-2.271-4.652c1.15-2.603,4.975-4.845,4.975-4.845S21.567,30.091,21.138,32.745z"/>
		<path id="path-4_30_" style="fill:#53ECF4;" d="M49.983,32.745c0.428,2.638,2.001,3.436,4.572,2.704
			c2.57-0.731,3.352-2.209,2.271-4.652c-1.15-2.603-4.975-4.845-4.975-4.845S49.553,30.091,49.983,32.745z"/>
		<path id="path-5_30_" d="M14.441,34.386c-0.623,0-1.311-0.105-2.048-0.315c-1.749-0.498-2.918-1.351-3.474-2.536
			c-0.546-1.165-0.465-2.567,0.242-4.166c1.31-2.959,5.155-5.277,5.589-5.531c0.35-0.205,0.767-0.259,1.154-0.153
			c0.39,0.106,0.72,0.366,0.916,0.719c0.261,0.47,2.536,4.682,2.037,7.76C18.262,33.838,15.835,34.386,14.441,34.386z M14.91,25.344
			c-1.124,0.841-2.482,2.057-3.005,3.239c-0.331,0.747-0.427,1.344-0.269,1.678c0.165,0.354,0.726,0.682,1.579,0.925
			c0.47,0.134,0.882,0.201,1.226,0.201c0.497,0,1.179,0,1.455-1.703C16.088,28.501,15.484,26.688,14.91,25.344z"/>
		<path id="path-6_25_" d="M49.157,34.386L49.157,34.386c-1.393,0-3.82-0.548-4.416-4.222c-0.499-3.078,1.777-7.29,2.037-7.76
			c0.197-0.353,0.527-0.613,0.916-0.719c0.389-0.106,0.805-0.052,1.155,0.153c0.433,0.254,4.279,2.572,5.588,5.531
			c0.707,1.599,0.789,3.001,0.243,4.166c-0.557,1.185-1.726,2.038-3.476,2.536C50.469,34.281,49.78,34.386,49.157,34.386z
			 M48.687,25.34c-0.617,1.445-1.166,3.229-0.985,4.344c0.276,1.703,0.958,1.703,1.455,1.703l0,0c0.345,0,0.757-0.067,1.226-0.201
			c0.853-0.243,1.415-0.571,1.58-0.925c0.157-0.334,0.061-0.931-0.27-1.678C51.168,27.393,49.81,26.179,48.687,25.34z"/>
		<path id="path-7_24_" d="M24.681,22.314c-0.384,0-0.768-0.147-1.061-0.44c-0.831-0.83-1.991-1.321-3.184-1.345
			c-1.195-0.033-2.311,0.408-3.122,1.218c-0.586,0.586-1.535,0.586-2.121,0c-0.586-0.585-0.586-1.535,0-2.12
			c1.394-1.394,3.252-2.13,5.305-2.097c1.988,0.041,3.85,0.831,5.243,2.223c0.586,0.586,0.586,1.535,0,2.121
			C25.448,22.167,25.064,22.314,24.681,22.314z"/>
		<path id="path-8_16_" d="M48.376,22.314c-0.384,0-0.768-0.147-1.061-0.44c-0.831-0.83-1.991-1.321-3.184-1.345
			c-1.182-0.033-2.31,0.408-3.121,1.218c-0.586,0.586-1.535,0.586-2.121,0c-0.586-0.585-0.586-1.535,0-2.12
			c1.393-1.394,3.247-2.13,5.304-2.097c1.989,0.041,3.85,0.831,5.243,2.223c0.586,0.586,0.586,1.535,0,2.121
			C49.143,22.167,48.76,22.314,48.376,22.314z"/>
		<path id="path-9_12_" d="M31.59,64.117C14.171,64.117,0,49.947,0,32.53C0,15.114,14.171,0.944,31.59,0.944
			s31.59,14.17,31.59,31.586C63.18,49.947,49.009,64.117,31.59,64.117z M31.59,3.944C15.825,3.944,3,16.768,3,32.53
			c0,15.763,12.825,28.586,28.59,28.586c15.764,0,28.59-12.823,28.59-28.586C60.18,16.768,47.354,3.944,31.59,3.944z"/>
		<path id="path-10_8_" d="M47.082,52.757c-0.004,0-0.012,0.001-0.02,0H16.498c-0.828,0-1.5-0.671-1.5-1.5
			c0-7.358,5.645-12.498,13.726-12.498h6.113c7.986,0,13.592,5.019,13.723,12.239c0.015,0.084,0.022,0.171,0.022,0.259
			C48.582,52.086,47.911,52.757,47.082,52.757z M18.098,49.758h27.365c-0.758-5.512-5.713-7.999-10.626-7.999h-6.113
			C23.811,41.759,18.855,44.246,18.098,49.758z"/>
	</g>
</g>
<g>
</g>
<g>
</g>
<g>
</g>
<g>
</g>
<g>
</g>
<g>
</g>
<g>
</g>
<g>
</g>
<g>
</g>
<g>
</g>
<g>
</g>
<g>
</g>
<g>
</g>
<g>
</g>
<g>
</g>
</svg>
