<?xml version="1.0" encoding="iso-8859-1"?>
<!-- Generator: Adobe Illustrator 19.1.0, SVG Export Plug-In . SVG Version: 6.00 Build 0)  -->
<svg version="1.1" id="Capa_1" xmlns="http://www.w3.org/2000/svg" xmlns:xlink="http://www.w3.org/1999/xlink" x="0px" y="0px"
	 viewBox="0 0 65.299 65.299" style="enable-background:new 0 0 65.299 65.299;" xml:space="preserve">
<g>
	<g id="group-42svg">
		<path id="path-1_35_" style="fill:#FF917B;" d="M51.117,17.045l1.806-2.917c0-7.593-6.127-10.129-13.72-10.129h-6.874
			c-7.593,0-13.721,2.536-13.721,10.129l1.807,3.155l0,0"/>
		<path id="path-2_35_" style="fill:#EDC951;" d="M62.182,38.73c0,14.181-11.498,25.678-25.681,25.678
			c-14.184,0-25.682-11.497-25.682-25.678c0-14.182,11.498-25.678,25.682-25.678C50.684,13.052,62.182,24.548,62.182,38.73z"/>
		<path id="path-3_35_" d="M15.55,16.698c-0.53,0-1.044-0.281-1.317-0.779l-1.806-3.293c-0.121-0.221-0.185-0.469-0.185-0.721
			C12.242,4.339,17.79,0,27.463,0h6.874c9.672,0,15.22,4.339,15.22,11.905c0,0.259-0.067,0.513-0.195,0.738l-1.806,3.194
			c-0.407,0.722-1.321,0.976-2.044,0.568c-0.721-0.408-0.975-1.323-0.567-2.044l1.605-2.84c-0.227-7.03-6.737-8.522-12.213-8.522
			h-6.874c-5.479,0-11.993,1.493-12.215,8.532l1.616,2.946c0.398,0.726,0.132,1.638-0.594,2.036
			C16.041,16.639,15.794,16.698,15.55,16.698z"/>
		<path id="path-4_35_" d="M43.481,30.022c0,1.769-1.434,3.204-3.204,3.204s-3.204-1.435-3.204-3.204
			c0-1.77,1.434-3.204,3.204-3.204S43.481,28.252,43.481,30.022z"/>
		<path id="path-5_35_" d="M25.057,30.022c0,1.769-1.434,3.204-3.204,3.204c-1.77,0-3.204-1.435-3.204-3.204
			c0-1.77,1.434-3.204,3.204-3.204C23.623,26.818,25.057,28.252,25.057,30.022z"/>
		<path id="path-6_30_" d="M33.557,52.993h-4.45c-5.832,0-10.401-4.41-10.401-10.04c0-0.829,0.672-1.5,1.5-1.5
			c0.829,0,1.5,0.671,1.5,1.5c0,4.014,3.182,7.041,7.401,7.041h4.45c4.288,0,7.401-2.811,7.401-6.682c0-0.829,0.671-1.5,1.5-1.5
			c0.828,0,1.5,0.671,1.5,1.5C43.958,48.831,39.486,52.993,33.557,52.993z"/>
		<path id="path-7_28_" d="M31.107,65.299c-15.433,0-27.989-12.554-27.989-27.985c0-15.43,12.556-27.984,27.989-27.984
			c15.432,0,27.987,12.554,27.987,27.984C59.094,52.745,46.539,65.299,31.107,65.299z M31.107,12.329
			c-13.779,0-24.989,11.208-24.989,24.985c0,13.778,11.21,24.986,24.989,24.986c13.778,0,24.987-11.208,24.987-24.986
			C56.094,23.537,44.885,12.329,31.107,12.329z"/>
	</g>
</g>
<g>
</g>
<g>
</g>
<g>
</g>
<g>
</g>
<g>
</g>
<g>
</g>
<g>
</g>
<g>
</g>
<g>
</g>
<g>
</g>
<g>
</g>
<g>
</g>
<g>
</g>
<g>
</g>
<g>
</g>
</svg>
