<?xml version="1.0" encoding="iso-8859-1"?>
<!-- Generator: Adobe Illustrator 19.1.0, SVG Export Plug-In . SVG Version: 6.00 Build 0)  -->
<svg version="1.1" id="Capa_1" xmlns="http://www.w3.org/2000/svg" xmlns:xlink="http://www.w3.org/1999/xlink" x="0px" y="0px"
	 viewBox="0 0 67.321 67.321" style="enable-background:new 0 0 67.321 67.321;" xml:space="preserve">
<g>
	<g id="group-35svg">
		<path id="path-1_27_" style="fill:#EDC951;" d="M67.321,35.821c0,16.616-13.472,30.085-30.09,30.085S7.141,52.437,7.141,35.821
			S20.613,5.735,37.231,5.735S67.321,19.205,67.321,35.821z"/>
		<path id="path-2_27_" style="fill:#8B71B5;" d="M53.644,43.229c0,6.999-5.473,11.998-12.226,11.998h-6.113
			c-6.752,0-12.226-4.999-12.226-11.998H53.644z"/>
		<path id="path-3_27_" style="fill:#E56A77;" d="M53.836,22.015c-0.947,0-1.819,1.176-2.524,1.701
			c-0.706-0.525-1.577-1.701-2.525-1.701c-2.34,0-4.237,1.897-4.237,4.237s6.056,9.249,6.762,8.724
			c0.705,0.525,6.761-6.384,6.761-8.724S56.176,22.015,53.836,22.015z"/>
		<path id="path-4_27_" style="fill:#E56A77;" d="M29.747,22.015c-0.947,0-1.818,1.176-2.524,1.701
			c-0.706-0.525-1.577-1.701-2.524-1.701c-2.341,0-4.238,1.897-4.238,4.237s6.056,9.249,6.762,8.724
			c0.706,0.525,6.761-6.384,6.761-8.724S32.087,22.015,29.747,22.015z"/>
		<path id="path-5_27_" d="M34.836,53.227h-6.113c-7.568,0-13.726-5.606-13.726-12.498c0-0.829,0.672-1.5,1.5-1.5h30.565
			c0.829,0,1.5,0.671,1.5,1.5C48.562,47.621,42.405,53.227,34.836,53.227z M18.131,42.229c0.814,4.527,5.254,7.999,10.592,7.999
			h6.113c5.339,0,9.779-3.472,10.593-7.999H18.131z"/>
		<path id="path-6_22_" d="M44.838,33.684c-0.038,0.001-0.073-0.001-0.108-0.003c-0.032,0.002-0.065,0.003-0.098,0.003
			c-0.436,0-1.595,0-4.891-4.09c-1.493-1.854-3.273-4.428-3.273-6.163c0-3.163,2.574-5.737,5.737-5.737
			c1.05,0,1.878,0.608,2.525,1.186c0.646-0.578,1.474-1.186,2.524-1.186c3.163,0,5.737,2.574,5.737,5.737
			c0,1.735-1.78,4.309-3.273,6.163C46.45,33.651,45.283,33.684,44.838,33.684z M42.143,20.688c-1.447,0.006-2.675,1.234-2.675,2.743
			c0.046,1.248,3.689,5.925,5.262,7.125c1.573-1.2,5.215-5.878,5.261-7.128c0-1.506-1.228-2.734-2.737-2.734
			c-0.137,0.051-0.604,0.492-0.855,0.73c-0.272,0.255-0.532,0.496-0.774,0.675c-0.531,0.395-1.259,0.396-1.79,0
			c-0.242-0.179-0.503-0.42-0.775-0.676C42.809,21.187,42.342,20.746,42.143,20.688z"/>
		<path id="path-7_21_" d="M20.749,33.684c-0.037,0.001-0.072-0.001-0.108-0.003c-0.032,0.002-0.065,0.003-0.098,0.003
			c-0.436,0-1.595,0-4.89-4.09c-1.494-1.854-3.274-4.428-3.274-6.163c0-3.163,2.574-5.737,5.738-5.737
			c1.049,0,1.877,0.608,2.524,1.186c0.646-0.579,1.475-1.186,2.524-1.186c3.163,0,5.737,2.574,5.737,5.737
			c0,1.735-1.78,4.309-3.273,6.163C22.361,33.651,21.194,33.684,20.749,33.684z M18.054,20.688
			c-1.447,0.006-2.675,1.234-2.675,2.743c0.047,1.248,3.689,5.925,5.262,7.125c1.573-1.2,5.215-5.878,5.261-7.128
			c0-1.506-1.228-2.734-2.737-2.734c-0.136,0.051-0.604,0.492-0.855,0.73c-0.272,0.255-0.532,0.496-0.774,0.675
			c-0.531,0.395-1.258,0.396-1.79,0c-0.242-0.179-0.503-0.42-0.774-0.676C18.72,21.187,18.253,20.746,18.054,20.688z"/>
		<path id="path-8_14_" d="M31.589,64.587C14.171,64.587,0,50.417,0,33C0,15.584,14.171,1.414,31.589,1.414
			c17.419,0,31.59,14.17,31.59,31.586C63.179,50.417,49.008,64.587,31.589,64.587z M31.589,4.414C15.825,4.414,3,17.238,3,33
			c0,15.763,12.825,28.586,28.589,28.586S60.179,48.763,60.179,33C60.179,17.238,47.353,4.414,31.589,4.414z"/>
	</g>
</g>
<g>
</g>
<g>
</g>
<g>
</g>
<g>
</g>
<g>
</g>
<g>
</g>
<g>
</g>
<g>
</g>
<g>
</g>
<g>
</g>
<g>
</g>
<g>
</g>
<g>
</g>
<g>
</g>
<g>
</g>
</svg>
