<?xml version="1.0" encoding="iso-8859-1"?>
<!-- Generator: Adobe Illustrator 19.1.0, SVG Export Plug-In . SVG Version: 6.00 Build 0)  -->
<svg version="1.1" id="Capa_1" xmlns="http://www.w3.org/2000/svg" xmlns:xlink="http://www.w3.org/1999/xlink" x="0px" y="0px"
	 viewBox="0 0 66.38 66.38" style="enable-background:new 0 0 66.38 66.38;" xml:space="preserve">
<g>
	<g id="group-15svg">
		<path id="path-1_5_" style="fill:#EDC951;" d="M66.38,35.35c0,16.616-13.471,30.086-30.089,30.086S6.201,51.966,6.201,35.35
			S19.673,5.264,36.291,5.264S66.38,18.734,66.38,35.35z"/>
		<path id="path-2_5_" style="fill:#FFFFFF;" d="M51.546,29.977c0,2.961-2.4,5.361-5.361,5.361c-2.961,0-5.362-2.4-5.362-5.361
			s2.401-5.361,5.362-5.361C49.146,24.616,51.546,27.016,51.546,29.977z"/>
		<path id="path-3_5_" style="fill:#FFFFFF;" d="M29.672,29.977c0,2.961-2.401,5.361-5.362,5.361s-5.361-2.4-5.361-5.361
			s2.4-5.361,5.361-5.361S29.672,27.016,29.672,29.977z"/>
		<path id="path-4_5_" style="fill:#8B71B5;" d="M50.823,43.775c0,6.999-5.473,11.999-12.225,11.999h-6.114
			c-6.751,0-12.225-5-12.225-11.999H50.823z"/>
		<path id="path-5_5_" d="M44.04,24.814c0,2.187-1.772,3.959-3.959,3.959s-3.959-1.772-3.959-3.959c0-2.186,1.772-3.959,3.959-3.959
			S44.04,22.628,44.04,24.814z"/>
		<path id="path-6_3_" d="M41.483,34.017c-3.783,0-6.861-3.078-6.861-6.86c0-3.783,3.078-6.861,6.861-6.861
			c3.783,0,6.861,3.078,6.861,6.861C48.344,30.939,45.266,34.017,41.483,34.017z M41.483,23.296c-2.129,0-3.861,1.732-3.861,3.861
			c0,2.128,1.732,3.86,3.861,3.86c2.129,0,3.861-1.732,3.861-3.86C45.344,25.028,43.612,23.296,41.483,23.296z"/>
		<path id="path-7_3_" d="M19.609,34.017c-3.783,0-6.861-3.078-6.861-6.86c0-3.783,3.078-6.861,6.861-6.861s6.861,3.078,6.861,6.861
			C26.47,30.939,23.392,34.017,19.609,34.017z M19.609,23.296c-2.129,0-3.861,1.732-3.861,3.861c0,2.128,1.732,3.86,3.861,3.86
			s3.861-1.732,3.861-3.86C23.47,25.028,21.738,23.296,19.609,23.296z"/>
		<path id="path-8_2_" d="M22.166,24.814c0,2.187-1.773,3.959-3.959,3.959c-2.187,0-3.959-1.772-3.959-3.959
			c0-2.186,1.772-3.959,3.959-3.959C20.393,20.855,22.166,22.628,22.166,24.814z"/>
		<path id="path-9_2_" d="M31.589,64.115C14.171,64.115,0,49.946,0,32.529C0,15.113,14.171,0.944,31.589,0.944
			c17.419,0,31.59,14.169,31.59,31.585C63.179,49.946,49.008,64.115,31.589,64.115z M31.589,3.943C15.825,3.943,3,16.767,3,32.529
			c0,15.763,12.825,28.587,28.589,28.587c15.765,0,28.59-12.824,28.59-28.587C60.179,16.767,47.354,3.943,31.589,3.943z"/>
		<path id="path-10_1_" d="M33.896,53.774h-6.113c-7.568,0-13.726-5.607-13.726-12.499c0-0.828,0.672-1.499,1.5-1.499h30.565
			c0.829,0,1.5,0.671,1.5,1.499C47.622,48.167,41.464,53.774,33.896,53.774z M17.191,42.775c0.814,4.528,5.254,7.999,10.592,7.999
			h6.113c5.338,0,9.778-3.471,10.592-7.999H17.191z"/>
		<path id="path-11" d="M43.318,47.775h-26c-0.828,0-1.5-0.672-1.5-1.5c0-0.829,0.672-1.5,1.5-1.5h26c0.829,0,1.5,0.671,1.5,1.5
			C44.818,47.103,44.147,47.775,43.318,47.775z"/>
		<path id="path-12" d="M35.818,47.275c-0.828,0-1.5-0.672-1.5-1.5v-4c0-0.828,0.672-1.499,1.5-1.499c0.829,0,1.5,0.671,1.5,1.499v4
			C37.318,46.603,36.647,47.275,35.818,47.275z"/>
		<path id="path-13" d="M25.818,47.275c-0.828,0-1.5-0.672-1.5-1.5v-4c0-0.828,0.672-1.499,1.5-1.499c0.829,0,1.5,0.671,1.5,1.499v4
			C27.318,46.603,26.647,47.275,25.818,47.275z"/>
	</g>
</g>
<g>
</g>
<g>
</g>
<g>
</g>
<g>
</g>
<g>
</g>
<g>
</g>
<g>
</g>
<g>
</g>
<g>
</g>
<g>
</g>
<g>
</g>
<g>
</g>
<g>
</g>
<g>
</g>
<g>
</g>
</svg>
