<?xml version="1.0" encoding="iso-8859-1"?>
<!-- Generator: Adobe Illustrator 19.1.0, SVG Export Plug-In . SVG Version: 6.00 Build 0)  -->
<svg version="1.1" id="Capa_1" xmlns="http://www.w3.org/2000/svg" xmlns:xlink="http://www.w3.org/1999/xlink" x="0px" y="0px"
	 viewBox="0 0 67.321 67.321" style="enable-background:new 0 0 67.321 67.321;" xml:space="preserve">
<g>
	<g id="group-17svg">
		<path id="path-1_7_" style="fill:#EDC951;" d="M67.321,35.821c0,16.616-13.471,30.086-30.089,30.086
			c-16.619,0-30.089-13.47-30.089-30.086S20.613,5.735,37.232,5.735C53.85,5.735,67.321,19.205,67.321,35.821z"/>
		<path id="path-2_7_" style="fill:#8B71B5;" d="M51.765,44.679c0,6.999-5.474,11.998-12.227,11.998h-6.112
			c-6.753,0-12.227-4.999-12.227-11.998H51.765z"/>
		<path id="path-3_7_" style="fill:#FFFFFF;" d="M53.427,30.448c0,2.96-2.4,5.361-5.361,5.361c-2.961,0-5.362-2.401-5.362-5.361
			c0-2.961,2.401-5.361,5.362-5.361C51.027,25.087,53.427,27.487,53.427,30.448z"/>
		<path id="path-4_7_" style="fill:#FFFFFF;" d="M31.553,30.448c0,2.96-2.4,5.361-5.361,5.361s-5.362-2.401-5.362-5.361
			c0-2.961,2.401-5.361,5.362-5.361S31.553,27.487,31.553,30.448z"/>
		<path id="path-5_7_" d="M48.742,27.166c0,2.186-1.772,3.958-3.959,3.958c-2.186,0-3.959-1.772-3.959-3.958
			c0-2.187,1.773-3.959,3.959-3.959C46.97,23.207,48.742,24.979,48.742,27.166z"/>
		<path id="path-6_5_" d="M42.424,34.488c-3.783,0-6.861-3.078-6.861-6.861c0-3.782,3.078-6.86,6.861-6.86s6.861,3.078,6.861,6.86
			C49.285,31.41,46.207,34.488,42.424,34.488z M42.424,23.767c-2.129,0-3.861,1.732-3.861,3.86c0,2.129,1.732,3.861,3.861,3.861
			c2.129,0,3.861-1.732,3.861-3.861C46.285,25.499,44.553,23.767,42.424,23.767z"/>
		<path id="path-7_5_" d="M20.55,34.488c-3.783,0-6.861-3.078-6.861-6.861c0-3.782,3.078-6.86,6.861-6.86s6.861,3.078,6.861,6.86
			C27.411,31.41,24.333,34.488,20.55,34.488z M20.55,23.767c-2.129,0-3.861,1.732-3.861,3.86c0,2.129,1.732,3.861,3.861,3.861
			s3.861-1.732,3.861-3.861C24.411,25.499,22.679,23.767,20.55,23.767z"/>
		<path id="path-8_4_" d="M23.107,27.166c0,2.186-1.773,3.958-3.959,3.958c-2.187,0-3.959-1.772-3.959-3.958
			c0-2.187,1.772-3.959,3.959-3.959C21.334,23.207,23.107,24.979,23.107,27.166z"/>
		<path id="path-9_4_" d="M31.59,64.586C14.171,64.586,0,50.417,0,33C0,15.584,14.171,1.415,31.59,1.415S63.18,15.584,63.18,33
			C63.18,50.417,49.009,64.586,31.59,64.586z M31.59,4.414C15.825,4.414,3,17.238,3,33c0,15.763,12.825,28.587,28.59,28.587
			S60.18,48.763,60.18,33C60.18,17.238,47.355,4.414,31.59,4.414z"/>
		<path id="path-10_3_" d="M33.897,54.677h-6.114c-7.568,0-13.725-5.606-13.725-12.498c0-0.829,0.672-1.5,1.5-1.5h30.564
			c0.828,0,1.5,0.671,1.5,1.5C47.622,49.071,41.465,54.677,33.897,54.677z M17.192,43.679c0.814,4.527,5.253,7.999,10.591,7.999
			h6.114c5.338,0,9.777-3.472,10.591-7.999H17.192z"/>
		<path id="path-11_2_" d="M43.289,48.678h-26c-0.828,0-1.5-0.671-1.5-1.5c0-0.828,0.672-1.5,1.5-1.5h26c0.828,0,1.5,0.672,1.5,1.5
			C44.789,48.007,44.117,48.678,43.289,48.678z"/>
		<path id="path-12_2_" d="M35.789,48.178c-0.828,0-1.5-0.671-1.5-1.5v-3.999c0-0.829,0.672-1.5,1.5-1.5c0.828,0,1.5,0.671,1.5,1.5
			v3.999C37.289,47.507,36.617,48.178,35.789,48.178z"/>
		<path id="path-13_2_" d="M25.789,48.178c-0.828,0-1.5-0.671-1.5-1.5v-3.999c0-0.829,0.672-1.5,1.5-1.5c0.828,0,1.5,0.671,1.5,1.5
			v3.999C27.289,47.507,26.617,48.178,25.789,48.178z"/>
	</g>
</g>
<g>
</g>
<g>
</g>
<g>
</g>
<g>
</g>
<g>
</g>
<g>
</g>
<g>
</g>
<g>
</g>
<g>
</g>
<g>
</g>
<g>
</g>
<g>
</g>
<g>
</g>
<g>
</g>
<g>
</g>
</svg>
