<?xml version="1.0" encoding="iso-8859-1"?>
<!-- Generator: Adobe Illustrator 19.1.0, SVG Export Plug-In . SVG Version: 6.00 Build 0)  -->
<svg version="1.1" id="Capa_1" xmlns="http://www.w3.org/2000/svg" xmlns:xlink="http://www.w3.org/1999/xlink" x="0px" y="0px"
	 viewBox="0 0 66.38 66.38" style="enable-background:new 0 0 66.38 66.38;" xml:space="preserve">
<g>
	<g id="group-16svg">
		<path id="path-1_6_" style="fill:#EDC951;" d="M66.38,35.35c0,16.616-13.471,30.086-30.089,30.086S6.201,51.966,6.201,35.35
			S19.673,5.264,36.291,5.264S66.38,18.734,66.38,35.35z"/>
		<path id="path-2_6_" style="fill:#8B71B5;" d="M49.883,44.208c0,6.999-5.474,11.998-12.226,11.998h-6.112
			c-6.753,0-12.227-4.999-12.227-11.998H49.883z"/>
		<path id="path-3_6_" style="fill:#FFFFFF;" d="M50.606,29.977c0,2.96-2.401,5.361-5.362,5.361c-2.961,0-5.361-2.401-5.361-5.361
			c0-2.961,2.4-5.361,5.361-5.361C48.205,24.616,50.606,27.016,50.606,29.977z"/>
		<path id="path-4_6_" style="fill:#FFFFFF;" d="M28.732,29.977c0,2.96-2.401,5.361-5.362,5.361s-5.361-2.401-5.361-5.361
			c0-2.961,2.4-5.361,5.361-5.361S28.732,27.016,28.732,29.977z"/>
		<path id="path-5_6_" d="M41.483,34.017c-3.783,0-6.861-3.078-6.861-6.861c0-3.782,3.078-6.86,6.861-6.86
			c3.783,0,6.861,3.078,6.861,6.86C48.344,30.939,45.266,34.017,41.483,34.017z M41.483,23.296c-2.129,0-3.861,1.732-3.861,3.86
			c0,2.129,1.732,3.861,3.861,3.861c2.129,0,3.861-1.732,3.861-3.861C45.344,25.028,43.612,23.296,41.483,23.296z"/>
		<path id="path-6_4_" d="M19.609,34.017c-3.783,0-6.861-3.078-6.861-6.861c0-3.782,3.078-6.86,6.861-6.86s6.861,3.078,6.861,6.86
			C26.47,30.939,23.392,34.017,19.609,34.017z M19.609,23.296c-2.129,0-3.861,1.732-3.861,3.86c0,2.129,1.732,3.861,3.861,3.861
			s3.861-1.732,3.861-3.861C23.47,25.028,21.738,23.296,19.609,23.296z"/>
		<path id="path-7_4_" d="M43.1,26.695c0,2.186-1.773,3.958-3.959,3.958c-2.187,0-3.959-1.772-3.959-3.958
			c0-2.187,1.772-3.959,3.959-3.959C41.327,22.736,43.1,24.508,43.1,26.695z"/>
		<path id="path-8_3_" d="M25.927,26.695c0,2.186-1.773,3.958-3.959,3.958c-2.187,0-3.959-1.772-3.959-3.958
			c0-2.187,1.772-3.959,3.959-3.959C24.154,22.736,25.927,24.508,25.927,26.695z"/>
		<path id="path-9_3_" d="M31.589,64.115C14.171,64.115,0,49.946,0,32.529C0,15.113,14.171,0.944,31.589,0.944
			c17.419,0,31.59,14.169,31.59,31.585C63.179,49.946,49.008,64.115,31.589,64.115z M31.589,3.943C15.825,3.943,3,16.767,3,32.529
			c0,15.763,12.825,28.587,28.589,28.587c15.765,0,28.59-12.824,28.59-28.587C60.179,16.767,47.354,3.943,31.589,3.943z"/>
		<path id="path-10_2_" d="M33.896,54.206h-6.113c-7.568,0-13.726-5.606-13.726-12.498c0-0.829,0.672-1.5,1.5-1.5h30.565
			c0.829,0,1.5,0.671,1.5,1.5C47.622,48.6,41.464,54.206,33.896,54.206z M17.191,43.208c0.814,4.527,5.254,7.999,10.592,7.999h6.113
			c5.338,0,9.778-3.472,10.592-7.999H17.191z"/>
		<path id="path-11_1_" d="M43.318,48.207h-26c-0.828,0-1.5-0.671-1.5-1.5c0-0.828,0.672-1.5,1.5-1.5h26c0.829,0,1.5,0.672,1.5,1.5
			C44.818,47.536,44.147,48.207,43.318,48.207z"/>
		<path id="path-12_1_" d="M35.818,47.707c-0.828,0-1.5-0.671-1.5-1.5v-3.999c0-0.829,0.672-1.5,1.5-1.5c0.829,0,1.5,0.671,1.5,1.5
			v3.999C37.318,47.036,36.647,47.707,35.818,47.707z"/>
		<path id="path-13_1_" d="M25.818,47.707c-0.828,0-1.5-0.671-1.5-1.5v-3.999c0-0.829,0.672-1.5,1.5-1.5c0.829,0,1.5,0.671,1.5,1.5
			v3.999C27.318,47.036,26.647,47.707,25.818,47.707z"/>
	</g>
</g>
<g>
</g>
<g>
</g>
<g>
</g>
<g>
</g>
<g>
</g>
<g>
</g>
<g>
</g>
<g>
</g>
<g>
</g>
<g>
</g>
<g>
</g>
<g>
</g>
<g>
</g>
<g>
</g>
<g>
</g>
</svg>
