<?xml version="1.0" encoding="iso-8859-1"?>
<!-- Generator: Adobe Illustrator 19.1.0, SVG Export Plug-In . SVG Version: 6.00 Build 0)  -->
<svg version="1.1" id="Capa_1" xmlns="http://www.w3.org/2000/svg" xmlns:xlink="http://www.w3.org/1999/xlink" x="0px" y="0px"
	 viewBox="0 0 66.38 66.38" style="enable-background:new 0 0 66.38 66.38;" xml:space="preserve">
<g>
	<g id="group-14svg">
		<path id="path-1_4_" style="fill:#EDC951;" d="M66.38,35.35c0,16.616-13.471,30.086-30.089,30.086
			c-16.619,0-30.09-13.47-30.09-30.086S19.672,5.264,36.291,5.264C52.909,5.264,66.38,18.734,66.38,35.35z"/>
		<path id="path-2_4_" style="fill:#8B71B5;" d="M51.764,44.208c0,6.999-5.474,11.998-12.226,11.998h-6.114
			c-6.752,0-12.225-4.999-12.225-11.998H51.764z"/>
		<path id="path-3_4_" style="fill:#FFFFFF;" d="M53.426,29.977c0,2.96-2.4,5.361-5.361,5.361c-2.961,0-5.361-2.401-5.361-5.361
			c0-2.961,2.4-5.361,5.361-5.361C51.026,24.616,53.426,27.016,53.426,29.977z"/>
		<path id="path-4_4_" style="fill:#FFFFFF;" d="M31.552,29.977c0,2.96-2.4,5.361-5.361,5.361s-5.362-2.401-5.362-5.361
			c0-2.961,2.401-5.361,5.362-5.361S31.552,27.016,31.552,29.977z"/>
		<path id="path-5_4_" d="M44.98,24.814c0,2.186-1.772,3.959-3.959,3.959c-2.186,0-3.959-1.773-3.959-3.959s1.773-3.959,3.959-3.959
			C43.208,20.855,44.98,22.628,44.98,24.814z"/>
		<path id="path-6_2_" d="M42.423,34.017c-3.783,0-6.861-3.078-6.861-6.861c0-3.782,3.078-6.86,6.861-6.86s6.861,3.078,6.861,6.86
			C49.284,30.939,46.206,34.017,42.423,34.017z M42.423,23.296c-2.129,0-3.861,1.732-3.861,3.86c0,2.129,1.732,3.861,3.861,3.861
			c2.129,0,3.861-1.732,3.861-3.861C46.284,25.028,44.552,23.296,42.423,23.296z"/>
		<path id="path-7_2_" d="M20.549,34.017c-3.783,0-6.861-3.078-6.861-6.861c0-3.782,3.078-6.86,6.861-6.86s6.861,3.078,6.861,6.86
			C27.41,30.939,24.332,34.017,20.549,34.017z M20.549,23.296c-2.129,0-3.861,1.732-3.861,3.86c0,2.129,1.732,3.861,3.861,3.861
			s3.861-1.732,3.861-3.861C24.41,25.028,22.678,23.296,20.549,23.296z"/>
		<path id="path-8_1_" d="M23.106,24.814c0,2.186-1.773,3.959-3.959,3.959c-2.187,0-3.959-1.773-3.959-3.959
			s1.772-3.959,3.959-3.959C21.333,20.855,23.106,22.628,23.106,24.814z"/>
		<path id="path-9_1_" d="M31.589,64.115C14.171,64.115,0,49.946,0,32.529C0,15.113,14.171,0.944,31.589,0.944
			s31.59,14.169,31.59,31.585C63.179,49.946,49.007,64.115,31.589,64.115z M31.589,3.943C15.825,3.943,3,16.767,3,32.529
			c0,15.763,12.825,28.587,28.589,28.587c15.765,0,28.59-12.824,28.59-28.587C60.179,16.767,47.354,3.943,31.589,3.943z"/>
		<path id="path-10" d="M33.896,54.206h-6.113c-7.568,0-13.726-5.606-13.726-12.498c0-0.829,0.672-1.5,1.5-1.5h30.565
			c0.828,0,1.5,0.671,1.5,1.5C47.622,48.6,41.465,54.206,33.896,54.206z M17.191,43.208c0.814,4.527,5.254,7.999,10.592,7.999h6.113
			c5.338,0,9.778-3.472,10.592-7.999H17.191z"/>
	</g>
</g>
<g>
</g>
<g>
</g>
<g>
</g>
<g>
</g>
<g>
</g>
<g>
</g>
<g>
</g>
<g>
</g>
<g>
</g>
<g>
</g>
<g>
</g>
<g>
</g>
<g>
</g>
<g>
</g>
<g>
</g>
</svg>
