<?xml version="1.0" encoding="iso-8859-1"?>
<!-- Generator: Adobe Illustrator 19.1.0, SVG Export Plug-In . SVG Version: 6.00 Build 0)  -->
<svg version="1.1" id="Capa_1" xmlns="http://www.w3.org/2000/svg" xmlns:xlink="http://www.w3.org/1999/xlink" x="0px" y="0px"
	 viewBox="0 0 65.427 65.427" style="enable-background:new 0 0 65.427 65.427;" xml:space="preserve">
<g>
	<g id="group-44svg">
		<path id="path-1_37_" style="fill:#EDC951;" d="M65.427,35.317c0,16.372-13.274,29.643-29.647,29.643
			c-16.374,0-29.647-13.271-29.647-29.643S19.406,5.673,35.78,5.673C52.153,5.673,65.427,18.945,65.427,35.317z"/>
		<path id="path-2_37_" d="M24.339,25.272c-0.384,0-0.768-0.146-1.06-0.439c-0.815-0.814-1.952-1.295-3.122-1.319
			c-1.183-0.028-2.265,0.4-3.06,1.194c-0.586,0.586-1.536,0.586-2.121,0c-0.586-0.586-0.586-1.535,0-2.121
			c1.378-1.378,3.243-2.096,5.243-2.072c1.965,0.04,3.805,0.821,5.181,2.197c0.586,0.586,0.586,1.536,0,2.121
			C25.107,25.126,24.723,25.272,24.339,25.272z"/>
		<path id="path-3_37_" d="M47.686,25.272c-0.383,0-0.767-0.146-1.06-0.439c-1.71-1.709-4.54-1.766-6.182-0.125
			c-0.586,0.586-1.536,0.586-2.121,0c-0.586-0.586-0.586-1.535,0-2.121c2.793-2.791,7.566-2.733,10.424,0.125
			c0.586,0.586,0.586,1.536,0,2.121C48.454,25.126,48.07,25.272,47.686,25.272z"/>
		<path id="path-4_37_" d="M35.875,51.592c-0.705,0-1.334-0.499-1.472-1.217c-0.156-0.813,0.377-1.6,1.19-1.756
			c0.866-0.166,1.426-0.453,1.538-0.786c0.26-0.771-0.774-2.504-1.586-3.407c-0.288-0.32-0.425-0.749-0.376-1.176
			c0.05-0.428,0.281-0.814,0.635-1.059c1.789-1.243,2.177-2.094,2.125-2.401c-0.101-0.59-1.518-1.337-2.448-1.591
			c-0.799-0.218-1.27-1.043-1.051-1.842c0.218-0.8,1.046-1.268,1.842-1.051c0.422,0.115,4.138,1.208,4.614,3.977
			c0.252,1.472-0.462,2.95-2.127,4.408c0.861,1.282,1.831,3.267,1.216,5.097c-0.334,0.997-1.269,2.287-3.815,2.777
			C36.064,51.583,35.969,51.592,35.875,51.592z"/>
		<path id="path-5_37_" d="M31.147,62.755C13.973,62.755,0,48.784,0,31.611C0,14.439,13.973,0.468,31.147,0.468
			c17.175,0,31.147,13.971,31.147,31.143C62.294,48.784,48.322,62.755,31.147,62.755z M31.147,3.468C15.627,3.468,3,16.093,3,31.611
			C3,47.13,15.627,59.755,31.147,59.755c15.521,0,28.147-12.625,28.147-28.144C59.294,16.093,46.668,3.468,31.147,3.468z"/>
	</g>
</g>
<g>
</g>
<g>
</g>
<g>
</g>
<g>
</g>
<g>
</g>
<g>
</g>
<g>
</g>
<g>
</g>
<g>
</g>
<g>
</g>
<g>
</g>
<g>
</g>
<g>
</g>
<g>
</g>
<g>
</g>
</svg>
