<?xml version="1.0" encoding="iso-8859-1"?>
<!-- Generator: Adobe Illustrator 19.1.0, SVG Export Plug-In . SVG Version: 6.00 Build 0)  -->
<svg version="1.1" id="Capa_1" xmlns="http://www.w3.org/2000/svg" xmlns:xlink="http://www.w3.org/1999/xlink" x="0px" y="0px"
	 viewBox="0 0 69.538 69.538" style="enable-background:new 0 0 69.538 69.538;" xml:space="preserve">
<g>
	<g id="group-45svg">
		<path id="path-1_38_" style="fill:#EDC951;" d="M65.052,35.459c0,15.97-12.947,28.916-28.918,28.916
			c-15.972,0-28.919-12.946-28.919-28.916c0-15.969,12.947-28.915,28.919-28.915C52.105,6.544,65.052,19.49,65.052,35.459z"/>
		<path id="path-2_38_" style="fill:#E56A77;" d="M54.13,44.009c-0.69,0-1.325,0.857-1.839,1.24c-0.514-0.383-1.149-1.24-1.839-1.24
			c-1.705,0-3.087,1.382-3.087,3.087c0,1.704,4.412,6.738,4.926,6.356c0.514,0.382,4.926-4.652,4.926-6.356
			C57.217,45.391,55.835,44.009,54.13,44.009z"/>
		<path id="path-3_38_" style="fill:#E56A77;" d="M66.451,57.552c-0.69,0-1.325,0.857-1.839,1.239
			c-0.514-0.382-1.149-1.239-1.839-1.239c-1.705,0-3.087,1.382-3.087,3.086c0,1.705,4.412,6.739,4.926,6.356
			c0.514,0.383,4.926-4.651,4.926-6.356C69.538,58.934,68.156,57.552,66.451,57.552z"/>
		<path id="path-4_38_" d="M23.955,24.05c-0.384,0-0.768-0.147-1.061-0.44c-0.822-0.822-1.971-1.308-3.153-1.333
			c-1.176-0.01-2.287,0.405-3.09,1.207c-0.586,0.586-1.535,0.586-2.121,0c-0.586-0.585-0.586-1.535,0-2.12
			c1.385-1.387,3.252-2.118,5.274-2.085c1.976,0.04,3.827,0.826,5.211,2.211c0.586,0.585,0.586,1.535,0,2.12
			C24.722,23.903,24.339,24.05,23.955,24.05z"/>
		<path id="path-5_38_" d="M47.476,24.05c-0.384,0-0.768-0.147-1.061-0.44c-0.822-0.822-1.971-1.308-3.152-1.333
			c-1.177-0.01-2.288,0.405-3.091,1.207c-0.586,0.586-1.535,0.586-2.121,0c-0.586-0.585-0.586-1.535,0-2.12
			c1.386-1.387,3.266-2.118,5.274-2.085c1.976,0.04,3.827,0.826,5.211,2.211c0.586,0.585,0.586,1.535,0,2.12
			C48.243,23.903,47.86,24.05,47.476,24.05z"/>
		<path id="path-6_31_" d="M35.576,50.566c-0.705,0-1.333-0.499-1.471-1.217c-0.156-0.813,0.376-1.6,1.19-1.756
			c0.875-0.168,1.443-0.46,1.557-0.799c0.262-0.772-0.781-2.528-1.602-3.447c-0.286-0.321-0.422-0.749-0.372-1.176
			c0.051-0.427,0.28-0.812,0.634-1.057c1.805-1.254,2.197-2.116,2.145-2.428c-0.102-0.599-1.512-1.344-2.478-1.614
			c-0.797-0.223-1.265-1.048-1.045-1.845c0.221-0.796,1.043-1.264,1.839-1.047c0.425,0.116,4.163,1.215,4.64,3.997
			c0.255,1.481-0.467,2.969-2.146,4.437c0.868,1.289,1.849,3.291,1.23,5.134c-0.337,1.001-1.275,2.299-3.836,2.791
			C35.765,50.557,35.67,50.566,35.576,50.566z"/>
		<path id="path-7_29_" d="M47.288,52.939c-0.026,0-0.052,0-0.079-0.002c-0.024,0.002-0.048,0.002-0.071,0.002
			c-1.934,0-6.355-5.864-6.355-7.876c0-2.529,2.057-4.587,4.586-4.587c0.753,0,1.362,0.355,1.84,0.738
			c0.477-0.383,1.086-0.738,1.839-0.738c2.529,0,4.587,2.058,4.587,4.587c0,1.11-0.833,2.707-2.475,4.745
			C48.654,52.919,47.732,52.939,47.288,52.939z M45.239,43.481c-0.814,0.067-1.456,0.751-1.456,1.582
			c0.118,0.825,2.266,3.606,3.426,4.654c1.159-1.049,3.307-3.834,3.428-4.694c-0.002-0.793-0.645-1.475-1.459-1.542
			c-0.131,0.092-0.341,0.29-0.475,0.416c-0.21,0.198-0.412,0.383-0.599,0.522c-0.531,0.395-1.259,0.396-1.79,0
			c-0.188-0.139-0.39-0.324-0.6-0.523C45.58,43.771,45.37,43.573,45.239,43.481z"/>
		<path id="path-8_19_" d="M59.611,66.482c-0.029-0.002-0.054,0-0.082-0.002c-0.024,0.002-0.048,0.002-0.071,0.002
			c-1.933,0-6.355-5.864-6.355-7.876c0-2.529,2.058-4.587,4.587-4.587c0.753,0,1.362,0.355,1.839,0.738
			c0.478-0.383,1.087-0.738,1.839-0.738c2.53,0,4.587,2.058,4.587,4.587c0,1.11-0.833,2.706-2.475,4.745
			C60.979,66.455,60.056,66.482,59.611,66.482z M57.56,57.024c-0.814,0.067-1.457,0.751-1.457,1.582
			c0.119,0.825,2.266,3.605,3.426,4.653c1.16-1.048,3.308-3.833,3.428-4.693c-0.002-0.794-0.644-1.476-1.459-1.542
			c-0.13,0.091-0.34,0.289-0.474,0.416c-0.21,0.197-0.412,0.383-0.599,0.522c-0.532,0.395-1.26,0.395-1.792,0
			c-0.186-0.139-0.389-0.325-0.599-0.523C57.9,57.313,57.691,57.116,57.56,57.024z"/>
		<path id="path-9_15_" d="M30.979,64.473C13.897,64.473,0,50.578,0,33.498S13.897,2.523,30.979,2.523s30.979,13.895,30.979,30.975
			S48.061,64.473,30.979,64.473z M30.979,5.523C15.552,5.523,3,18.072,3,33.498s12.552,27.975,27.979,27.975
			c15.428,0,27.979-12.549,27.979-27.975S46.407,5.523,30.979,5.523z"/>
	</g>
</g>
<g>
</g>
<g>
</g>
<g>
</g>
<g>
</g>
<g>
</g>
<g>
</g>
<g>
</g>
<g>
</g>
<g>
</g>
<g>
</g>
<g>
</g>
<g>
</g>
<g>
</g>
<g>
</g>
<g>
</g>
</svg>
