<?xml version="1.0" encoding="iso-8859-1"?>
<!-- Generator: Adobe Illustrator 19.1.0, SVG Export Plug-In . SVG Version: 6.00 Build 0)  -->
<svg version="1.1" id="Capa_1" xmlns="http://www.w3.org/2000/svg" xmlns:xlink="http://www.w3.org/1999/xlink" x="0px" y="0px"
	 viewBox="0 0 67.321 67.321" style="enable-background:new 0 0 67.321 67.321;" xml:space="preserve">
<g>
	<g id="group-47svg">
		<path id="path-1_40_" style="fill:#EDC951;" d="M67.321,35.821c0,16.616-13.471,30.086-30.089,30.086
			c-16.619,0-30.089-13.47-30.089-30.086S20.613,5.735,37.232,5.735C53.85,5.735,67.321,19.205,67.321,35.821z"/>
		<path id="path-2_40_" style="fill:#FFFFFF;" d="M55.521,28.253c0,3.705-3.004,6.709-6.71,6.709c-3.705,0-6.71-3.004-6.71-6.709
			c0-3.706,3.005-6.709,6.71-6.709C52.517,21.544,55.521,24.547,55.521,28.253z"/>
		<path id="path-3_40_" style="fill:#FFFFFF;" d="M33.209,28.253c0,3.705-3.005,6.709-6.71,6.709c-3.706,0-6.71-3.004-6.71-6.709
			c0-3.706,3.004-6.709,6.71-6.709C30.204,21.544,33.209,24.547,33.209,28.253z"/>
		<path id="path-4_40_" style="fill:#8B71B5;" d="M45.577,45.47c-4.042-5.982-8.488-2.102-8.488-2.102s-4.467-3.88-8.509,2.102
			c-1.554,2.299-2.656,2.828-3.428,2.61c2.406,3.313,7.163,7.675,11.937-0.509c4.776,8.187,9.529,3.818,11.931,0.506
			C48.246,48.302,47.139,47.78,45.577,45.47z"/>
		<path id="path-5_40_" d="M43.169,33.641c-4.527,0-8.21-3.683-8.21-8.209s3.683-8.209,8.21-8.209s8.21,3.683,8.21,8.209
			S47.696,33.641,43.169,33.641z M43.169,20.223c-2.873,0-5.21,2.337-5.21,5.209s2.337,5.209,5.21,5.209s5.21-2.337,5.21-5.209
			S46.042,20.223,43.169,20.223z"/>
		<path id="path-6_33_" d="M20.858,33.641c-4.528,0-8.21-3.683-8.21-8.209s3.682-8.209,8.21-8.209c4.526,0,8.209,3.683,8.209,8.209
			S25.384,33.641,20.858,33.641z M20.858,20.223c-2.873,0-5.21,2.337-5.21,5.209s2.337,5.209,5.21,5.209
			c2.872,0,5.209-2.337,5.209-5.209S23.73,20.223,20.858,20.223z"/>
		<path id="path-7_31_" d="M46.16,25.028c0,1.875-1.52,3.395-3.395,3.395s-3.396-1.52-3.396-3.395s1.521-3.395,3.396-3.395
			S46.16,23.153,46.16,25.028z"/>
		<path id="path-8_21_" d="M23.848,25.028c0,1.875-1.52,3.395-3.395,3.395s-3.395-1.52-3.395-3.395s1.52-3.395,3.395-3.395
			S23.848,23.153,23.848,25.028z"/>
		<path id="path-9_17_" d="M25.572,50.93c-2.484,0-5-1.656-7.275-4.789c-0.375-0.517-0.382-1.215-0.017-1.739
			c0.351-0.503,0.971-0.738,1.562-0.605c0.138-0.051,0.753-0.357,1.853-1.988c2.234-3.305,4.692-3.999,6.36-3.999
			c1.431,0,2.614,0.488,3.39,0.928c0.776-0.44,1.956-0.928,3.382-0.928c1.665,0,4.118,0.694,6.352,3.999
			c1.256,1.86,1.879,1.996,1.885,1.997c0.615-0.18,1.223,0.056,1.593,0.581c0.369,0.525,0.312,1.23-0.064,1.749
			c-2.273,3.137-4.788,4.794-7.273,4.794c-2.125,0-4.095-1.168-5.873-3.479C29.669,49.762,27.699,50.93,25.572,50.93z M22.03,45.951
			c0.99,1.029,2.252,1.98,3.542,1.98c1.887,0,3.532-2.141,4.579-3.936c0.27-0.461,0.763-0.744,1.296-0.744l0,0
			c0.534,0,1.028,0.283,1.296,0.744c1.047,1.795,2.692,3.936,4.577,3.936c1.286,0,2.544-0.947,3.532-1.974
			c-0.7-0.546-1.412-1.363-2.159-2.468c-1.202-1.778-2.501-2.679-3.866-2.679c-1.34,0-2.383,0.859-2.393,0.867
			c-0.564,0.493-1.405,0.493-1.97,0.003c-0.001-0.001-1.054-0.87-2.409-0.87c-1.369,0-2.672,0.901-3.873,2.679
			C23.438,44.59,22.728,45.405,22.03,45.951z"/>
		<path id="path-10_12_" d="M31.59,64.586C14.171,64.586,0,50.417,0,33C0,15.584,14.171,1.415,31.59,1.415S63.18,15.584,63.18,33
			C63.18,50.417,49.009,64.586,31.59,64.586z M31.59,4.414C15.825,4.414,3,17.238,3,33c0,15.763,12.825,28.587,28.59,28.587
			S60.18,48.763,60.18,33C60.18,17.238,47.355,4.414,31.59,4.414z"/>
	</g>
</g>
<g>
</g>
<g>
</g>
<g>
</g>
<g>
</g>
<g>
</g>
<g>
</g>
<g>
</g>
<g>
</g>
<g>
</g>
<g>
</g>
<g>
</g>
<g>
</g>
<g>
</g>
<g>
</g>
<g>
</g>
</svg>
