<?xml version="1.0" encoding="iso-8859-1"?>
<!-- Generator: Adobe Illustrator 19.1.0, SVG Export Plug-In . SVG Version: 6.00 Build 0)  -->
<svg version="1.1" id="Capa_1" xmlns="http://www.w3.org/2000/svg" xmlns:xlink="http://www.w3.org/1999/xlink" x="0px" y="0px"
	 viewBox="0 0 67.321 67.321" style="enable-background:new 0 0 67.321 67.321;" xml:space="preserve">
<g>
	<g id="group-23svg">
		<path id="path-1_14_" style="fill:#EDC951;" d="M67.321,35.82c0,16.616-13.472,30.086-30.09,30.086S7.142,52.437,7.142,35.82
			S20.613,5.735,37.231,5.735S67.321,19.205,67.321,35.82z"/>
		<path id="path-2_14_" style="fill:#FFFFFF;" d="M55.238,28.722c0,3.412-2.767,6.179-6.18,6.179c-3.413,0-6.18-2.767-6.18-6.179
			c0-3.413,2.767-6.18,6.18-6.18C52.471,22.543,55.238,25.309,55.238,28.722z"/>
		<path id="path-3_14_" style="fill:#FFFFFF;" d="M31.867,28.722c0,3.412-2.767,6.179-6.18,6.179s-6.181-2.767-6.181-6.179
			c0-3.413,2.768-6.18,6.181-6.18S31.867,25.309,31.867,28.722z"/>
		<path id="path-4_14_" d="M47.112,25.53c0,1.726-1.401,3.127-3.128,3.127c-1.727,0-3.127-1.401-3.127-3.127
			c0-1.727,1.4-3.127,3.127-3.127C45.711,22.403,47.112,23.802,47.112,25.53z"/>
		<path id="path-5_14_" d="M44.357,33.581c-4.235,0-7.681-3.445-7.681-7.679s3.446-7.679,7.681-7.679
			c4.234,0,7.679,3.445,7.679,7.679S48.591,33.581,44.357,33.581z M44.357,21.222c-2.581,0-4.681,2.1-4.681,4.68
			s2.1,4.679,4.681,4.679c2.58,0,4.679-2.099,4.679-4.679S46.937,21.222,44.357,21.222z"/>
		<path id="path-6_10_" d="M20.985,33.581c-4.234,0-7.68-3.445-7.68-7.679s3.446-7.679,7.68-7.679c4.235,0,7.68,3.445,7.68,7.679
			S25.22,33.581,20.985,33.581z M20.985,21.222c-2.581,0-4.68,2.1-4.68,4.68s2.099,4.679,4.68,4.679s4.68-2.099,4.68-4.679
			S23.566,21.222,20.985,21.222z"/>
		<path id="path-7_9_" d="M23.74,25.53c0,1.726-1.4,3.127-3.127,3.127s-3.127-1.401-3.127-3.127c0-1.727,1.4-3.127,3.127-3.127
			S23.74,23.802,23.74,25.53z"/>
		<path id="path-8_7_" d="M31.59,64.586C14.171,64.586,0,50.417,0,33C0,15.584,14.171,1.415,31.59,1.415
			c17.418,0,31.589,14.169,31.589,31.585C63.179,50.417,49.008,64.586,31.59,64.586z M31.59,4.414C15.825,4.414,3,17.238,3,33
			c0,15.763,12.825,28.586,28.59,28.586c15.764,0,28.589-12.823,28.589-28.586C60.179,17.238,47.354,4.414,31.59,4.414z"/>
	</g>
</g>
<g>
</g>
<g>
</g>
<g>
</g>
<g>
</g>
<g>
</g>
<g>
</g>
<g>
</g>
<g>
</g>
<g>
</g>
<g>
</g>
<g>
</g>
<g>
</g>
<g>
</g>
<g>
</g>
<g>
</g>
</svg>
