<?xml version="1.0" encoding="iso-8859-1"?>
<!-- Generator: Adobe Illustrator 19.1.0, SVG Export Plug-In . SVG Version: 6.00 Build 0)  -->
<svg version="1.1" id="Capa_1" xmlns="http://www.w3.org/2000/svg" xmlns:xlink="http://www.w3.org/1999/xlink" x="0px" y="0px"
	 viewBox="0 0 64.5 64.5" style="enable-background:new 0 0 64.5 64.5;" xml:space="preserve">
<g>
	<g id="group-48svg">
		<path id="path-1_41_" style="fill:#EDC951;" d="M64.5,34.853c0,16.372-13.274,29.643-29.648,29.643
			c-16.373,0-29.646-13.271-29.646-29.643S18.479,5.209,34.852,5.209C51.226,5.209,64.5,18.481,64.5,34.853z"/>
		<path id="path-2_41_" style="fill:#FFFFFF;" d="M52.873,29.087c0,3.651-2.96,6.61-6.611,6.61c-3.652,0-6.612-2.959-6.612-6.61
			s2.96-6.61,6.612-6.61C49.913,22.477,52.873,25.436,52.873,29.087z"/>
		<path id="path-3_41_" style="fill:#FFFFFF;" d="M30.889,29.087c0,3.651-2.96,6.61-6.611,6.61s-6.611-2.959-6.611-6.61
			s2.96-6.61,6.611-6.61S30.889,25.436,30.889,29.087z"/>
		<path id="path-4_41_" d="M45.503,25.909c0,1.848-1.498,3.346-3.346,3.346s-3.345-1.498-3.345-3.346
			c0-1.847,1.497-3.344,3.345-3.344S45.503,24.062,45.503,25.909z"/>
		<path id="path-5_41_" d="M42.556,34.418c-4.473,0-8.112-3.639-8.112-8.11c0-4.472,3.639-8.111,8.112-8.111
			c4.472,0,8.111,3.639,8.111,8.111C50.667,30.779,47.028,34.418,42.556,34.418z M42.556,21.197c-2.819,0-5.112,2.293-5.112,5.111
			s2.293,5.11,5.112,5.11c2.818,0,5.111-2.292,5.111-5.11S45.374,21.197,42.556,21.197z"/>
		<path id="path-6_34_" d="M20.572,34.418c-4.472,0-8.111-3.639-8.111-8.11c0-4.472,3.639-8.111,8.111-8.111
			c4.473,0,8.111,3.639,8.111,8.111C28.683,30.779,25.045,34.418,20.572,34.418z M20.572,21.197c-2.818,0-5.111,2.293-5.111,5.111
			s2.293,5.11,5.111,5.11s5.111-2.292,5.111-5.11S23.39,21.197,20.572,21.197z"/>
		<path id="path-7_32_" d="M23.519,25.909c0,1.848-1.498,3.346-3.345,3.346c-1.848,0-3.346-1.498-3.346-3.346
			c0-1.847,1.498-3.344,3.346-3.344C22.021,22.565,23.519,24.062,23.519,25.909z"/>
		<path id="path-8_22_" d="M26.467,49.47c-0.48,0-0.951-0.23-1.242-0.656c-0.465-0.685-0.288-1.618,0.397-2.084l10.992-7.476
			c0.686-0.465,1.618-0.289,2.084,0.396s0.288,1.618-0.396,2.084L27.309,49.21C27.051,49.386,26.758,49.47,26.467,49.47z"/>
		<path id="path-9_18_" d="M37.457,49.47c-0.291,0-0.584-0.084-0.843-0.26l-10.992-7.476c-0.685-0.466-0.862-1.399-0.397-2.084
			c0.466-0.686,1.399-0.861,2.084-0.396l10.993,7.476c0.684,0.466,0.862,1.399,0.396,2.084C38.408,49.24,37.936,49.47,37.457,49.47z
			"/>
		<path id="path-10_13_" d="M31.147,62.291C13.973,62.291,0,48.32,0,31.147C0,13.975,13.973,0.004,31.147,0.004
			s31.147,13.971,31.147,31.143C62.294,48.32,48.321,62.291,31.147,62.291z M31.147,3.004C15.627,3.004,3,15.629,3,31.147
			c0,15.519,12.627,28.144,28.147,28.144c15.521,0,28.147-12.625,28.147-28.144C59.294,15.629,46.668,3.004,31.147,3.004z"/>
	</g>
</g>
<g>
</g>
<g>
</g>
<g>
</g>
<g>
</g>
<g>
</g>
<g>
</g>
<g>
</g>
<g>
</g>
<g>
</g>
<g>
</g>
<g>
</g>
<g>
</g>
<g>
</g>
<g>
</g>
<g>
</g>
</svg>
