<?xml version="1.0" encoding="iso-8859-1"?>
<!-- Generator: Adobe Illustrator 19.1.0, SVG Export Plug-In . SVG Version: 6.00 Build 0)  -->
<svg version="1.1" id="Capa_1" xmlns="http://www.w3.org/2000/svg" xmlns:xlink="http://www.w3.org/1999/xlink" x="0px" y="0px"
	 viewBox="0 0 66.381 66.381" style="enable-background:new 0 0 66.381 66.381;" xml:space="preserve">
<g>
	<g id="group-21svg">
		<path id="path-1_12_" style="fill:#EDC951;" d="M66.381,35.35c0,16.616-13.473,30.086-30.09,30.086
			c-16.618,0-30.09-13.47-30.09-30.086S19.673,5.265,36.291,5.265C52.908,5.265,66.381,18.735,66.381,35.35z"/>
		<path id="path-2_12_" style="fill:#FFFFFF;" d="M55.99,31.073c0,3.375-2.736,6.111-6.112,6.111c-3.375,0-6.112-2.736-6.112-6.111
			c0-3.375,2.737-6.111,6.112-6.111C53.254,24.962,55.99,27.698,55.99,31.073z"/>
		<path id="path-3_12_" style="fill:#FFFFFF;" d="M30.79,31.073c0,3.375-2.736,6.111-6.112,6.111c-3.375,0-6.111-2.736-6.111-6.111
			c0-3.375,2.736-6.111,6.111-6.111C28.054,24.962,30.79,27.698,30.79,31.073z"/>
		<path id="path-4_12_" d="M48.092,25.526c0,2.492-2.022,4.513-4.514,4.513c-2.492,0-4.513-2.021-4.513-4.513
			c0-2.493,2.021-4.513,4.513-4.513C46.07,21.013,48.092,23.033,48.092,25.526z"/>
		<path id="path-5_12_" d="M45.177,35.862c-4.197,0-7.612-3.414-7.612-7.61c0-4.197,3.415-7.611,7.612-7.611
			s7.611,3.414,7.611,7.611C52.788,32.449,49.374,35.862,45.177,35.862z M45.177,23.641c-2.543,0-4.612,2.069-4.612,4.612
			c0,2.542,2.069,4.611,4.612,4.611c2.543,0,4.611-2.069,4.611-4.611C49.788,25.71,47.72,23.641,45.177,23.641z"/>
		<path id="path-6_9_" d="M19.977,35.862c-4.198,0-7.613-3.414-7.613-7.61c0-4.197,3.415-7.611,7.613-7.611
			c4.197,0,7.612,3.414,7.612,7.611C27.589,32.449,24.174,35.862,19.977,35.862z M19.977,23.641c-2.543,0-4.613,2.069-4.613,4.612
			c0,2.542,2.07,4.611,4.613,4.611s4.612-2.069,4.612-4.611C24.589,25.71,22.52,23.641,19.977,23.641z"/>
		<path id="path-7_8_" d="M22.892,25.526c0,2.492-2.021,4.513-4.514,4.513c-2.492,0-4.514-2.021-4.514-4.513
			c0-2.493,2.022-4.513,4.514-4.513C20.871,21.013,22.892,23.033,22.892,25.526z"/>
		<path id="path-8_6_" d="M31.589,64.116C14.171,64.116,0,49.946,0,32.529C0,15.114,14.171,0.945,31.589,0.945
			c17.419,0,31.59,14.169,31.59,31.585C63.179,49.946,49.008,64.116,31.589,64.116z M31.589,3.944C15.825,3.944,3,16.768,3,32.529
			c0,15.763,12.825,28.587,28.589,28.587c15.765,0,28.59-12.824,28.59-28.587C60.179,16.768,47.354,3.944,31.589,3.944z"/>
	</g>
</g>
<g>
</g>
<g>
</g>
<g>
</g>
<g>
</g>
<g>
</g>
<g>
</g>
<g>
</g>
<g>
</g>
<g>
</g>
<g>
</g>
<g>
</g>
<g>
</g>
<g>
</g>
<g>
</g>
<g>
</g>
</svg>
