<?xml version="1.0" encoding="iso-8859-1"?>
<!-- Generator: Adobe Illustrator 19.1.0, SVG Export Plug-In . SVG Version: 6.00 Build 0)  -->
<svg version="1.1" id="Capa_1" xmlns="http://www.w3.org/2000/svg" xmlns:xlink="http://www.w3.org/1999/xlink" x="0px" y="0px"
	 viewBox="0 0 66.353 66.353" style="enable-background:new 0 0 66.353 66.353;" xml:space="preserve">
<g>
	<g id="group-28svg">
		<path id="path-1_19_" style="fill:#EDC951;" d="M66.353,35.779c0,16.372-13.273,29.644-29.647,29.644
			c-16.373,0-29.647-13.272-29.647-29.644S20.333,6.135,36.706,6.135C53.08,6.135,66.353,19.407,66.353,35.779z"/>
		<path id="path-2_19_" style="fill:#53ECF4;" d="M26.016,15.342c0.482,4.098-1.518,5.949-5.645,5.949s-5.913-1.862-5.342-5.949
			c0.609-4.352,5.342-9.299,5.342-9.299S25.533,11.219,26.016,15.342z"/>
		<path id="path-3_19_" d="M45.905,26.682c0,1.98-1.606,3.586-3.586,3.586c-1.981,0-3.587-1.606-3.587-3.586
			c0-1.981,1.606-3.586,3.587-3.586C44.299,23.096,45.905,24.701,45.905,26.682z"/>
		<path id="path-4_19_" d="M25.284,26.682c0,1.98-1.606,3.586-3.587,3.586s-3.586-1.606-3.586-3.586
			c0-1.981,1.605-3.586,3.586-3.586S25.284,24.701,25.284,26.682z"/>
		<path id="path-5_19_" d="M44.759,51.502c-0.828,0-1.5-0.671-1.5-1.5c0-4.659-3.716-8.308-8.461-8.308h-4.982
			c-4.745,0-8.462,3.582-8.462,8.155c0,0.828-0.672,1.5-1.5,1.5s-1.5-0.672-1.5-1.5c0-6.255,5.035-11.154,11.462-11.154h4.982
			c6.32,0,11.461,5.072,11.461,11.307C46.259,50.831,45.588,51.502,44.759,51.502z"/>
		<path id="path-6_15_" d="M15.738,20.012c-2.6,0-4.437-0.66-5.617-2.017c-1.143-1.314-1.549-3.211-1.209-5.64
			c0.668-4.776,5.535-9.911,5.742-10.127c0.279-0.292,0.664-0.459,1.068-0.463c0.384-0.013,0.792,0.154,1.078,0.441
			c0.566,0.567,5.544,5.673,6.075,10.182c0.277,2.371-0.175,4.24-1.346,5.555C20.307,19.316,18.359,20.012,15.738,20.012z
			 M15.769,5.512c-1.339,1.632-3.519,4.634-3.887,7.258c-0.213,1.532-0.045,2.627,0.502,3.256c0.57,0.654,1.698,0.986,3.354,0.986
			c1.727,0,2.922-0.357,3.55-1.063c0.576-0.647,0.781-1.728,0.606-3.212C19.622,10.413,17.366,7.359,15.769,5.512z"/>
		<path id="path-7_14_" d="M31.147,63.217C13.972,63.217,0,49.246,0,32.074C0,23.529,3.392,15.558,9.552,9.63
			c0.597-0.575,1.546-0.557,2.121,0.041c0.575,0.597,0.556,1.546-0.041,2.12C6.065,17.149,3,24.352,3,32.074
			c0,15.518,12.627,28.143,28.147,28.143c15.521,0,28.147-12.625,28.147-28.143c0-15.519-12.626-28.144-28.147-28.144
			c-4.243,0-8.32,0.92-12.119,2.735c-0.745,0.355-1.643,0.04-2-0.707c-0.357-0.748-0.041-1.643,0.707-2
			C21.94,1.949,26.453,0.93,31.147,0.93c17.174,0,31.147,13.971,31.147,31.144C62.294,49.246,48.321,63.217,31.147,63.217z"/>
	</g>
</g>
<g>
</g>
<g>
</g>
<g>
</g>
<g>
</g>
<g>
</g>
<g>
</g>
<g>
</g>
<g>
</g>
<g>
</g>
<g>
</g>
<g>
</g>
<g>
</g>
<g>
</g>
<g>
</g>
<g>
</g>
</svg>
