<?xml version="1.0" encoding="iso-8859-1"?>
<!-- Generator: Adobe Illustrator 19.1.0, SVG Export Plug-In . SVG Version: 6.00 Build 0)  -->
<svg version="1.1" id="Capa_1" xmlns="http://www.w3.org/2000/svg" xmlns:xlink="http://www.w3.org/1999/xlink" x="0px" y="0px"
	 viewBox="0 0 65.427 65.427" style="enable-background:new 0 0 65.427 65.427;" xml:space="preserve">
<g>
	<g id="group-29svg">
		<path id="path-1_20_" style="fill:#EDC951;" d="M65.427,35.316c0,16.372-13.274,29.644-29.648,29.644
			c-16.373,0-29.646-13.272-29.646-29.644c0-16.371,13.273-29.643,29.646-29.643C52.153,5.673,65.427,18.945,65.427,35.316z"/>
		<path id="path-2_20_" style="fill:#53ECF4;" d="M26.017,14.879c0.48,4.098-1.519,5.95-5.646,5.95s-5.913-1.863-5.342-5.95
			c0.61-4.351,5.342-9.298,5.342-9.298S25.533,10.756,26.017,14.879z"/>
		<path id="path-3_20_" d="M44.76,51.202c-0.828,0-1.5-0.671-1.5-1.499c0-4.628-3.717-8.254-8.462-8.254h-4.982
			c-4.824,0-8.462,3.459-8.462,8.046c0,0.829-0.671,1.5-1.5,1.5c-0.828,0-1.5-0.671-1.5-1.5c0-6.194,5.036-11.045,11.462-11.045
			h4.982c6.427,0,11.462,4.942,11.462,11.253C46.26,50.531,45.588,51.202,44.76,51.202z"/>
		<path id="path-4_20_" d="M15.738,19.549c-2.599,0-4.436-0.66-5.617-2.017c-1.143-1.313-1.549-3.211-1.209-5.64
			c0.668-4.776,5.535-9.911,5.742-10.127c0.28-0.291,0.664-0.458,1.069-0.463c0.405,0.004,0.793,0.155,1.078,0.441
			c0.565,0.567,5.544,5.673,6.074,10.182c0.277,2.371-0.175,4.24-1.346,5.556C20.307,18.854,18.359,19.549,15.738,19.549z
			 M15.769,5.049c-1.337,1.631-3.519,4.634-3.886,7.259c-0.214,1.531-0.046,2.626,0.502,3.256c0.569,0.654,1.697,0.986,3.353,0.986
			c1.728,0,2.922-0.358,3.55-1.063c0.576-0.648,0.781-1.729,0.606-3.212C19.621,9.943,17.366,6.892,15.769,5.049z"/>
		<path id="path-5_20_" d="M31.147,62.754C13.973,62.754,0,48.783,0,31.611c0-8.546,3.393-16.516,9.553-22.444
			c0.596-0.574,1.545-0.556,2.121,0.041c0.574,0.597,0.555,1.547-0.041,2.121C6.065,16.686,3,23.888,3,31.611
			C3,47.13,15.627,59.755,31.147,59.755c15.521,0,28.147-12.625,28.147-28.144S46.668,3.467,31.147,3.467
			c-4.243,0-8.32,0.92-12.119,2.735c-0.746,0.356-1.642,0.04-2-0.707c-0.357-0.747-0.041-1.642,0.707-2
			c4.205-2.009,8.718-3.027,13.412-3.027c17.174,0,31.147,13.971,31.147,31.143S48.321,62.754,31.147,62.754z"/>
		<path id="path-6_16_" d="M24.371,28.836c-0.384,0-0.768-0.146-1.061-0.439c-1.422-1.422-3.772-1.47-5.135-0.109
			c-0.586,0.586-1.535,0.586-2.121,0c-0.586-0.586-0.586-1.536,0-2.121c2.51-2.513,6.806-2.463,9.378,0.109
			c0.586,0.585,0.586,1.535,0,2.121C25.139,28.69,24.755,28.836,24.371,28.836z"/>
		<path id="path-7_15_" d="M44.775,28.836c-0.383,0-0.767-0.146-1.06-0.439c-1.423-1.422-3.774-1.47-5.136-0.109
			c-0.586,0.586-1.535,0.586-2.121,0c-0.586-0.586-0.586-1.536,0-2.121c2.512-2.513,6.806-2.463,9.378,0.109
			c0.586,0.585,0.586,1.535,0,2.121C45.543,28.69,45.159,28.836,44.775,28.836z"/>
	</g>
</g>
<g>
</g>
<g>
</g>
<g>
</g>
<g>
</g>
<g>
</g>
<g>
</g>
<g>
</g>
<g>
</g>
<g>
</g>
<g>
</g>
<g>
</g>
<g>
</g>
<g>
</g>
<g>
</g>
<g>
</g>
</svg>
