<?xml version="1.0" encoding="iso-8859-1"?>
<!-- Generator: Adobe Illustrator 19.1.0, SVG Export Plug-In . SVG Version: 6.00 Build 0)  -->
<svg version="1.1" id="Capa_1" xmlns="http://www.w3.org/2000/svg" xmlns:xlink="http://www.w3.org/1999/xlink" x="0px" y="0px"
	 viewBox="0 0 66.381 66.381" style="enable-background:new 0 0 66.381 66.381;" xml:space="preserve">
<g>
	<g id="group-19svg">
		<path id="path-1_9_" style="fill:#EDC951;" d="M66.381,35.35c0,16.616-13.472,30.086-30.09,30.086S6.201,51.966,6.201,35.35
			S19.673,5.265,36.291,5.265S66.381,18.735,66.381,35.35z"/>
		<path id="path-2_9_" style="fill:#8B71B5;" d="M50.192,51.936c0-6.026-4.886-10.727-10.913-10.727h-5.457
			c-6.026,0-10.912,4.793-10.912,10.819L50.192,51.936z"/>
		<path id="path-3_9_" d="M17.282,28.769c-0.591,0-1.152-0.352-1.389-0.934c-0.314-0.767,0.054-1.642,0.822-1.955l4.556-1.858
			l-4.605-2.563c-0.724-0.402-0.984-1.316-0.581-2.039c0.403-0.724,1.314-0.986,2.04-0.581l7.335,4.082
			c0.504,0.28,0.803,0.825,0.768,1.4c-0.035,0.576-0.397,1.081-0.931,1.299l-7.449,3.038C17.662,28.733,17.471,28.769,17.282,28.769
			z"/>
		<path id="path-4_9_" d="M45.355,29.505c-0.232,0-0.466-0.053-0.686-0.166l-7.335-3.774c-0.491-0.254-0.805-0.756-0.813-1.31
			c-0.009-0.552,0.287-1.065,0.77-1.334l7.335-4.082c0.724-0.405,1.637-0.143,2.04,0.581c0.403,0.723,0.143,1.637-0.581,2.039
			l-4.887,2.72l4.844,2.492c0.736,0.38,1.026,1.284,0.648,2.02C46.423,29.208,45.899,29.505,45.355,29.505z"/>
		<path id="path-5_9_" d="M18.209,50.208c-0.397,0-0.778-0.163-1.059-0.443c-0.283-0.282-0.441-0.666-0.441-1.064
			c0-6.887,5.568-12.491,12.412-12.491h5.456c6.845,0,12.413,5.584,12.413,12.449c0,0.827-0.67,1.503-1.498,1.504l-27.281,0.045
			C18.21,50.208,18.21,50.208,18.209,50.208z M29.121,39.208c-4.682,0-8.578,3.466-9.294,7.987l24.045-0.035
			c-0.717-4.501-4.612-7.952-9.295-7.952H29.121z"/>
		<path id="path-6_7_" d="M31.589,64.116C14.171,64.116,0,49.946,0,32.529C0,15.114,14.171,0.945,31.589,0.945
			c17.419,0,31.59,14.169,31.59,31.585C63.179,49.946,49.008,64.116,31.589,64.116z M31.589,3.944C15.825,3.944,3,16.768,3,32.529
			c0,15.763,12.825,28.587,28.589,28.587c15.765,0,28.59-12.824,28.59-28.587C60.179,16.768,47.354,3.944,31.589,3.944z"/>
		<path id="path-7_7_" d="M45.491,49.571c-0.413,0-0.823-0.169-1.119-0.501c-0.47-0.52-11.162-12.046-25.185-0.005
			c-0.629,0.54-1.578,0.468-2.116-0.161c-0.54-0.628-0.467-1.575,0.161-2.115c16.301-13.993,29.25,0.139,29.377,0.283
			c0.552,0.619,0.498,1.567-0.12,2.118C46.203,49.445,45.846,49.571,45.491,49.571z"/>
	</g>
</g>
<g>
</g>
<g>
</g>
<g>
</g>
<g>
</g>
<g>
</g>
<g>
</g>
<g>
</g>
<g>
</g>
<g>
</g>
<g>
</g>
<g>
</g>
<g>
</g>
<g>
</g>
<g>
</g>
<g>
</g>
</svg>
