<?xml version="1.0" encoding="iso-8859-1"?>
<!-- Generator: Adobe Illustrator 19.1.0, SVG Export Plug-In . SVG Version: 6.00 Build 0)  -->
<svg version="1.1" id="Capa_1" xmlns="http://www.w3.org/2000/svg" xmlns:xlink="http://www.w3.org/1999/xlink" x="0px" y="0px"
	 viewBox="0 0 65.427 65.427" style="enable-background:new 0 0 65.427 65.427;" xml:space="preserve">
<g>
	<g id="group-30svg">
		<path id="path-1_22_" style="fill:#EDC951;" d="M65.427,35.316c0,16.372-13.274,29.644-29.648,29.644
			c-16.373,0-29.646-13.272-29.646-29.644S19.406,5.672,35.779,5.672C52.153,5.672,65.427,18.944,65.427,35.316z"/>
		<path id="path-2_22_" style="fill:#53ECF4;" d="M26.017,14.879c0.48,4.098-1.519,5.949-5.646,5.949s-5.913-1.862-5.342-5.949
			c0.61-4.352,5.342-9.299,5.342-9.299S25.533,10.756,26.017,14.879z"/>
		<path id="path-3_22_" d="M44.76,51.039c-0.828,0-1.5-0.671-1.5-1.5c0-4.659-3.717-8.308-8.462-8.308h-4.982
			c-4.745,0-8.462,3.582-8.462,8.155c0,0.828-0.671,1.5-1.5,1.5c-0.828,0-1.5-0.672-1.5-1.5c0-6.255,5.036-11.154,11.462-11.154
			h4.982c6.32,0,11.462,5.072,11.462,11.307C46.26,50.368,45.588,51.039,44.76,51.039z"/>
		<path id="path-4_22_" d="M15.738,19.549c-2.599,0-4.436-0.66-5.617-2.017c-1.143-1.314-1.549-3.211-1.209-5.64
			c0.668-4.776,5.535-9.911,5.742-10.127c0.28-0.292,0.664-0.459,1.069-0.463c0.37-0.013,0.792,0.154,1.078,0.441
			c0.565,0.567,5.544,5.673,6.074,10.182c0.277,2.371-0.175,4.24-1.346,5.555C20.307,18.853,18.359,19.549,15.738,19.549z
			 M15.769,5.049c-1.338,1.632-3.519,4.634-3.886,7.258c-0.214,1.532-0.046,2.627,0.502,3.256c0.569,0.654,1.697,0.986,3.353,0.986
			c1.728,0,2.922-0.357,3.55-1.063c0.576-0.647,0.781-1.728,0.606-3.212C19.622,9.95,17.366,6.896,15.769,5.049z"/>
		<path id="path-5_22_" d="M31.147,62.754C13.973,62.754,0,48.783,0,31.611c0-8.546,3.393-16.517,9.553-22.444
			c0.596-0.575,1.545-0.557,2.121,0.041c0.574,0.597,0.555,1.546-0.041,2.121C6.065,16.685,3,23.888,3,31.611
			c0,15.518,12.627,28.143,28.147,28.143c15.521,0,28.147-12.625,28.147-28.143c0-15.519-12.626-28.144-28.147-28.144
			c-4.243,0-8.32,0.92-12.119,2.735c-0.747,0.355-1.642,0.04-2-0.707c-0.357-0.748-0.041-1.643,0.707-2
			c4.205-2.009,8.718-3.028,13.412-3.028c17.174,0,31.147,13.971,31.147,31.144C62.294,48.783,48.321,62.754,31.147,62.754z"/>
		<path id="path-6_17_" d="M23.269,31.385c-0.828,0-1.5-0.671-1.5-1.5c0-2.01-1.626-3.708-3.553-3.708c-0.828,0-1.5-0.671-1.5-1.5
			c0-0.828,0.672-1.5,1.5-1.5c3.552,0,6.553,3.072,6.553,6.708C24.769,30.714,24.098,31.385,23.269,31.385z"/>
		<path id="path-7_16_" d="M38.543,31.308c-0.828,0-1.5-0.671-1.5-1.5c0-3.552,3.072-6.553,6.708-6.553c0.828,0,1.5,0.671,1.5,1.499
			c0,0.829-0.672,1.5-1.5,1.5c-2.01,0-3.708,1.627-3.708,3.554C40.043,30.637,39.371,31.308,38.543,31.308z"/>
	</g>
</g>
<g>
</g>
<g>
</g>
<g>
</g>
<g>
</g>
<g>
</g>
<g>
</g>
<g>
</g>
<g>
</g>
<g>
</g>
<g>
</g>
<g>
</g>
<g>
</g>
<g>
</g>
<g>
</g>
<g>
</g>
</svg>
