<?xml version="1.0" encoding="iso-8859-1"?>
<!-- Generator: Adobe Illustrator 19.1.0, SVG Export Plug-In . SVG Version: 6.00 Build 0)  -->
<svg version="1.1" id="Capa_1" xmlns="http://www.w3.org/2000/svg" xmlns:xlink="http://www.w3.org/1999/xlink" x="0px" y="0px"
	 viewBox="0 0 66.409 66.409" style="enable-background:new 0 0 66.409 66.409;" xml:space="preserve">
<g>
	<g id="group-12svg">
		<path id="path-1_2_" style="fill:#EDC951;" d="M66.409,34.909c0,16.868-13.676,30.542-30.545,30.542
			c-16.87,0-30.546-13.674-30.546-30.542S18.994,4.367,35.864,4.367C52.733,4.367,66.409,18.041,66.409,34.909z"/>
		<path id="path-2_2_" style="fill:#8B71B5;" d="M50.93,52.781c0-6.118-4.96-11.058-11.078-11.058h-5.54
			c-6.118,0-11.077,4.887-11.077,11.005L50.93,52.781z"/>
		<path id="path-3_2_" d="M25.063,24.396c-0.383,0-0.767-0.147-1.06-0.44c-1.482-1.481-3.934-1.533-5.355-0.112
			c-0.586,0.585-1.536,0.585-2.121,0c-0.586-0.586-0.586-1.536,0-2.121c2.572-2.57,6.967-2.518,9.597,0.113
			c0.586,0.585,0.586,1.535,0,2.12C25.831,24.249,25.447,24.396,25.063,24.396z"/>
		<path id="path-4_2_" d="M46.086,24.396c-0.383,0-0.767-0.147-1.06-0.44c-1.483-1.481-3.936-1.532-5.356-0.112
			c-0.586,0.585-1.536,0.585-2.121,0c-0.586-0.586-0.586-1.536,0-2.121c2.571-2.571,6.966-2.519,9.598,0.113
			c0.586,0.585,0.586,1.535,0,2.12C46.854,24.249,46.47,24.396,46.086,24.396z"/>
		<path id="path-5_2_" d="M46.157,50.722c-0.004,0-0.008,0-0.012,0L18.45,50.698c-0.824-0.006-1.488-0.581-1.488-1.405
			c0-6.983,5.642-12.57,12.578-12.57h5.539c6.818,0,12.578,5.897,12.578,12.876c0,0.4-0.16,0.595-0.444,0.877
			C46.932,50.754,46.552,50.722,46.157,50.722z M20.075,47.9l24.464,0.187c-0.73-4.666-4.766-8.364-9.46-8.364H29.54
			C24.76,39.723,20.786,43.275,20.075,47.9z"/>
		<path id="path-6" d="M32.045,65.042C14.375,65.042,0,50.668,0,33S14.375,0.959,32.045,0.959S64.091,15.332,64.091,33
			S49.715,65.042,32.045,65.042z M32.045,3.958C16.03,3.958,3,16.987,3,33c0,16.014,13.03,29.042,29.045,29.042
			c16.016,0,29.046-13.028,29.046-29.042C61.091,16.987,48.061,3.958,32.045,3.958z"/>
		<path id="path-7" d="M46.157,51.231c-0.412,0-0.822-0.169-1.118-0.499c-0.471-0.522-11.339-12.248-25.6-0.008
			c-0.628,0.54-1.574,0.468-2.115-0.161c-0.54-0.628-0.468-1.575,0.161-2.115c16.533-14.194,29.66,0.138,29.791,0.285
			c0.552,0.618,0.497,1.566-0.121,2.118C46.869,51.106,46.513,51.231,46.157,51.231z"/>
	</g>
</g>
<g>
</g>
<g>
</g>
<g>
</g>
<g>
</g>
<g>
</g>
<g>
</g>
<g>
</g>
<g>
</g>
<g>
</g>
<g>
</g>
<g>
</g>
<g>
</g>
<g>
</g>
<g>
</g>
<g>
</g>
</svg>
