<?xml version="1.0" encoding="iso-8859-1"?>
<!-- Generator: Adobe Illustrator 19.1.0, SVG Export Plug-In . SVG Version: 6.00 Build 0)  -->
<svg version="1.1" id="Capa_1" xmlns="http://www.w3.org/2000/svg" xmlns:xlink="http://www.w3.org/1999/xlink" x="0px" y="0px"
	 viewBox="0 0 66.381 66.381" style="enable-background:new 0 0 66.381 66.381;" xml:space="preserve">
<g>
	<g id="group-13svg">
		<path id="path-1_3_" style="fill:#EDC951;" d="M66.381,35.35c0,16.616-13.472,30.086-30.09,30.086S6.202,51.966,6.202,35.35
			S19.673,5.264,36.291,5.264S66.381,18.734,66.381,35.35z"/>
		<path id="path-2_3_" style="fill:#FFFFFF;" d="M51.547,29.977c0,2.961-2.401,5.361-5.362,5.361c-2.961,0-5.361-2.4-5.361-5.361
			c0-2.961,2.4-5.361,5.361-5.361C49.146,24.616,51.547,27.016,51.547,29.977z"/>
		<path id="path-3_3_" style="fill:#FFFFFF;" d="M29.672,29.977c0,2.961-2.4,5.361-5.361,5.361s-5.362-2.4-5.362-5.361
			c0-2.961,2.401-5.361,5.362-5.361S29.672,27.016,29.672,29.977z"/>
		<path id="path-4_3_" d="M44.981,24.814c0,2.187-1.773,3.959-3.959,3.959c-2.187,0-3.959-1.772-3.959-3.959
			c0-2.186,1.772-3.959,3.959-3.959C43.208,20.855,44.981,22.628,44.981,24.814z"/>
		<path id="path-5_3_" d="M42.424,34.017c-3.783,0-6.861-3.078-6.861-6.86c0-3.783,3.078-6.861,6.861-6.861s6.861,3.078,6.861,6.861
			C49.285,30.939,46.207,34.017,42.424,34.017z M42.424,23.296c-2.129,0-3.861,1.732-3.861,3.861c0,2.128,1.732,3.86,3.861,3.86
			s3.861-1.732,3.861-3.86C46.285,25.028,44.553,23.296,42.424,23.296z"/>
		<path id="path-6_1_" d="M20.549,34.017c-3.783,0-6.861-3.078-6.861-6.86c0-3.783,3.078-6.861,6.861-6.861
			c3.784,0,6.862,3.078,6.862,6.861C27.411,30.939,24.333,34.017,20.549,34.017z M20.549,23.296c-2.128,0-3.861,1.732-3.861,3.861
			c0,2.128,1.733,3.86,3.861,3.86c2.129,0,3.862-1.732,3.862-3.86C24.411,25.028,22.678,23.296,20.549,23.296z"/>
		<path id="path-7_1_" d="M23.107,24.814c0,2.187-1.773,3.959-3.959,3.959c-2.187,0-3.96-1.772-3.96-3.959
			c0-2.186,1.773-3.959,3.96-3.959C21.334,20.855,23.107,22.628,23.107,24.814z"/>
		<path id="path-8" d="M31.59,64.116C14.172,64.116,0,49.946,0,32.529C0,15.113,14.172,0.944,31.59,0.944
			s31.589,14.169,31.589,31.585C63.179,49.946,49.008,64.116,31.59,64.116z M31.59,3.943C15.825,3.943,3,16.767,3,32.529
			c0,15.763,12.825,28.587,28.59,28.587c15.764,0,28.589-12.824,28.589-28.587C60.179,16.767,47.354,3.943,31.59,3.943z"/>
		<path id="path-9" d="M44.956,47.775h-28c-0.829,0-1.5-0.672-1.5-1.5c0-0.829,0.671-1.5,1.5-1.5h28c0.828,0,1.5,0.671,1.5,1.5
			C46.456,47.103,45.784,47.775,44.956,47.775z"/>
	</g>
</g>
<g>
</g>
<g>
</g>
<g>
</g>
<g>
</g>
<g>
</g>
<g>
</g>
<g>
</g>
<g>
</g>
<g>
</g>
<g>
</g>
<g>
</g>
<g>
</g>
<g>
</g>
<g>
</g>
<g>
</g>
</svg>
