<?xml version="1.0" encoding="iso-8859-1"?>
<!-- Generator: Adobe Illustrator 19.1.0, SVG Export Plug-In . SVG Version: 6.00 Build 0)  -->
<svg version="1.1" id="Capa_1" xmlns="http://www.w3.org/2000/svg" xmlns:xlink="http://www.w3.org/1999/xlink" x="0px" y="0px"
	 viewBox="0 0 65.426 65.426" style="enable-background:new 0 0 65.426 65.426;" xml:space="preserve">
<g>
	<g id="group-49svg">
		<path id="path-1_42_" style="fill:#EDC951;" d="M65.426,35.316c0,16.371-13.274,29.643-29.647,29.643
			c-16.374,0-29.647-13.272-29.647-29.643c0-16.372,13.273-29.644,29.647-29.644C52.152,5.672,65.426,18.944,65.426,35.316z"/>
		<path id="path-2_42_" style="fill:#8B71B5;" d="M42.672,47.614c0,3.899-3.161,7.059-7.06,7.059c-3.898,0-7.059-3.16-7.059-7.059
			c0-3.898,3.161-7.058,7.059-7.058C39.511,40.556,42.672,43.716,42.672,47.614z"/>
		<path id="path-3_42_" d="M31.907,53.394c-4.72,0-8.56-3.839-8.56-8.559c0-4.719,3.84-8.558,8.56-8.558
			c4.719,0,8.559,3.839,8.559,8.558C40.466,49.555,36.626,53.394,31.907,53.394z M31.907,39.277c-3.065,0-5.56,2.493-5.56,5.558
			c0,3.066,2.495,5.559,5.56,5.559s5.559-2.493,5.559-5.559C37.466,41.77,34.972,39.277,31.907,39.277z"/>
		<path id="path-4_42_" d="M43.886,31.022c-1.976,0-3.871-0.688-5.402-1.973c-1.439-1.209-2.322-2.906-2.486-4.778
			c-0.163-1.873,0.413-3.697,1.622-5.137c2.101-2.505,5.85-2.831,8.355-0.729c2.131,1.788,2.41,4.976,0.62,7.106
			c-0.744,0.887-1.79,1.431-2.943,1.532c-1.153,0.098-2.278-0.254-3.165-0.999c-0.77-0.647-1.243-1.555-1.331-2.558
			c-0.043-0.493,0.01-0.98,0.151-1.439c-0.695,1.598-0.295,3.529,1.107,4.705c1.108,0.931,2.508,1.378,3.958,1.249
			c1.443-0.126,2.751-0.807,3.682-1.916c0.532-0.633,1.479-0.716,2.114-0.184c0.633,0.532,0.717,1.479,0.183,2.113
			c-1.446,1.723-3.476,2.779-5.718,2.975C44.383,31.011,44.134,31.022,43.886,31.022z M41.174,20.233
			c0.339,0,0.682,0.099,0.962,0.334c0.635,0.533,0.718,1.47,0.186,2.105c-0.133,0.157-0.195,0.352-0.178,0.557
			c0.018,0.205,0.115,0.387,0.272,0.52c0.273,0.23,0.615,0.336,0.975,0.306c0.356-0.03,0.678-0.198,0.907-0.472
			c0.725-0.864,0.612-2.14-0.251-2.864c-0.834-0.7-1.951-0.486-2.906-0.486C41.152,20.233,41.163,20.233,41.174,20.233z"/>
		<path id="path-5_42_" d="M19.314,31.022c-0.247,0-0.496-0.011-0.746-0.033c-2.242-0.196-4.272-1.252-5.719-2.975
			c-0.533-0.634-0.45-1.581,0.184-2.113c0.635-0.534,1.582-0.45,2.113,0.184c0.932,1.109,2.239,1.79,3.683,1.916
			c1.45,0.129,2.849-0.318,3.958-1.249c1.401-1.176,1.802-3.108,1.106-4.705c0.142,0.459,0.195,0.946,0.152,1.439
			c-0.088,1.003-0.561,1.911-1.332,2.558c-1.83,1.536-4.571,1.298-6.108-0.532c-0.867-1.033-1.279-2.34-1.162-3.683
			c0.117-1.342,0.75-2.558,1.783-3.424c1.212-1.018,2.743-1.51,4.328-1.366c1.579,0.138,3.009,0.882,4.028,2.095
			c1.208,1.44,1.784,3.264,1.621,5.137c-0.164,1.872-1.047,3.569-2.486,4.778C23.185,30.334,21.29,31.022,19.314,31.022z
			 M21.034,20.016c-0.688,0-1.347,0.239-1.879,0.686c-0.419,0.351-0.676,0.844-0.724,1.389c-0.047,0.543,0.12,1.073,0.471,1.492
			c0.475,0.564,1.32,0.636,1.882,0.164c0.158-0.133,0.255-0.318,0.272-0.522c0.018-0.205-0.045-0.404-0.177-0.561
			c-0.533-0.635-0.45-1.581,0.185-2.113c0.291-0.245,0.648-0.365,1.001-0.351c-0.245-0.091-0.504-0.15-0.771-0.173
			C21.207,20.02,21.12,20.016,21.034,20.016z"/>
		<path id="path-6_35_" d="M31.146,62.753C13.972,62.753,0,48.782,0,31.61S13.972,0.467,31.146,0.467
			c17.175,0,31.148,13.971,31.148,31.143S48.321,62.753,31.146,62.753z M31.146,3.466C15.626,3.466,3,16.091,3,31.61
			s12.626,28.144,28.146,28.144c15.521,0,28.148-12.625,28.148-28.144S46.667,3.466,31.146,3.466z"/>
	</g>
</g>
<g>
</g>
<g>
</g>
<g>
</g>
<g>
</g>
<g>
</g>
<g>
</g>
<g>
</g>
<g>
</g>
<g>
</g>
<g>
</g>
<g>
</g>
<g>
</g>
<g>
</g>
<g>
</g>
<g>
</g>
</svg>
