<?xml version="1.0" encoding="iso-8859-1"?>
<!-- Generator: Adobe Illustrator 19.1.0, SVG Export Plug-In . SVG Version: 6.00 Build 0)  -->
<svg version="1.1" id="Capa_1" xmlns="http://www.w3.org/2000/svg" xmlns:xlink="http://www.w3.org/1999/xlink" x="0px" y="0px"
	 viewBox="0 0 66.38 66.38" style="enable-background:new 0 0 66.38 66.38;" xml:space="preserve">
<g>
	<g id="group-24svg">
		<path id="path-1_15_" style="fill:#EDC951;" d="M66.38,35.349c0,16.617-13.471,30.087-30.089,30.087
			c-16.619,0-30.09-13.47-30.09-30.087c0-16.615,13.471-30.085,30.09-30.085C52.909,5.264,66.38,18.735,66.38,35.349z"/>
		<path id="path-2_15_" style="fill:#FFFFFF;" d="M56.178,28.252c0,3.413-2.767,6.18-6.18,6.18c-3.413,0-6.18-2.767-6.18-6.18
			s2.767-6.179,6.18-6.179C53.411,22.073,56.178,24.839,56.178,28.252z"/>
		<path id="path-3_15_" style="fill:#FFFFFF;" d="M32.807,28.252c0,3.413-2.767,6.18-6.18,6.18s-6.181-2.767-6.181-6.18
			s2.768-6.179,6.181-6.179S32.807,24.839,32.807,28.252z"/>
		<path id="path-4_15_" d="M47.111,25.059c0,1.727-1.4,3.127-3.127,3.127c-1.728,0-3.127-1.4-3.127-3.127
			c0-1.727,1.399-3.126,3.127-3.126C45.711,21.933,47.111,23.332,47.111,25.059z"/>
		<path id="path-5_15_" d="M44.356,33.111c-4.235,0-7.68-3.445-7.68-7.679c0-4.235,3.445-7.68,7.68-7.68s7.68,3.445,7.68,7.68
			C52.036,29.666,48.591,33.111,44.356,33.111z M44.356,20.752c-2.58,0-4.68,2.099-4.68,4.68c0,2.58,2.1,4.679,4.68,4.679
			c2.581,0,4.68-2.099,4.68-4.679C49.036,22.851,46.937,20.752,44.356,20.752z"/>
		<path id="path-6_11_" d="M20.985,33.111c-4.235,0-7.68-3.445-7.68-7.679c0-4.235,3.445-7.68,7.68-7.68
			c4.234,0,7.68,3.445,7.68,7.68C28.665,29.666,25.219,33.111,20.985,33.111z M20.985,20.752c-2.581,0-4.68,2.099-4.68,4.68
			c0,2.58,2.099,4.679,4.68,4.679s4.68-2.099,4.68-4.679C25.665,22.851,23.566,20.752,20.985,20.752z"/>
		<path id="path-7_10_" d="M23.74,25.059c0,1.727-1.401,3.127-3.128,3.127s-3.126-1.4-3.126-3.127c0-1.727,1.399-3.126,3.126-3.126
			S23.74,23.332,23.74,25.059z"/>
		<path id="path-8_8_" d="M31.589,64.116C14.171,64.116,0,49.945,0,32.529S14.171,0.943,31.589,0.943s31.59,14.17,31.59,31.586
			S49.007,64.116,31.589,64.116z M31.589,3.943C15.825,3.943,3,16.767,3,32.529c0,15.763,12.825,28.586,28.589,28.586
			c15.765,0,28.59-12.823,28.59-28.586C60.179,16.767,47.354,3.943,31.589,3.943z"/>
		<path id="path-9_6_" d="M45.018,48.208h-28c-0.828,0-1.5-0.672-1.5-1.5c0-0.829,0.672-1.5,1.5-1.5h28c0.829,0,1.5,0.671,1.5,1.5
			C46.518,47.535,45.847,48.208,45.018,48.208z"/>
	</g>
</g>
<g>
</g>
<g>
</g>
<g>
</g>
<g>
</g>
<g>
</g>
<g>
</g>
<g>
</g>
<g>
</g>
<g>
</g>
<g>
</g>
<g>
</g>
<g>
</g>
<g>
</g>
<g>
</g>
<g>
</g>
</svg>
