<?xml version="1.0" encoding="iso-8859-1"?>
<!-- Generator: Adobe Illustrator 19.1.0, SVG Export Plug-In . SVG Version: 6.00 Build 0)  -->
<svg version="1.1" id="Capa_1" xmlns="http://www.w3.org/2000/svg" xmlns:xlink="http://www.w3.org/1999/xlink" x="0px" y="0px"
	 viewBox="0 0 63.921 63.921" style="enable-background:new 0 0 63.921 63.921;" xml:space="preserve">
<g>
	<g id="group-26svg">
		<path id="path-1_17_" style="fill:#EDC951;" d="M63.012,31.797c0,15.299-12.403,27.701-27.704,27.701
			c-15.3,0-27.704-12.402-27.704-27.701c0-15.298,12.404-27.7,27.704-27.7C50.609,4.097,63.012,16.499,63.012,31.797z"/>
		<path id="path-2_17_" style="fill:#8B71B5;" d="M31.193,53.483c-5.592,0-8.303-4.56-8.303-10.56h25.315
			c0,6-2.711,10.292-8.304,10.292l0,0"/>
		<path id="path-3_17_" style="fill:#E56A77;" d="M38.089,42.923v17.019c0,2.265-0.353,3.979-2.617,3.979h0.037
			c-2.264,0-5.42-1.714-5.42-3.979V42.923l0,0"/>
		<path id="path-4_17_" style="fill:#FFFFFF;" d="M51.887,26.993c0,3.142-2.547,5.69-5.69,5.69c-3.142,0-5.69-2.548-5.69-5.69
			s2.548-5.689,5.69-5.689C49.34,21.304,51.887,23.851,51.887,26.993z"/>
		<path id="path-5_17_" style="fill:#FFFFFF;" d="M30.368,26.993c0,3.142-2.548,5.69-5.69,5.69s-5.69-2.548-5.69-5.69
			s2.548-5.689,5.69-5.689S30.368,23.851,30.368,26.993z"/>
		<path id="path-6_13_" d="M25.999,52.435c-6.047,0-9.803-4.603-9.803-12.011c0-0.829,0.671-1.5,1.5-1.5H43.01
			c0.829,0,1.5,0.671,1.5,1.5c0,7.258-3.756,11.767-9.803,11.767c-0.828,0-1.5-0.671-1.5-1.5c0-0.828,0.672-1.5,1.5-1.5
			c5.083,0,6.453-4.05,6.738-7.267H19.263c0.275,3.029,1.558,7.511,6.736,7.511c0.829,0,1.5,0.671,1.5,1.5
			C27.499,51.763,26.828,52.435,25.999,52.435z"/>
		<path id="path-7_12_" d="M30.315,62.921c-0.013,0-0.025,0-0.038,0c-0.014,0-0.027,0-0.041,0c-2.924-0.041-6.147-2.319-6.147-5.576
			V40.924c0-0.829,0.672-1.5,1.5-1.5c0.829,0,1.5,0.671,1.5,1.5v16.421c0,1.381,1.758,2.566,3.207,2.576
			c1.481-0.011,1.793-1.406,1.793-2.576V40.924c0-0.829,0.672-1.5,1.5-1.5c0.829,0,1.5,0.671,1.5,1.5v16.421
			c0,3.357-1.855,5.576-4.734,5.576C30.342,62.921,30.328,62.921,30.315,62.921z"/>
		<path id="path-8_10_" d="M28.589,56.422c-0.828,0-1.5-0.671-1.5-1.5v-8.999c0-0.828,0.672-1.5,1.5-1.5c0.829,0,1.5,0.672,1.5,1.5
			v8.999C30.089,55.751,29.418,56.422,28.589,56.422z"/>
		<path id="path-9_8_" d="M25.864,58.077c-0.076,0-0.152-0.005-0.23-0.018C11.538,55.889,0.91,43.482,0.91,29.2
			C0.91,13.099,14.01,0,30.114,0s29.204,13.099,29.204,29.2c0,14.131-10.077,26.214-23.96,28.731
			c-0.815,0.143-1.597-0.393-1.744-1.208c-0.148-0.815,0.393-1.595,1.208-1.743c12.456-2.259,21.496-13.101,21.496-25.78
			C56.318,14.753,44.562,3,30.114,3S3.91,14.753,3.91,29.2c0,12.815,9.535,23.947,22.181,25.895c0.819,0.126,1.38,0.892,1.254,1.711
			C27.231,57.547,26.592,58.077,25.864,58.077z"/>
		<path id="path-10_6_" d="M41.003,31.585c-3.964,0-7.19-3.225-7.19-7.189s3.226-7.189,7.19-7.189s7.19,3.225,7.19,7.189
			S44.966,31.585,41.003,31.585z M41.003,20.206c-2.31,0-4.19,1.88-4.19,4.19s1.88,4.189,4.19,4.189c2.311,0,4.19-1.879,4.19-4.189
			S43.313,20.206,41.003,20.206z"/>
		<path id="path-11_4_" d="M19.485,31.585c-3.965,0-7.19-3.225-7.19-7.189s3.225-7.189,7.19-7.189c3.964,0,7.189,3.225,7.189,7.189
			S23.449,31.585,19.485,31.585z M19.485,20.206c-2.311,0-4.19,1.88-4.19,4.19s1.879,4.189,4.19,4.189
			c2.31,0,4.189-1.879,4.189-4.189S21.795,20.206,19.485,20.206z"/>
		<path id="path-12_4_" d="M43.54,24.053c0,1.59-1.289,2.879-2.88,2.879c-1.59,0-2.879-1.289-2.879-2.879
			c0-1.59,1.289-2.879,2.879-2.879C42.25,21.174,43.54,22.463,43.54,24.053z"/>
		<path id="path-13_4_" d="M22.021,24.053c0,1.59-1.289,2.879-2.879,2.879c-1.591,0-2.88-1.289-2.88-2.879
			c0-1.59,1.289-2.879,2.88-2.879C20.732,21.174,22.021,22.463,22.021,24.053z"/>
	</g>
</g>
<g>
</g>
<g>
</g>
<g>
</g>
<g>
</g>
<g>
</g>
<g>
</g>
<g>
</g>
<g>
</g>
<g>
</g>
<g>
</g>
<g>
</g>
<g>
</g>
<g>
</g>
<g>
</g>
<g>
</g>
</svg>
