<?xml version="1.0" encoding="iso-8859-1"?>
<!-- Generator: Adobe Illustrator 19.1.0, SVG Export Plug-In . SVG Version: 6.00 Build 0)  -->
<svg version="1.1" id="Capa_1" xmlns="http://www.w3.org/2000/svg" xmlns:xlink="http://www.w3.org/1999/xlink" x="0px" y="0px"
	 viewBox="0 0 64.771 64.771" style="enable-background:new 0 0 64.771 64.771;" xml:space="preserve">
<g>
	<g id="group-18svg">
		<path id="path-1_8_" style="fill:#EDC951;" d="M62.571,31.797c0,15.299-12.403,27.701-27.704,27.701S7.163,47.096,7.163,31.797
			c0-15.298,12.403-27.7,27.704-27.7S62.571,16.499,62.571,31.797z"/>
		<path id="path-2_8_" style="fill:#8B71B5;" d="M30.752,53.908c-5.592,0-8.303-4.135-8.303-10.135h25.314
			c0,6-2.711,10.079-8.302,10.079l0,0"/>
		<path id="path-3_8_" style="fill:#E56A77;" d="M38.414,43.773v16.169c0,2.265-1.119,4.829-3.384,4.829h0.038
			c-2.265,0-4.654-2.564-4.654-4.829V43.773l0,0"/>
		<path id="path-4_8_" style="fill:#FFFFFF;" d="M50.644,28.581c0,2.727-2.21,4.936-4.936,4.936c-2.727,0-4.937-2.209-4.937-4.936
			c0-2.725,2.21-4.935,4.937-4.935C48.434,23.646,50.644,25.856,50.644,28.581z"/>
		<path id="path-5_8_" style="fill:#FFFFFF;" d="M30.504,28.581c0,2.727-2.21,4.936-4.936,4.936c-2.727,0-4.936-2.209-4.936-4.936
			c0-2.725,2.209-4.935,4.936-4.935C28.294,23.646,30.504,25.856,30.504,28.581z"/>
		<path id="path-6_6_" d="M42.245,32.42c-3.549,0-6.437-2.887-6.437-6.435c0-3.549,2.888-6.436,6.437-6.436s6.436,2.887,6.436,6.436
			C48.681,29.533,45.794,32.42,42.245,32.42z M42.245,22.549c-1.895,0-3.437,1.541-3.437,3.436c0,1.894,1.542,3.436,3.437,3.436
			c1.894,0,3.436-1.542,3.436-3.436C45.681,24.09,44.139,22.549,42.245,22.549z"/>
		<path id="path-7_6_" d="M22.105,32.42c-3.549,0-6.436-2.887-6.436-6.435c0-3.549,2.887-6.436,6.436-6.436s6.436,2.887,6.436,6.436
			C28.541,29.533,25.654,32.42,22.105,32.42z M22.105,22.549c-1.894,0-3.436,1.541-3.436,3.436c0,1.894,1.542,3.436,3.436,3.436
			c1.895,0,3.436-1.542,3.436-3.436C25.541,24.09,24,22.549,22.105,22.549z"/>
		<path id="path-8_5_" d="M44.599,24.694c0,2.013-1.633,3.645-3.645,3.645c-2.014,0-3.646-1.632-3.646-3.645
			s1.632-3.645,3.646-3.645C42.966,21.049,44.599,22.681,44.599,24.694z"/>
		<path id="path-9_5_" d="M24.459,24.694c0,2.013-1.632,3.645-3.645,3.645c-2.014,0-3.645-1.632-3.645-3.645
			s1.631-3.645,3.645-3.645C22.827,21.049,24.459,22.681,24.459,24.694z"/>
		<path id="path-10_4_" d="M27.289,52.86c-6.138,0-9.803-4.331-9.803-11.586c0-0.829,0.672-1.5,1.5-1.5H44.3
			c0.829,0,1.5,0.671,1.5,1.5c0,7.235-3.665,11.554-9.803,11.554c-0.828,0-1.5-0.671-1.5-1.5c0-0.828,0.672-1.5,1.5-1.5
			c4.915,0,6.435-3.553,6.741-7.054H20.553c0.292,3.146,1.67,7.086,6.736,7.086c0.828,0,1.5,0.671,1.5,1.5
			C28.789,52.188,28.117,52.86,27.289,52.86z"/>
		<path id="path-11_3_" d="M31.605,63.771c-0.014,0-0.026,0-0.038,0c-0.018,0-0.034,0-0.052-0.001
			c-3.153-0.061-5.101-3.363-5.101-6.424V41.774c0-0.829,0.672-1.5,1.5-1.5c0.828,0,1.5,0.671,1.5,1.5v15.572
			c0,1.576,0.947,3.407,2.173,3.425c1.299-0.018,2.827-1.865,2.827-3.425V41.774c0-0.829,0.672-1.5,1.5-1.5
			c0.828,0,1.5,0.671,1.5,1.5v15.572c0,2.883-2.559,6.425-5.755,6.425C31.641,63.771,31.623,63.771,31.605,63.771z"/>
		<path id="path-12_3_" d="M30.914,57.272c-0.828,0-1.5-0.671-1.5-1.5v-8.999c0-0.828,0.672-1.5,1.5-1.5c0.828,0,1.5,0.672,1.5,1.5
			v8.999C32.414,56.601,31.742,57.272,30.914,57.272z"/>
		<path id="path-13_3_" d="M27.155,58.077c-0.076,0-0.153-0.005-0.231-0.018C12.829,55.889,2.2,43.483,2.2,29.201
			C2.2,13.099,15.3,0,31.404,0c16.103,0,29.204,13.099,29.204,29.201c0,14.13-10.077,26.213-23.961,28.73
			c-0.819,0.143-1.597-0.393-1.743-1.208c-0.148-0.815,0.393-1.595,1.208-1.743c12.456-2.259,21.496-13.101,21.496-25.779
			C57.608,14.753,45.853,3,31.404,3S5.2,14.753,5.2,29.201c0,12.814,9.536,23.947,22.181,25.894c0.819,0.126,1.38,0.892,1.254,1.711
			C28.521,57.547,27.882,58.077,27.155,58.077z"/>
	</g>
</g>
<g>
</g>
<g>
</g>
<g>
</g>
<g>
</g>
<g>
</g>
<g>
</g>
<g>
</g>
<g>
</g>
<g>
</g>
<g>
</g>
<g>
</g>
<g>
</g>
<g>
</g>
<g>
</g>
<g>
</g>
</svg>
