<?xml version="1.0" encoding="iso-8859-1"?>
<!-- Generator: Adobe Illustrator 19.1.0, SVG Export Plug-In . SVG Version: 6.00 Build 0)  -->
<svg version="1.1" id="Capa_1" xmlns="http://www.w3.org/2000/svg" xmlns:xlink="http://www.w3.org/1999/xlink" x="0px" y="0px"
	 viewBox="0 0 66.352 66.352" style="enable-background:new 0 0 66.352 66.352;" xml:space="preserve">
<g>
	<g id="group-27svg">
		<path id="path-1_18_" style="fill:#EDC951;" d="M66.352,35.779c0,16.372-13.273,29.644-29.646,29.644
			c-16.374,0-29.648-13.272-29.648-29.644S20.332,6.135,36.706,6.135C53.079,6.135,66.352,19.407,66.352,35.779z"/>
		<path id="path-2_18_" style="fill:#E56A77;" d="M42.828,45.81l1.88,3.301c0.838,1.438,0.594,3.577-0.845,4.415l0.025-0.014
			c-1.439,0.838-3.45,0.012-4.288-1.426l-2.464-4.326l0,0"/>
		<path id="path-3_18_" d="M44.998,24.748c0,1.98-1.607,3.586-3.587,3.586c-1.981,0-3.586-1.606-3.586-3.586
			c0-1.981,1.605-3.586,3.586-3.586C43.391,21.162,44.998,22.767,44.998,24.748z"/>
		<path id="path-4_18_" d="M24.376,24.748c0,1.98-1.606,3.586-3.586,3.586c-1.981,0-3.587-1.606-3.587-3.586
			c0-1.981,1.606-3.586,3.587-3.586C22.77,21.162,24.376,22.767,24.376,24.748z"/>
		<path id="path-5_18_" d="M40.745,55.345c-0.524,0-1.06-0.093-1.584-0.28c-1.135-0.406-2.122-1.217-2.709-2.224l-2.473-4.338
			c-0.41-0.72-0.158-1.636,0.562-2.046c0.719-0.412,1.634-0.16,2.046,0.561l2.465,4.325c0.225,0.388,0.647,0.728,1.12,0.898
			c0.242,0.086,0.698,0.197,1.083-0.01c0-0.001,0.001-0.001,0.001-0.001c0.381-0.222,0.508-0.679,0.55-0.932
			c0.082-0.49-0.01-1.026-0.248-1.432l-1.887-3.314c-0.41-0.719-0.159-1.635,0.561-2.045c0.719-0.411,1.636-0.16,2.046,0.561
			l1.88,3.3c0.579,0.993,0.804,2.245,0.608,3.421c-0.212,1.277-0.906,2.357-1.912,2.98c-0.02,0.013-0.042,0.026-0.064,0.04
			C42.178,55.165,41.474,55.345,40.745,55.345z"/>
		<path id="path-6_14_" d="M33.889,47.694h-4.98c-6.32,0-11.462-5.084-11.462-11.331c0-0.829,0.672-1.5,1.5-1.5
			c0.828,0,1.5,0.671,1.5,1.5c0,4.671,3.717,8.331,8.462,8.331h4.98c4.746,0,8.462-3.603,8.462-8.202c0-0.829,0.672-1.5,1.5-1.5
			c0.828,0,1.5,0.671,1.5,1.5C45.351,42.773,40.316,47.694,33.889,47.694z"/>
		<path id="path-7_13_" d="M31.146,63.217C13.972,63.217,0,49.246,0,32.074C0,14.901,13.972,0.93,31.146,0.93
			c17.175,0,31.148,13.971,31.148,31.144C62.294,49.246,48.321,63.217,31.146,63.217z M31.146,3.93C15.626,3.93,3,16.555,3,32.074
			c0,15.518,12.626,28.143,28.146,28.143c15.521,0,28.148-12.625,28.148-28.143C59.294,16.555,46.667,3.93,31.146,3.93z"/>
	</g>
</g>
<g>
</g>
<g>
</g>
<g>
</g>
<g>
</g>
<g>
</g>
<g>
</g>
<g>
</g>
<g>
</g>
<g>
</g>
<g>
</g>
<g>
</g>
<g>
</g>
<g>
</g>
<g>
</g>
<g>
</g>
</svg>
